<svg xmlns="http://www.w3.org/2000/svg" viewBox="0 0 1120.59226 777.91584"><title>not found</title><circle cx="212.592" cy="103" r="64" fill="#ff6584"/><path fill="#f2f2f2" d="M523.98 343.12c0 151-89.78 203.74-200.52 203.74s-200.5-52.73-200.5-203.74S323.45 0 323.45 0s200.52 192.1 200.52 343.12z"/><path fill="#3f3d56" d="M316.16 523.76l2.05-126.38 85.47-156.36-85.14 136.53.93-56.82 58.9-113.13-58.66 98.1 1.66-102.22 63.07-90.06-62.8 74L322.65 0l-6.52 248.1.53-10.24-64.12-98.16 63.1 117.8-5.98 114.15-.18-3.02-73.94-103.3 73.7 114-.74 14.27-.13.22.05 1.17-15.16 289.6h20.24l2.43-149.6 73.53-113.7-73.34 102.46z"/><path fill="#f2f2f2" d="M1120.6 404.97c0 123.6-73.5 166.77-164.14 166.77s-164.13-43.16-164.13-166.77S956.46 124.1 956.46 124.1s164.13 157.26 164.13 280.87z"/><path fill="#3f3d56" d="M950.48 552.83l1.68-103.45 69.96-127.98-69.7 111.75.76-46.5 48.22-92.6-48.02 80.28 1.36-83.66 51.63-73.72-51.42 60.56.85-153.4-5.33 203.1.44-8.4-52.5-80.34 51.66 96.43-4.9 93.43-.13-2.48-60.52-84.56 60.34 93.3-.6 11.7-.12.17.05.96-12.4 237.05h16.57l2-122.44 60.17-93.1-60.02 83.9z"/><ellipse cx="554.592" cy="680.479" fill="#3f3d56" rx="554.592" ry="28.034"/><ellipse cx="892.445" cy="726.797" fill="#3f3d56" rx="94.989" ry="4.802"/><ellipse cx="548.72" cy="773.114" fill="#3f3d56" rx="94.989" ry="4.802"/><ellipse cx="287.944" cy="734.279" fill="#3f3d56" rx="217.014" ry="10.97"/><circle cx="97.084" cy="566.27" r="79" fill="#2f2e41"/><path fill="#2f2e41" d="M60.2 627.9l24 .3-.5 43-24-.3zM108.2 628.5l24 .27-.5 43-24-.28z"/><ellipse cx="119.546" cy="732.616" fill="#2f2e41" rx="7.5" ry="20" transform="translate(-654.132 782.479) rotate(-89.325)"/><ellipse cx="167.554" cy="732.182" fill="#2f2e41" rx="7.5" ry="20" transform="translate(-606.255 830.055) rotate(-89.325)"/><circle cx="99.319" cy="546.295" r="27" fill="#fff"/><circle cx="99.319" cy="546.295" r="9" fill="#3f3d56"/><path fill="#6c63ff" d="M21.32 491.9c-6.04-28.64 14.7-57.26 46.3-63.93s62.14 11.14 68.18 39.78-14.98 38.93-46.6 45.6-61.84 7.2-67.88-21.45zM217.6 610.34c0 55.08-32.75 74.3-73.14 74.3q-1.4 0-2.8-.02c-1.87-.04-3.73-.13-5.56-.26-36.45-2.58-64.77-22.8-64.77-74.02 0-53 67.74-119.9 72.83-124.84.2-.2.3-.3.3-.3s73.13 70.07 73.13 125.14z"/><path fill="#3f3d56" d="M141.8 676.22l26.74-37.37-26.8 41.48-.08 4.3c-1.87-.05-3.73-.14-5.56-.27l2.9-55.1-.04-.43.05-.08.28-5.2-26.88-41.58 26.97 37.68.06 1.1 2.18-41.63-23-42.97 23.3 35.66 2.26-86.3v-.3.3l-.37 68.05 22.9-26.98-23 32.84-.6 37.3 21.38-35.78L143 602.17l-.34 20.73 31.06-49.8-31.17 57.03z"/><circle cx="712.485" cy="565.415" r="79" fill="#2f2e41"/><path fill="#2f2e41" d="M696.54 635.17l22.94-7.06 12.65 41.12-22.95 7.05zM742.17 621.16l22.94-7.05 12.64 41.1-22.94 7.06z"/><ellipse cx="767.887" cy="732.003" fill="#2f2e41" rx="20" ry="7.5" transform="translate(-220.859 196.833) rotate(-17.083)"/><ellipse cx="813.475" cy="716.946" fill="#2f2e41" rx="20" ry="7.5" transform="translate(-214.425 209.561) rotate(-17.083)"/><circle cx="708.522" cy="545.71" r="27" fill="#fff"/><circle cx="708.522" cy="545.71" r="9" fill="#3f3d56"/><path fill="#6c63ff" d="M617.65 517.7c-14.5-25.43-3.48-59 24.6-75s62.57-8.35 77.06 17.08-2.38 41.65-30.45 57.64-56.7 25.7-71.2.28zM571.6 600.26c0 50.55-30.06 68.2-67.14 68.2q-1.3 0-2.57-.02c-1.73-.04-3.43-.12-5.1-.24-33.47-2.36-59.47-20.92-59.47-67.94 0-48.66 62.18-110.06 66.85-114.6.2-.2.28-.28.28-.28s67.13 64.32 67.13 114.88z"/><path fill="#3f3d56" d="M502.02 660.73l24.55-34.3-24.6 38.07-.08 3.94c-1.73-.04-3.43-.12-5.1-.24l2.64-50.58-.02-.4.04-.06.25-4.78-24.67-38.17 24.76 34.6.04 1 2-38.2-21.12-39.45 21.38 32.74 2.08-79.25v-.27.27l-.34 62.47 21.04-24.76-21.12 30.15-.56 34.22 19.64-32.83-19.72 37.86-.3 19.02 28.5-45.7-28.62 52.34z"/><path fill="#6c63ff" d="M835.6 621.34c0 55.08-32.75 74.3-73.14 74.3q-1.4 0-2.8-.02c-1.87-.04-3.73-.13-5.56-.26-36.45-2.58-64.77-22.8-64.77-74.02 0-53 67.74-119.9 72.83-124.84.2-.2.3-.3.3-.3s73.13 70.07 73.13 125.14z"/><path fill="#3f3d56" d="M759.8 687.22l26.74-37.37-26.8 41.48-.08 4.3c-1.87-.05-3.73-.14-5.56-.27l2.9-55.1-.04-.43.05-.08.28-5.2-26.88-41.58 26.97 37.68.06 1.1 2.18-41.63-23-42.97 23.3 35.66 2.26-86.3v-.3.3l-.37 68.05 22.9-26.98-23 32.84-.6 37.3 21.38-35.78L761 613.17l-.34 20.73 31.06-49.8-31.17 57.03z"/><ellipse cx="721.517" cy="656.822" fill="#2f2e41" rx="12.4" ry="39.5" transform="translate(-220.835 966.223) rotate(-64.626)"/><ellipse cx="112.517" cy="651.822" fill="#2f2e41" rx="12.4" ry="39.5" transform="translate(-574.079 452.714) rotate(-68.158)"/></svg>