<svg xmlns="http://www.w3.org/2000/svg" xmlns:xlink="http://www.w3.org/1999/xlink" viewBox="0 0 1167.52 756.03"><defs><linearGradient id="a" x1="588.17" x2="588.17" y1="804.7" y2="185.7" gradientUnits="userSpaceOnUse"><stop offset="0" stop-color="#808080" stop-opacity=".25"/><stop offset=".54" stop-color="#808080" stop-opacity=".12"/><stop offset="1" stop-color="#808080" stop-opacity=".1"/></linearGradient><linearGradient id="b" x1="567.7" x2="567.7" y1="1179.83" y2="1173.83" gradientTransform="translate(74.47 -1004.13)" xlink:href="#a"/><linearGradient id="c" x1="588.52" x2="588.52" y1="693.03" y2="483.16" xlink:href="#a"/></defs><title>about me</title><ellipse cx="560.76" cy="725.03" fill="#6c63ff" rx="541" ry="31" opacity=".1"/><g opacity=".2"><path fill="#3f3d56" d="M1007.26 726.42a17.73 17.73 0 0 1-1.73 2.67q-8.64-6.1-17.57-11.94c.12-.25.25-.5.4-.76a16.84 16.84 0 0 1 6-6.52c3.28-2 7-2.48 10-.86s4.75 4.94 4.93 8.78a16.84 16.84 0 0 1-2.04 8.62z"/><ellipse cx="1022.06" cy="778.26" fill="#3f3d56" rx="14.01" ry="10.7" transform="translate(-160.29 1245.24) rotate(-62.09)"/><ellipse cx="1030.07" cy="763.12" fill="#3f3d56" rx="14.01" ry="10.7" transform="translate(-142.65 1244.27) rotate(-62.09)"/><ellipse cx="1038.09" cy="747.99" fill="#3f3d56" rx="14.01" ry="10.7" transform="translate(-125.01 1243.3) rotate(-62.09)"/><ellipse cx="1046.11" cy="732.85" fill="#3f3d56" rx="14.01" ry="10.7" transform="translate(-107.37 1242.33) rotate(-62.09)"/><path fill="#6c63ff" d="M1049.3 538.52a51.9 51.9 0 0 1-.77-7l27 9.08-27-14a51.4 51.4 0 0 1 18.23-36.45l26.1 37.86-20.3-42.06a51.28 51.28 0 1 1 48 90.35 51.2 51.2 0 0 1 .8 11l-41.15-.33 40.53 6.67a51.33 51.33 0 0 1-29.84 38.68 51.28 51.28 0 1 1-71.24-37.72 51.3 51.3 0 0 1 29.67-56z"/><path d="M1115.4 609.4a51 51 0 0 1-24.53 22.88 51.28 51.28 0 1 1-71.23-37.72c-2-10.93 98.46 9.76 95.76 14.84z" opacity=".1"/></g><g opacity=".2"><path fill="#3f3d56" d="M975.13 423.95a31.64 31.64 0 0 1-2.25 4.64q-15.1-8.07-30.6-15.67c.13-.43.3-.88.46-1.3a27.2 27.2 0 0 1 8.3-11.67c4.87-3.9 10.74-5.37 16-3.38s8.62 7 9.67 13.1a27.2 27.2 0 0 1-1.57 14.27z"/><ellipse cx="985.03" cy="463.85" fill="#3f3d56" rx="22.69" ry="17.33" transform="translate(184.88 1147.47) rotate(-69.16)"/><ellipse cx="994.89" cy="437.94" fill="#3f3d56" rx="22.69" ry="17.33" transform="translate(215.46 1139.99) rotate(-69.16)"/><ellipse cx="1004.76" cy="412.02" fill="#3f3d56" rx="22.69" ry="17.33" transform="translate(246.03 1132.51) rotate(-69.16)"/><ellipse cx="1014.62" cy="386.11" fill="#3f3d56" rx="22.69" ry="17.33" transform="translate(276.61 1125.04) rotate(-69.16)"/><path fill="#6c63ff" d="M1005.25 113.7a83.36 83.36 0 0 1-2.65-11.18l45.22 9.2-46.16-17.17a83.1 83.1 0 0 1 21.9-62L1073.14 88l-41-63.52a83 83 0 1 1 95.1 135.6 83.42 83.42 0 0 1 3.45 17.5l-66.17 7.7 66.44 2.64a83.07 83.07 0 0 1-40.25 68.1 83 83 0 1 1-122-46.43 83 83 0 0 1 36.5-95.94z"/><path d="M1125.55 214.4a82.6 82.6 0 0 1-34.86 41.6 83 83 0 1 1-122-46.4c-5.34-17.13 160.17-3.9 156.85 4.8z" opacity=".1"/></g><g opacity=".2"><path fill="#3f3d56" d="M178.38 510.16a37.3 37.3 0 0 0 2 5.8q19-7.28 38.43-14c-.1-.53-.2-1.08-.35-1.62a32.4 32.4 0 0 0-8.07-15c-5.18-5.32-11.9-7.92-18.34-6.34s-11.2 7-13.35 14a32.5 32.5 0 0 0-.32 17.16z"/><ellipse cx="206.83" cy="545.22" fill="#3f3d56" rx="20.61" ry="26.98" transform="translate(-139.61 -7.4) rotate(-13.72)"/><ellipse cx="199.01" cy="513.19" fill="#3f3d56" rx="20.61" ry="26.98" transform="translate(-132.24 -10.16) rotate(-13.72)"/><ellipse cx="191.2" cy="481.16" fill="#3f3d56" rx="20.61" ry="26.98" transform="translate(-124.87 -12.93) rotate(-13.72)"/><ellipse cx="183.38" cy="449.12" fill="#3f3d56" rx="20.61" ry="26.98" transform="translate(-117.5 -15.7) rotate(-13.72)"/><path fill="#6c63ff" d="M188.58 139.63a97.86 97.86 0 0 0 4.78-12.8l-54.7 4.18 57-13.45a98.8 98.8 0 0 0-16.72-76.43l-66.68 58.24 57.77-68.92a98.72 98.72 0 1 0-132.2 146 99.32 99.32 0 0 0-6.67 20.16l76.95 18.8-78.77-6.66A98.8 98.8 0 0 0 66.76 295a98.7 98.7 0 1 0 150.76-36.8 98.7 98.7 0 0 0-29-118.57z"/><path d="M31.76 240.72a98.3 98.3 0 0 0 35 54.3 98.7 98.7 0 1 0 150.76-36.8c8.88-19.46-188.37-28.2-185.76-17.5z" opacity=".1"/></g><path fill="url(#a)" d="M1072.54 185.7H103.8a8.64 8.64 0 0 0-8.63 8.66v592.88a17.43 17.43 0 0 0 17.4 17.46h951.2a17.43 17.43 0 0 0 17.4-17.46V194.36a8.65 8.65 0 0 0-8.63-8.66z" transform="translate(-16.24 -71.99)"/><path fill="#fff" d="M1061 150.52v561.24a17.26 17.26 0 0 1-17.24 17.25h-943.5a17.26 17.26 0 0 1-17.25-17.25V150.52z"/><path fill="#ededf4" d="M1061 125.58v24.94H83v-24.94a8.56 8.56 0 0 1 8.57-8.56h960.88a8.56 8.56 0 0 1 8.56 8.56z"/><circle cx="98.51" cy="133.52" r="4" fill="#fa5959" opacity=".8"/><circle cx="109.51" cy="133.52" r="4" fill="#fed253" opacity=".8"/><circle cx="120.51" cy="133.52" r="4" fill="#8ccf4d" opacity=".8"/><path fill="url(#b)" d="M640.17 169.7h4v6h-4z" transform="translate(798.63 -541.45) rotate(90)"/><path fill="#ededf4" d="M307.93 199.7h94v10h-94zM307.93 228.7h528v10h-528zM307.93 257.7h528v10h-528zM307.93 286.7h528v10h-528zM307.93 315.7h528v10h-528zM408.76 371.03h326v252h-326z"/><path fill="url(#c)" d="M645.2 521.1c-.42 0-.84.05-1.27.06a5.58 5.58 0 0 0 .14-1.78 17 17 0 0 0-2-7.2 31.3 31.3 0 0 0-2.48-3.77c-2.73-3.75-5.25-7.6-8.24-11.14a17.93 17.93 0 0 1-3.17-4.67 22.83 22.83 0 0 0-1.1-2.72 5.83 5.83 0 0 0-5.44-2.65 8.65 8.65 0 0 0-5.52 2.92c-.84.9-1.53 2.3-.83 3.3s2.23 1.16 2.32 2.28c0 .6 0 1.58-.6 1.77a10.87 10.87 0 0 0-3.07 1.34 3.6 3.6 0 0 0-1.6 2.8c1.72.26 3.17-1.2 4.74-2a8.77 8.77 0 0 1 6.27-.23 5.88 5.88 0 0 1 2.16 1.1 7.6 7.6 0 0 1 1.4 1.88 20.07 20.07 0 0 1 3.46 9.38l.87 5.62a36.5 36.5 0 0 0-3.88.52 24.37 24.37 0 0 1-10.34-.7c-3.5-1-7-2.82-10.6-2-1.7.37-3.24 1.3-4.95 1.58a13.53 13.53 0 0 1-4-.2l-2.74-.45c-.1-.23-.16-.47-.23-.7a20.74 20.74 0 0 1-.78-6.18 11 11 0 0 0 9.4-15.6 9.33 9.33 0 0 0 3.55-3.52l-.7-.13.66-1a1.18 1.18 0 0 1-.2-1.87 3.77 3.77 0 0 0-1.88-.42c.2-.38-.13-.86-.54-1a4.7 4.7 0 0 0-1.3-.07 6.37 6.37 0 0 1-1.86-.43c-4.27-1.47-8.9-2.76-13.25-1.53a16.57 16.57 0 0 0-5.3 2.78 6.9 6.9 0 0 0-2.8 9.07 23.48 23.48 0 0 1 1.4 5.1 16.16 16.16 0 0 1-.55 4.82 19.7 19.7 0 0 0 2.9.65 16.5 16.5 0 0 1-2.88 5.9 23.52 23.52 0 0 1-2 2.22h-.12a48.6 48.6 0 0 1-6 .74c-2.12 0-4.2-.8-6.3-.65a17.1 17.1 0 0 0-3.68.84 56.23 56.23 0 0 1-16.9 2.26l-.7.07.64-4.08a20.07 20.07 0 0 1 3.46-9.4 7.6 7.6 0 0 1 1.4-1.87 5.92 5.92 0 0 1 2.17-1.1 8.74 8.74 0 0 1 6.27.24c1.57.77 3 2.22 4.76 2a3.64 3.64 0 0 0-1.62-2.8 10.87 10.87 0 0 0-3.06-1.34c-.58-.2-.66-1.17-.6-1.77.08-1.12 1.67-1.36 2.3-2.28s0-2.4-.83-3.3a8.66 8.66 0 0 0-5.53-2.92 5.8 5.8 0 0 0-5.44 2.65 21.3 21.3 0 0 0-1.1 2.72 17.93 17.93 0 0 1-3.16 4.67c-3 3.54-5.5 7.38-8.23 11.14a33.3 33.3 0 0 0-2.48 3.75 17.24 17.24 0 0 0-2 7.2 5.64 5.64 0 0 0 .14 1.8 1.15 1.15 0 0 0-.1.45 2.08 2.08 0 0 0 .77 1.4c1.53 1.54 3.14 3.13 5.2 3.8a31.94 31.94 0 0 0 3.9.66c3.15.58 6.06 2.4 9.27 2.4 2.2 0 4.4-.88 6.57-.57 3 .4 5.17 2.85 7 5.22a18 18 0 0 1 3.46 6.3c.7 2.8.27 5.94 1.76 8.4a5.7 5.7 0 0 1 .86 1.66 5.56 5.56 0 0 1-.6 2.73c-1.27 3.87 1.5 8 1.2 12-.14 1.95-1 3.8-1.1 5.74-.14 2.5.88 5.32-.52 7.4.85-.43 1.7-.82 2.6-1.17-4.2 12.3-8 25-7.72 37.94.22 8.4 2 17.63-2.82 24.52a9.68 9.68 0 0 0-1.6 2.75c-.4 1.36 0 2.8.24 4.17.9 6-2.35 11.9-2.57 18a36.3 36.3 0 0 0 .35 5.6l1.18 10.15a7.36 7.36 0 0 0-3.22 1.6c-1.23 1-2.32 2.64-1.74 4.14.47 1.2 1.85 1.8 3.12 2.1a7.82 7.82 0 0 1 3.62 1.36 13.88 13.88 0 0 0 1.1 1.08 4 4 0 0 0 2.4.45c1.54-.06 3-.2 4.57-.4a1.8 1.8 0 0 0 .9-.3 2 2 0 0 0 .52-1.5 19.87 19.87 0 0 0-.2-4.55c-.06-.3-.14-.57-.22-.86a17.75 17.75 0 0 0 1.1-4c.32-2 .37-4.1.5-6.14.3-5.22 1-10.4 1.8-15.58l1-6.66c.3-2.2.63-4.38 1-6.57a206.62 206.62 0 0 1 8.62-34.9c.85-2.44 2.3-5.3 4.87-5.36l1.53 3c2 3.76 3.22 7.93 4.74 11.88 2 5.2 1.32 11.25 4 16.13.44.8 1 1.58 1.33 2.43a14 14 0 0 1 .82 4.07l1.76 18c.8 8.1 1.66 16.4 5.3 23.67a9.12 9.12 0 0 0 .8 1.34 23.25 23.25 0 0 0-.06 3.64 1.43 1.43 0 0 0 1.42 1.8c1.5.2 3 .32 4.55.38a4 4 0 0 0 2.42-.45 11.2 11.2 0 0 0 1.1-1.08 7.78 7.78 0 0 1 3.6-1.37c1.27-.3 2.65-.87 3.12-2.1.6-1.5-.5-3.12-1.75-4.13a7 7 0 0 0-3.56-1.65 5.92 5.92 0 0 1-1.6-.13 8 8 0 0 0 .1-2 10 10 0 0 1-.1-2.38 14.13 14.13 0 0 1 .83-2.35c1.15-3.54-1.3-7.14-2.16-10.76-1.15-4.83.56-9.88.25-14.83-.48-7.77-5.9-15.06-4.46-22.7 1.15-6.13.17-12.42-.92-18.55l-4-22.8a25.28 25.28 0 0 0-1.45-5.42 12.75 12.75 0 0 0 2.17-.58c1-2.44.83-5.13.53-7.75s-1-5.18-1.35-7.78a51.3 51.3 0 0 1-.52-6.32 25.43 25.43 0 0 1 .44-6.22 29.92 29.92 0 0 1 1.87-5.23 92.87 92.87 0 0 1 7-14c4.1-.32 8.1-.67 12.2-1a16.93 16.93 0 0 0 2.9-.4 36.93 36.93 0 0 1 3.74-1.06 5 5 0 0 0 1.38-.27c.9-.4 1.45-1.56 2.44-1.6a4.24 4.24 0 0 0 1.12 0c.44-.14.66-.62 1-1 .62-.7 1.63-.83 2.44-1.28a3.54 3.54 0 0 0 1.34-4.33z" transform="translate(-16.24 -71.99)"/><circle cx="576.94" cy="427.16" r="11" fill="#a1616a"/><path fill="#a1616a" d="M564.24 440.85a27.4 27.4 0 0 1-3.75 3.8 29.8 29.8 0 0 0 21.5 3.53c-.28-.75-1.26-.86-1.95-1.24a4.2 4.2 0 0 1-1.7-2.68 20.94 20.94 0 0 1-.64-8.1 5 5 0 0 0 0-2 4.3 4.3 0 0 0-2.06-2.3 20.4 20.4 0 0 0-5-2.24c-1.82-.54-2.86-.8-2.93 1.33a16.85 16.85 0 0 1-3.46 9.9zM615.28 447.77l-1.12-7.1a26.4 26.4 0 0 0-.9-4.22 27.2 27.2 0 0 0-2.55-5.12 7.56 7.56 0 0 0-1.4-1.87 5.88 5.88 0 0 0-2.15-1.1 8.7 8.7 0 0 0-6.26.25c-1.58.77-3 2.2-4.76 1.96a3.58 3.58 0 0 1 1.62-2.8 10.57 10.57 0 0 1 3-1.33c.57-.18.66-1.16.6-1.76-.08-1.1-1.67-1.35-2.3-2.26s0-2.38.82-3.3a8.6 8.6 0 0 1 5.5-2.88 5.78 5.78 0 0 1 5.45 2.63 21.16 21.16 0 0 1 1.1 2.7 18 18 0 0 0 3.15 4.65c3 3.53 5.5 7.35 8.22 11.1a34.6 34.6 0 0 1 2.48 3.73 16.9 16.9 0 0 1 2 7.18 4.47 4.47 0 0 1-.33 2.28 3.52 3.52 0 0 1-3 1.72 10.63 10.63 0 0 1-3.6-.72L616.5 450a2.84 2.84 0 0 1-1.4-.76 1.1 1.1 0 0 1 .18-1.47zM528.13 449.34l1.1-7.1a27.55 27.55 0 0 1 .9-4.22 26.62 26.62 0 0 1 2.57-5.12 7.07 7.07 0 0 1 1.4-1.86 5.66 5.66 0 0 1 2.15-1.1 8.74 8.74 0 0 1 6.27.24c1.57.76 3 2.2 4.75 1.95a3.6 3.6 0 0 0-1.62-2.8 10.7 10.7 0 0 0-3-1.33c-.57-.18-.66-1.16-.6-1.76.08-1.1 1.66-1.35 2.3-2.26s0-2.4-.83-3.3a8.6 8.6 0 0 0-5.5-2.9 5.8 5.8 0 0 0-5.45 2.64 21.1 21.1 0 0 0-1.08 2.7 18.2 18.2 0 0 1-3.17 4.65c-3 3.53-5.5 7.35-8.23 11.1a34 34 0 0 0-2.47 3.73 17.07 17.07 0 0 0-2 7.18 4.53 4.53 0 0 0 .34 2.28 3.53 3.53 0 0 0 3.05 1.7 10.34 10.34 0 0 0 3.58-.7l4.37-1.44a2.77 2.77 0 0 0 1.4-.77 1.1 1.1 0 0 0-.24-1.5z"/><path fill="#3f3d56" d="M607.33 611.42c1.24 1 2.33 2.63 1.75 4.12-.48 1.2-1.85 1.78-3.12 2.08a7.88 7.88 0 0 0-3.6 1.36 11 11 0 0 1-1.1 1.03 3.93 3.93 0 0 1-2.42.46c-1.52-.06-3-.2-4.55-.4a1.8 1.8 0 0 1-.92-.28 1.93 1.93 0 0 1-.5-1.5 19.13 19.13 0 0 1 .18-4.53 6.5 6.5 0 0 1 2.2-3.87c1.15-.9 4.67-3.57 6-1.86.34.46.2 1.1.7 1.47s1.25.16 1.8.23a7 7 0 0 1 3.57 1.7zM539.76 611.94c-1.24 1-2.33 2.63-1.75 4.12.48 1.2 1.85 1.8 3.12 2.08a7.84 7.84 0 0 1 3.6 1.36 11.2 11.2 0 0 0 1.1 1.08 4 4 0 0 0 2.42.45c1.52-.06 3-.2 4.55-.4a1.78 1.78 0 0 0 .9-.3 1.93 1.93 0 0 0 .5-1.48 19.6 19.6 0 0 0-.18-4.53 6.45 6.45 0 0 0-2.2-3.88c-1.14-.9-4.66-3.57-6-1.86-.34.46-.2 1.1-.7 1.47s-1.25.17-1.82.24a7.06 7.06 0 0 0-3.54 1.64zM556.76 505.24c-4.5 13-8.9 26.45-8.55 40.24.23 8.35 2 17.55-2.8 24.4a9.54 9.54 0 0 0-1.6 2.74c-.4 1.34 0 2.76.23 4.14.9 6-2.33 11.86-2.56 17.92a36 36 0 0 0 .36 5.58l1.25 10.68c.42 3.66 5.14 5.16 8.78 5.67a13.6 13.6 0 0 0 3.1-7.18c.3-2 .35-4.07.47-6.1.3-5.2 1.06-10.36 1.8-15.5l1-6.64c.32-2.18.63-4.36 1-6.54a205.66 205.66 0 0 1 8.63-34.63c.85-2.42 2.3-5.25 4.86-5.32l1.53 2.94c2 3.73 3.2 7.9 4.73 11.82 2 5.17 1.3 11.2 4 16.06.44.8 1 1.57 1.32 2.4a13.9 13.9 0 0 1 .82 4l1.77 17.9c.8 8.04 1.64 16.3 5.27 23.54a5.47 5.47 0 0 0 1.67 2.2c1.48 1 3.55.5 5-.55a8.53 8.53 0 0 0 3.46-7.4 11.07 11.07 0 0 1-.1-2.36 15.76 15.76 0 0 1 .82-2.33c1.16-3.5-1.3-7.1-2.16-10.7-1.15-4.8.56-9.8.26-14.74-.48-7.74-5.9-15-4.46-22.6 1.15-6.1.17-12.36-.9-18.46l-4.06-22.7c-.64-3.58-1.6-7.62-4.8-9.37a11.9 11.9 0 0 0-5.82-1c-8.27 0-16.17 1.15-24.32 1.9z"/><path fill="#6c63ff" d="M628.96 449.9a14.3 14.3 0 0 1-8.4-1.73 16.86 16.86 0 0 0-3.1-1.62c-2-.65-4.2-.08-6.3.23a24.6 24.6 0 0 1-10.3-.7c-3.5-1-7-2.8-10.6-2-1.7.37-3.22 1.3-4.93 1.57a13.12 13.12 0 0 1-4-.2l-11.4-1.8a31.18 31.18 0 0 0-7.82-.55 50.62 50.62 0 0 1-6 .75c-2.1 0-4.18-.8-6.3-.66a17.16 17.16 0 0 0-3.65.82 56.33 56.33 0 0 1-16.87 2.25 25.33 25.33 0 0 0-12.7 4.4 2 2 0 0 0-1 1.4 2.05 2.05 0 0 0 .8 1.37c1.52 1.54 3.13 3.12 5.2 3.78a31.43 31.43 0 0 0 3.87.66c3.15.58 6.06 2.4 9.26 2.4 2.22 0 4.4-.9 6.57-.58 3 .4 5.15 2.83 7 5.2a18.17 18.17 0 0 1 3.45 6.27c.7 2.78.26 5.9 1.75 8.35a5.78 5.78 0 0 1 .86 1.65 5.5 5.5 0 0 1-.6 2.7c-1.27 3.86 1.5 7.93 1.2 12-.14 1.94-1 3.78-1.1 5.7-.13 2.52.88 5.3-.52 7.4a35.85 35.85 0 0 1 17.46-3.82 21.88 21.88 0 0 1 3 .28 42 42 0 0 1 5.68 1.58c4.18 1.34 8.78 2.3 12.9.77 1-2.43.83-5.1.52-7.7s-.95-5.17-1.34-7.76a50.8 50.8 0 0 1-.52-6.27 25.2 25.2 0 0 1 .44-6.2 29.34 29.34 0 0 1 1.87-5.2 91.6 91.6 0 0 1 7-14c4.1-.32 8.08-.67 12.18-1a18.85 18.85 0 0 0 2.9-.38 37.45 37.45 0 0 1 3.73-1.06 4.9 4.9 0 0 0 1.4-.3c.9-.4 1.45-1.54 2.43-1.57a4.7 4.7 0 0 0 1.12 0c.44-.13.65-.62 1-1 .62-.7 1.63-.83 2.44-1.27a3.52 3.52 0 0 0 1.46-4.15z"/><path fill="#3f3d56" d="M578.85 431.13a2 2 0 0 0 2.27.14 2.82 2.82 0 0 0 .84-1.54 35.4 35.4 0 0 0 .87-3.8 4.17 4.17 0 0 1 .5-1.6c.73-1.1 2.3-1.17 3.54-1.68a9.2 9.2 0 0 0 3.63-3.56l-.7-.15.66-1a1.16 1.16 0 0 1-.18-1.85 3.7 3.7 0 0 0-1.9-.43c.2-.38-.13-.86-.54-1a4.27 4.27 0 0 0-1.3-.07 6.38 6.38 0 0 1-1.85-.44c-4.27-1.46-8.9-2.75-13.23-1.52a16.44 16.44 0 0 0-5.3 2.77 6.87 6.87 0 0 0-2.8 9 23.28 23.28 0 0 1 1.4 5.06 16.08 16.08 0 0 1-.54 4.82 15.72 15.72 0 0 0 3.65.7 5.24 5.24 0 0 0 3.5-1c1-.85 1.56-2.18 2.38-3.26a3.4 3.4 0 0 1 2.9-1.52c1.1.17 1.3 1.3 2.2 1.93zM549.93 620h-11.7a1.53 1.53 0 0 0 0 3h2.33v19.88H500.5a1.1 1.1 0 0 0-.9-.54h-11.7a1.53 1.53 0 0 0 0 3h2.34v20.4h-38.7a1.24 1.24 0 0 0-1.1-1.07h-11.68a1.52 1.52 0 0 0 0 3h1.17v21H400.6a1 1 0 0 0-.48-.13h-11.7a1.53 1.53 0 0 0 0 3h1.17v20h-38.84a1.12 1.12 0 0 0-1-.68h-11.7a1.53 1.53 0 0 0 0 3h1.17V736h264.53V620z"/><path fill="#6c63ff" d="M173.02 236.3a27.7 27.7 0 0 0-3.9-4.17 3.36 3.36 0 0 1 .36-5.35c.48-.3.95-.64 1.42-1 5.46-4.15 8.22-9.72 6.15-12.45s-8.18-1.57-13.64 2.58a21 21 0 0 0-1.8 1.52 3.35 3.35 0 0 1-5.24-1 28.28 28.28 0 0 0-2.7-4.28c-4.85-6.4-11.37-9.63-14.56-7.2s-1.85 9.57 3 16a27.58 27.58 0 0 0 3.15 3.5 3.38 3.38 0 0 1-.74 5.38c-6 3.43-9.38 8.6-7.68 11.57s7.92 2.6 13.87-.83a26.13 26.13 0 0 0 2.65-1.77 3.38 3.38 0 0 1 5.1 1.24 26.26 26.26 0 0 0 3 5c4.85 6.4 11.38 9.63 14.57 7.2s1.85-9.52-3-15.93zM881.34 409.12a27.22 27.22 0 0 0 2.87-4.95 3.34 3.34 0 0 1 5.22-1.2c.44.36.9.7 1.37 1.06 5.55 4 11.7 5 13.7 2.25s-.9-8.28-6.45-12.3q-1-.7-2-1.3a3.35 3.35 0 0 1-.55-5.3 27.17 27.17 0 0 0 3.3-3.82c4.7-6.5 5.9-13.7 2.65-16s-9.7 1-14.4 7.55a28.2 28.2 0 0 0-2.44 4 3.38 3.38 0 0 1-5.36.88c-5-4.7-11-6.47-13.3-4s-.18 8.33 4.83 13a24.14 24.14 0 0 0 2.47 2 3.38 3.38 0 0 1 .3 5.24 26.85 26.85 0 0 0-3.94 4.4c-4.7 6.5-5.9 13.68-2.64 16s9.67-.98 14.38-7.5z" opacity=".1"/><ellipse cx="886.46" cy="740.19" fill="#6c63ff" rx="33.8" ry="6.5"/><ellipse cx="885.9" cy="737.43" fill="#3f3d56" rx="3.94" ry="5.15"/><ellipse cx="885.9" cy="731.13" fill="#3f3d56" rx="3.94" ry="5.15"/><ellipse cx="885.9" cy="724.84" fill="#3f3d56" rx="3.94" ry="5.15"/><ellipse cx="885.9" cy="718.54" fill="#3f3d56" rx="3.94" ry="5.15"/><ellipse cx="885.9" cy="712.24" fill="#3f3d56" rx="3.94" ry="5.15"/><ellipse cx="885.9" cy="705.95" fill="#3f3d56" rx="3.94" ry="5.15"/><ellipse cx="885.9" cy="699.65" fill="#3f3d56" rx="3.94" ry="5.15"/><path fill="#6c63ff" d="M900.63 656.56a19.94 19.94 0 0 0 1.46-2.16l-10.34-1.7 11.18.1a18.84 18.84 0 0 0 .36-14.95l-15 7.78 13.84-10.17a18.85 18.85 0 1 0-31.14 21.1 19.3 19.3 0 0 0-2.15 3.44l13.43 7-14.32-4.8a18.9 18.9 0 0 0 3 17.7 18.85 18.85 0 1 0 29.64 0 18.87 18.87 0 0 0 0-23.3z"/><path d="M866.96 668.2a18.83 18.83 0 0 0 4 11.67 18.85 18.85 0 1 0 29.64 0c2.55-3.2-33.64-13.77-33.64-11.66z" opacity=".1"/><ellipse cx="270.46" cy="741.74" fill="#6c63ff" rx="15.3" ry="2.94"/><ellipse cx="270.21" cy="740.49" fill="#3f3d56" rx="1.78" ry="2.33"/><ellipse cx="270.21" cy="737.64" fill="#3f3d56" rx="1.78" ry="2.33"/><ellipse cx="270.21" cy="734.79" fill="#3f3d56" rx="1.78" ry="2.33"/><ellipse cx="270.21" cy="731.94" fill="#3f3d56" rx="1.78" ry="2.33"/><ellipse cx="270.21" cy="729.09" fill="#3f3d56" rx="1.78" ry="2.33"/><ellipse cx="270.21" cy="726.24" fill="#3f3d56" rx="1.78" ry="2.33"/><ellipse cx="270.21" cy="723.39" fill="#3f3d56" rx="1.78" ry="2.33"/><path fill="#6c63ff" d="M276.87 703.88a8.08 8.08 0 0 0 .67-1l-4.68-.77h5.06a8.54 8.54 0 0 0 .78-3.56 8.43 8.43 0 0 0-.62-3.2l-6.8 3.53 6.27-4.6a8.53 8.53 0 1 0-14.1 9.55 8.57 8.57 0 0 0-1 1.55l6.08 3.16-6.48-2.18a8.54 8.54 0 0 0 1.38 8 8.54 8.54 0 1 0 13.4 0 8.52 8.52 0 0 0 0-10.55z"/><path d="M261.63 709.15a8.53 8.53 0 0 0 1.83 5.28 8.54 8.54 0 1 0 13.4 0c1.16-1.42-15.23-6.24-15.23-5.28z" opacity=".1"/></svg>