<svg xmlns="http://www.w3.org/2000/svg" xmlns:xlink="http://www.w3.org/1999/xlink" viewBox="0 0 1161.12 712.38"><defs><linearGradient id="a" x1="697.19" x2="697.19" y1="782.63" y2="256.05" gradientUnits="userSpaceOnUse"><stop offset="0" stop-color="#808080" stop-opacity=".25"/><stop offset=".54" stop-color="#808080" stop-opacity=".12"/><stop offset="1" stop-color="#808080" stop-opacity=".1"/></linearGradient><linearGradient id="b" x1="319.26" x2="319.26" y1="783.27" y2="229.16" xlink:href="#a"/></defs><title>conversation</title><path fill="#6c63ff" d="M1160.92 175.84c-.08 1.5-.2 3-.33 4.44a127.5 127.5 0 0 1-9.37 37.64c-16.85 40-50.48 70.43-86.4 94.87l-2.28 1.52c-6.5 4.37-13.1 8.6-19.76 12.72l-.54.33-.4.25-1.2.74c-.96.6-1.92 1.18-2.87 1.77l-1.6 1-7.3 4.44-6.43 3.87q-6.1 3.67-12.2 7.35c-13.55 8.15-27.04 16.43-40.1 25.36l-2 1.4c-1 .65-1.88 1.3-2.8 2q-7.36 5.16-14.47 10.67c-.93.7-1.86 1.44-2.78 2.2-9.4 7.53-18.5 16.1-25.3 25.87-5.8 8.3-9.94 17.47-11.18 27.6-2 16 3.5 31.42 11.17 46.5 4.95 9.68 10.8 19.23 16.18 28.73 1.75 3.1 3.45 6.2 5 9.3a130.32 130.32 0 0 1 7.47 16.96c4.28 12.4 5.53 24.84.6 37.52-5.38 13.9-16.3 22.82-29.3 30-7 3.85-14.52 7.2-22.16 10.55-10.93 4.78-22 9.6-31.68 15.9q-.92.57-1.8 1.2-1.9 1.26-3.7 2.64c-2 1.53-3.92 3.15-5.78 4.83q-1.65 1.5-3.24 3.1c-.84.82-1.68 1.67-2.5 2.54-1.58 1.65-3.12 3.35-4.63 5.07l-1.2 1.38q-1.65 2-3.3 3.94c-1.4 1.72-2.8 3.46-4.2 5.2-2 2.5-4 5-5.93 7.5-.58.73-1.15 1.44-1.7 2.16-3.27 4-6.54 8-10 11.7l-.42.44c-8.22 8.8-17.3 16.24-28.77 20.22-27.63 9.6-55-4.72-81.55-20l-.74-.44-.33-.2-2.28-1.3-1.07-.63c-2.7-1.57-5.42-3.15-8.12-4.7l-.65-.37c-3.8-2.17-7.58-4.28-11.34-6.27q-3.4-1.8-6.87-3.44a193.33 193.33 0 0 0-23.6-9.46 203.18 203.18 0 0 0-32.25-7.77q-6.68-1.08-13.43-1.68c-2.9-.26-5.82-.47-8.74-.6a206.34 206.34 0 0 0-70.1 8.5c-3.08.95-6.16 2-9.2 3.07-.57.18-1.13.4-1.68.6-2.82 1-5.6 2.12-8.37 3.3l-1 .4a.55.55 0 0 1-.15.08c-14.24 6.12-28 13.93-42.2 20.05-1.25.54-2.5 1.07-3.8 1.6a111.47 111.47 0 0 1-27.57 7.65 103 103 0 0 1-29.4-.74 206.9 206.9 0 0 1-25.9-6.08h-.1l-.54-.17c-.8-.24-1.6-.47-2.38-.72l-1.06-.3-1.4-.44c-20-6.12-40.04-13.38-60.66-15.37-1-.1-2-.18-3-.25a128 128 0 0 0-19.2.14c-19.15 1.48-38.2 6.66-57.17 12.1l-1.2.34c-1 .3-2.05.6-3.08.9l-2.23.64-4.34 1.24-1 .28c-31.26 9-62.2 16.7-92.75 7.78-13.38-3.9-25.4-10.73-36.4-19.2a199.26 199.26 0 0 1-22.17-20.14c-6.45-6.7-12.6-13.74-18.56-20.75C34.3 613.6 14.7 588.8 6.04 559.4a151.5 151.5 0 0 1-5.4-31.92C.16 520.92 0 514.32 0 507.7q0-6.58.2-13.14c.06-3.2.17-6.37.26-9.55 0-.5 0-1 0-1.52.06-1.48.1-3 .14-4.44q1.3-41.4 2.56-82.83c.57-18.4 1.18-37.08 6.86-54.6.65-2 1.38-4 2.15-6 .58-1.5 1.2-3 1.85-4.43 12.64-28.4 37-51.76 58.64-75.64a283.74 283.74 0 0 0 22.15-27.08c10.33-14.76 17.8-30.42 19.45-48.1.14-1.48.24-2.95.3-4.45s.05-3 0-4.6c-.54-25.6-14.18-50.18-19.78-74.83-2.52-11-3.43-22.08-.82-33.25.24-1.07.52-2.1.82-3.14 9.75-33.24 47.76-50.68 82.45-56.33 36-5.85 72.67-4.16 108.62 1q3.55.5 7.1 1.1c7.43 1.2 14.8 2.64 22.16 4.18 17.83 3.73 35.5 8.12 53.4 11.75 22.95 4.66 43.72.2 66.6-3q17.56-2.46 35.27-3.42 14.74-.8 29.5-.58a414.74 414.74 0 0 1 116.9 18.56c25.45 7.93 50.5 18.4 76.38 24.1a169.9 169.9 0 0 0 26.9 3.9c.7.06 1.42.1 2.14.13 61.24 2.72 117.52-33.86 178.32-40.72l2.05-.22a188.8 188.8 0 0 1 20.13-1c56.68.25 111.64 24.63 163.7 48.68 15.86 7.33 32 14.86 44.9 26.64 22.15 20.25 31.3 50.75 29.6 81zM622.9 479V335.54h39.53c-.34-.32-.68-.64-1-.93l-.26-.23-.58-.52c-.26-.22-.5-.43-.76-.63l-.63-.5-.68-.54q-.52-.42-1.1-.83a2.7 2.7 0 0 0-.28-.2H622.9v-7.85c-.32.16-.62.33-.93.5l-1 .62s0 .05-.06.05a1.2 1.2 0 0 1-.2.12l-.6.46c-.2.14-.42.3-.62.45-.6.45-1.2 1-1.8 1.47l-.6.53-1.15 1.05c-1.55 1.45-3.07 2.95-4.64 4.34-.4.35-.8.7-1.2 1a30.53 30.53 0 0 1-2.65 2 12.87 12.87 0 0 1-1.14.73l-.65.33-.6.3a22.3 22.3 0 0 1-4.32 1.56V479h-59.36c0 .16.1.3.12.45.32 1.34.64 2.65 1 4h58.26V637.2h.91l1 .06 1.9.16 3 .35c.45 0 .92.12 1.37.2l1.62.22h.22l2.65.44c.18 0 .38.07.57.1l1.27.24 1.85.37 4.44-.16.6.13.76.17v-156h91.64v-.33a3.3 3.3 0 0 0 0-.33c.12-1.23.23-2.44.35-3.66a.45.45 0 0 1 0-.12zm137.1 0h-4v4.46h4.56zm-45 0a.45.45 0 0 0 0 .1c-.12 1.23-.23 2.44-.35 3.67a3.3 3.3 0 0 1 0 .33v.33h34.45v-.24l2.46-4.2zM94.05 63.2c-2.6 11.16-1.7 22.2.82 33.24V60.02c-.3 1.03-.58 2.07-.82 3.17zM661.4 334.6c-.07-1.12-.15-2.3-.2-3.5h-9.54c0 .2.07.38.1.57.1.66.2 1.3.3 2 .07.46.14.9.2 1.36l.05.5h9.15zM587.88 481.4c-.7-.4-1.1-.62-1.1-.62 1.1-.65 2.14-1.24 3.16-1.8h-213.1a9 9 0 0 0 .4 1c.08.2.18.4.28.62s.23.47.37.72.4.77.65 1.18.38.63.58 1h212.1c-1.42-.96-2.57-1.65-3.35-2.1zM315.1 373.02l.1.26v-.32zm-.13-21.5a4.38 4.38 0 0 1-1.1 1s.43.47 1.05 1.32a2.67 2.67 0 0 1-.1.34c-.06.14-.12.3-.18.43l-.1.2a3.07 3.07 0 0 1-.23.4.8.8 0 0 1-.1.14 3.93 3.93 0 0 1-.35.44l-.22.2a3.3 3.3 0 0 1-.45.4l-.13.1H313l.05.05.1.1a22.86 22.86 0 0 1 2.06 2.9v-8.34c-.07.1-.15.2-.23.3zm271.27 127.47h-30.9c8.2 3 21.3 2 30.05.74l1.7-.25c-.37-.24-.67-.4-.86-.5zm66.65 4.42a2.15 2.15 0 0 0-.24-.28 1.43 1.43 0 0 0-.24-.25 5.8 5.8 0 0 1-.8-1 7.07 7.07 0 0 1-.4-.62c-.23-.44-.5-.92-.75-1.46 0-.06-.06-.13-.1-.2s-.2-.42-.3-.64H622.9V335.55h29.42l-.06-.5c-.06-.45-.13-.9-.2-1.38-.1-.63-.18-1.28-.3-2 0-.2-.06-.38-.1-.58H622.9V220.73h-.07a1.37 1.37 0 0 0-.4.05 3.06 3.06 0 0 0-.47.1l-.35.12-.44.18-.3.12c-.7.32-1.55.76-2.55 1.24-1.42.67-2.88 1.33-4.35 1.94l-.87.36-1.08.42c-.7.3-1.43.55-2.15.8q-.7.24-1.44.47c-.85.27-1.73.52-2.6.73-.43.12-.86.2-1.3.3s-.86.18-1.3.25-.85.15-1.3.2-.77.1-1.17.14V331.1H315.2V205l-.6.36c-3.56 2-8.24 1.63-11.34 4.27-4 3.37-3.3 9.6-1.94 14.6.12.44.25.87.36 1.32 0 .13.08.27.1.42 0 .1 0 .2.1.3a5.32 5.32 0 0 1 .15.7l.12.56.06.37a1.37 1.37 0 0 1 0 .2 4.1 4.1 0 0 1 .07.48 5.54 5.54 0 0 1 .07.9v.1a9 9 0 0 1-6.15 7.88 8.73 8.73 0 0 1-3.18.36v93.27h-18.24l.4 4.43h17.86V479H260.9c-.13.73-.26 1.5-.44 2.25-.08.33-.16.66-.26 1s-.23.8-.35 1.2h33.2v30c.66 0 1.3 0 2 0h1.4l2.1-.07h.92c1.25-.06 2.4-.13 3.4-.2l1.33-.1.85-.05 1.23-.1h.77l.64.1h.23c.45.08 1.06.18 1.8.28l.96.15.53.07 1.5.2h.2l2.33.3v-30.6h285.5v6.55c.8.6 1.63 1.26 2.44 1.9l1.22 1c1.44 1.22 2.88 2.5 4.26 3.83l1.13 1.1c.46.48.93 1 1.37 1.44l.18.2q.54.58 1.05 1.16l.72.84c.4.5.8 1 1.2 1.5s.74 1 1.08 1.53.7 1 1 1.54.73 1.27 1 1.9h2.12l.2.4c.08.17.14.33.2.48.3.65.54 1.28.75 1.9.08.27.17.52.23.78a6.86 6.86 0 0 1 .2.78c0 .24.1.47.14.7s.07.47.1.7a3.7 3.7 0 0 1 .07.56c0 .17 0 .35 0 .53a11.74 11.74 0 0 1 0 1.68c.5-.08 1-.17 1.44-.3v-32.67h30zM315.2 479V335.54h285.53V479zm274.73 0h-37.85c.94.37 1.75.74 2.4 1.08 7.86 4 22.3 2.9 31.7 1.57l1.7-.25c-.7-.4-1.1-.62-1.1-.62 1.08-.65 2.13-1.24 3.15-1.8zm-458.55 0c.93 1.5 1.9 3 2.92 4.43h125.55c.12-.4.25-.8.35-1.2s.18-.65.26-1c.18-.76.3-1.52.43-2.26zm454.86 0h-30.9c8.2 3 21.3 2 30.05.74l1.7-.25c-.37-.24-.67-.4-.86-.5zm-454.86 0c.93 1.5 1.9 3 2.92 4.43h125.55c.12-.4.25-.8.35-1.2s.18-.65.26-1c.18-.76.3-1.52.43-2.26zm521.5 4.42a2.15 2.15 0 0 0-.22-.28 1.43 1.43 0 0 0-.24-.25 5.8 5.8 0 0 1-.8-1 7.07 7.07 0 0 1-.4-.62c-.23-.44-.5-.92-.75-1.46 0-.06-.06-.13-.1-.2s-.2-.42-.3-.64H622.9V335.55h29.42l-.06-.5c-.06-.45-.13-.9-.2-1.38-.1-.63-.18-1.28-.3-2 0-.2-.06-.38-.1-.58H622.9V220.73h-.07a1.37 1.37 0 0 0-.4.05 3.06 3.06 0 0 0-.47.1l-.35.12-.44.18-.3.12c-.7.32-1.55.76-2.55 1.24-1.42.67-2.88 1.33-4.35 1.94l-.87.36-1.08.42c-.7.3-1.43.55-2.15.8q-.7.24-1.44.47c-.85.27-1.73.52-2.6.73-.43.12-.86.2-1.3.3s-.86.18-1.3.25-.85.15-1.3.2-.77.1-1.17.14V331.1H315.2V205l-.6.36c-3.56 2-8.24 1.63-11.34 4.27-4 3.37-3.3 9.6-1.94 14.6.12.44.25.87.36 1.32 0 .13.08.27.1.42s0 .2.1.3a5.32 5.32 0 0 1 .15.7l.12.56.06.37c0 .1 0 .23.06.34a2 2 0 0 1 0 .34 5.54 5.54 0 0 1 .07.9v.1a9 9 0 0 1-6.15 7.88 8.73 8.73 0 0 1-3.17.36v93.27H274.8l.4 4.43h17.86V479H260.9c-.13.73-.26 1.5-.44 2.25-.08.33-.16.66-.26 1s-.23.8-.35 1.2h33.2v30c.66 0 1.3 0 2 0h1.4l2.1-.07h.92c1.25-.06 2.4-.13 3.4-.2l1.33-.1.85-.05 1.23-.1h.77l.64.1h.23c.45.08 1.06.18 1.8.28l.96.15.53.07 1.5.2h.2l2.33.3v-30.6h67c-1.06-1.5-2.06-3-2.84-4.43h-64.2V335.54h285.53V479h-10.8c-1 .54-2.07 1.13-3.15 1.78 0 0 .4.2 1.1.62.77.45 1.92 1.14 3.35 2h9.5v6.54c.8.6 1.62 1.26 2.43 1.9l1.22 1c1.45 1.22 2.9 2.5 4.27 3.83l1.13 1.1c.47.48.94 1 1.38 1.44l.18.2q.54.6 1.05 1.17l.7.84c.42.52.82 1 1.2 1.52s.75 1 1.1 1.52.68 1 1 1.54.72 1.26 1 1.9h2.1l.2.4c.1.16.15.32.22.47.3.65.53 1.28.74 1.9.08.27.17.52.23.78a6.86 6.86 0 0 1 .2.78c0 .25.1.48.13.7s.07.48.1.7a3.7 3.7 0 0 1 .07.57c0 .17 0 .35 0 .53a11.74 11.74 0 0 1 0 1.68c.5-.1 1-.18 1.43-.3v-32.65h30zM586.25 479h-30.9c8.2 3 21.3 2 30.05.74l1.7-.25c-.37-.24-.67-.4-.86-.5zM661.4 334.6c-.07-1.12-.15-2.3-.2-3.5h-9.54c0 .2.07.38.1.57.1.66.2 1.3.3 2 .07.46.14.9.2 1.36l.05.5h9.15zM131.4 479c.93 1.5 1.9 3 2.92 4.43h125.53c.12-.4.25-.8.35-1.2s.18-.65.26-1c.18-.76.3-1.52.43-2.26zm521.5 4.42a2.15 2.15 0 0 0-.22-.28 1.43 1.43 0 0 0-.24-.25 5.8 5.8 0 0 1-.8-1 7.07 7.07 0 0 1-.4-.62c-.23-.44-.5-.92-.75-1.46 0-.06-.07-.13-.1-.2s-.2-.42-.3-.64h-27.2V335.55h29.42l-.06-.5c-.06-.45-.13-.9-.2-1.38-.1-.63-.18-1.28-.3-2 0-.2-.06-.38-.1-.58H622.9V220.73h-.07a1.37 1.37 0 0 0-.4.05 3.06 3.06 0 0 0-.47.1l-.35.12-.44.18-.3.12c-.7.32-1.55.76-2.55 1.24-1.42.67-2.88 1.33-4.35 1.94l-.87.36-1.08.42c-.7.3-1.43.55-2.15.8q-.7.24-1.44.47c-.85.27-1.73.52-2.6.73-.43.12-.86.2-1.3.3s-.86.18-1.3.25-.85.15-1.3.2-.77.1-1.17.14V331.1H315.2V205l-.6.36c-3.56 2-8.24 1.63-11.34 4.27-4 3.37-3.3 9.6-1.94 14.6.12.44.25.87.36 1.32 0 .13.08.27.1.42 0 .1.06.2.08.3a5.32 5.32 0 0 1 .16.7l.12.57.06.37c0 .12 0 .24.05.35a2 2 0 0 1 0 .34 5.54 5.54 0 0 1 .07.9v.1a9 9 0 0 1-6.15 7.87 8.73 8.73 0 0 1-3.17.36v93.27h-18.22l.4 4.44h17.86V479H260.9c-.13.73-.26 1.5-.44 2.25-.08.33-.16.66-.26 1s-.23.8-.35 1.2h33.2v30c.66 0 1.3 0 2 0h1.4l2.1-.07h.92c1.25-.06 2.4-.13 3.4-.2l1.33-.1.85-.05 1.23-.1h.77l.64.1h.23c.45.08 1.06.18 1.8.28l.96.15.53.07 1.5.2h.2l2.33.3v-30.6h67c-1.06-1.5-2.06-3-2.84-4.43h-64.2V335.54h285.53V479h-10.8c-1 .54-2.07 1.13-3.15 1.78 0 0 .4.2 1.1.62.77.45 1.92 1.14 3.35 2h9.5v6.54c.8.6 1.62 1.26 2.43 1.9l1.22 1c1.45 1.22 2.9 2.5 4.27 3.83l1.13 1.1c.47.48.94 1 1.38 1.44l.18.2q.54.6 1.05 1.17l.7.84c.42.52.82 1 1.2 1.52s.75 1 1.1 1.52.68 1 1 1.54.72 1.26 1 1.9h2.1l.2.4c.1.16.15.32.22.47.3.65.53 1.28.74 1.9.08.27.17.52.23.78a6.86 6.86 0 0 1 .2.78c0 .25.1.48.13.7s.07.48.1.7a3.7 3.7 0 0 1 .07.57c0 .17 0 .35 0 .53a11.74 11.74 0 0 1 0 1.68c.5-.1 1-.18 1.43-.3v-32.65h30zm8.52-148.8c-.07-1.12-.15-2.3-.2-3.5h-9.56c0 .2.07.38.1.57.1.66.2 1.3.3 2 .07.46.14.9.2 1.36l.05.5h9.15zM131.42 479c.93 1.5 1.9 3 2.92 4.43h125.5c.13-.4.26-.8.36-1.2s.18-.65.26-1c.18-.76.3-1.52.43-2.26zm521.5 4.42a2.15 2.15 0 0 0-.22-.28 1.43 1.43 0 0 0-.24-.25 5.8 5.8 0 0 1-.8-1 7.07 7.07 0 0 1-.4-.62c-.23-.44-.5-.92-.75-1.46 0-.06-.05-.13-.1-.2s-.2-.42-.28-.64H622.9V335.55h29.42l-.06-.5c-.06-.45-.13-.9-.2-1.38-.1-.63-.18-1.28-.3-2 0-.2-.06-.38-.1-.58H622.9V220.73h-.07a1.37 1.37 0 0 0-.4.05 3.06 3.06 0 0 0-.47.1l-.35.12-.44.18-.3.12c-.7.32-1.55.76-2.55 1.24-1.42.67-2.88 1.33-4.35 1.94l-.87.36-1.08.42c-.7.3-1.43.55-2.15.8q-.7.24-1.44.47c-.85.27-1.73.52-2.6.73-.43.12-.86.2-1.3.3s-.86.18-1.3.25-.85.15-1.3.2-.77.1-1.17.14V331.1H315.2V205l-.6.36c-3.56 2-8.24 1.63-11.34 4.27-4 3.37-3.3 9.6-1.94 14.6.12.44.25.87.36 1.32 0 .13.08.27.1.42 0 .1.06.2.08.3a5.32 5.32 0 0 1 .16.7l.12.57.06.37c0 .12 0 .24.05.35a2 2 0 0 1 0 .34 5.54 5.54 0 0 1 .07.9v.1a9 9 0 0 1-6.15 7.87 8.73 8.73 0 0 1-3.17.36v93.27h-18.22l.4 4.44h17.86V479H260.9c-.13.73-.26 1.5-.44 2.25-.08.33-.16.66-.26 1s-.23.8-.35 1.2h33.2v30c.66 0 1.3 0 2 0h1.4l2.1-.07h.92c1.25-.06 2.4-.13 3.4-.2l1.33-.1.85-.05 1.23-.1h.77l.64.1h.23c.45.08 1.06.18 1.8.28l.96.15.53.07 1.5.2h.2l2.33.3v-30.6h67c-1.06-1.5-2.06-3-2.84-4.43h-64.2V335.54h285.53V479h-10.8c-1 .54-2.07 1.13-3.15 1.78 0 0 .4.2 1.1.62.77.45 1.92 1.14 3.35 2h9.5v6.54c.8.6 1.62 1.26 2.43 1.9l1.22 1c1.45 1.22 2.9 2.5 4.27 3.83l1.13 1.1c.47.48.94 1 1.38 1.44l.18.2q.54.6 1.05 1.17l.7.84c.42.52.82 1 1.2 1.52s.75 1 1.1 1.52.68 1 1 1.54.72 1.26 1 1.9h2.1l.2.4c.1.16.15.32.22.47.3.65.53 1.28.74 1.9.08.27.17.52.23.78a6.86 6.86 0 0 1 .2.78c0 .25.1.48.13.7s.07.48.1.7a3.7 3.7 0 0 1 .07.57c0 .17 0 .35 0 .53a11.74 11.74 0 0 1 0 1.68c.5-.1 1-.18 1.43-.3v-32.65h30zm8.52-148.8c-.07-1.12-.15-2.3-.2-3.5h-9.58c0 .2.07.38.1.57.1.66.2 1.3.3 2 .07.46.14.9.2 1.36l.05.5h9.15zM131.44 479c.93 1.5 1.9 3 2.92 4.43h125.5c.1-.4.24-.8.34-1.2s.18-.65.26-1c.18-.76.3-1.52.43-2.26zm521.5 4.42a2.15 2.15 0 0 0-.22-.28 1.43 1.43 0 0 0-.24-.25 5.8 5.8 0 0 1-.8-1 7.07 7.07 0 0 1-.4-.62c-.23-.44-.5-.92-.75-1.46 0-.06-.06-.13-.1-.2s-.2-.42-.3-.64H622.9V335.55h29.42l-.06-.5c-.06-.45-.13-.9-.2-1.38-.1-.63-.18-1.28-.3-2 0-.2-.06-.38-.1-.58H622.9V220.73h-.07a1.37 1.37 0 0 0-.4.05 3.06 3.06 0 0 0-.47.1l-.35.12-.44.18-.3.12c-.7.32-1.55.76-2.55 1.24-1.42.67-2.88 1.33-4.35 1.94l-.87.36-1.08.42c-.7.3-1.43.55-2.15.8q-.7.24-1.44.47c-.85.27-1.73.52-2.6.73-.43.12-.86.2-1.3.3s-.86.18-1.3.25-.85.15-1.3.2-.77.1-1.17.14V331.1H315.2V205l-.6.36c-3.56 2-8.24 1.63-11.34 4.27-4 3.37-3.3 9.6-1.94 14.6.12.44.25.87.36 1.32 0 .13.08.27.1.42 0 .1.06.2.08.3a5.32 5.32 0 0 1 .16.7l.12.57.06.37c0 .12 0 .24.05.35a2 2 0 0 1 0 .34 5.54 5.54 0 0 1 .07.9v.1a9 9 0 0 1-6.15 7.87 8.73 8.73 0 0 1-3.17.36v93.27h-18.22l.4 4.44h17.86V479H260.9c-.13.73-.26 1.5-.44 2.25-.08.33-.16.66-.26 1s-.23.8-.35 1.2h33.2v30c.66 0 1.3 0 2 0h1.4l2.1-.07h.92c1.25-.06 2.4-.13 3.4-.2l1.33-.1.85-.05 1.23-.1h.77l.64.1h.23c.45.08 1.06.18 1.8.28l.96.15.53.07 1.5.2h.2l2.33.3v-30.6h67c-1.06-1.5-2.06-3-2.84-4.43h-64.2V335.54h285.53V479h-10.8c-1 .54-2.07 1.13-3.15 1.78 0 0 .4.2 1.1.62.77.45 1.92 1.14 3.35 2h9.5v6.54c.8.6 1.62 1.26 2.43 1.9l1.22 1c1.45 1.22 2.9 2.5 4.27 3.83l1.13 1.1c.47.48.94 1 1.38 1.44l.18.2q.54.6 1.05 1.17l.7.84c.42.52.82 1 1.2 1.52s.75 1 1.1 1.52.68 1 1 1.54.72 1.26 1 1.9h2.1l.2.4c.1.16.15.32.22.47.3.65.53 1.28.74 1.9.08.27.17.52.23.78a6.86 6.86 0 0 1 .2.78c0 .25.1.48.13.7s.07.48.1.7a3.7 3.7 0 0 1 .07.57c0 .17 0 .35 0 .53a11.74 11.74 0 0 1 0 1.68c.5-.1 1-.18 1.43-.3v-32.65h30zm8.52-148.8c-.07-1.12-.15-2.3-.2-3.5h-9.6c0 .2.07.38.1.57.1.66.2 1.3.3 2 .07.46.14.9.2 1.36l.05.5h9.15zM131.46 479c.93 1.5 1.9 3 2.92 4.43h125.47c.12-.4.25-.8.35-1.2s.18-.65.26-1c.18-.76.3-1.52.43-2.26zm521.5 4.42a2.15 2.15 0 0 0-.22-.28 1.43 1.43 0 0 0-.24-.25 5.8 5.8 0 0 1-.8-1 7.07 7.07 0 0 1-.4-.62c-.23-.44-.5-.92-.75-1.46 0-.06-.06-.13-.1-.2s-.2-.42-.3-.64H622.9V335.55h29.42l-.06-.5c-.06-.45-.13-.9-.2-1.38-.1-.63-.18-1.28-.3-2 0-.2-.06-.38-.1-.58H622.9V220.73h-.07a1.37 1.37 0 0 0-.4.05 3.06 3.06 0 0 0-.47.1l-.35.12-.44.18-.3.12c-.7.32-1.55.76-2.55 1.24-1.42.67-2.88 1.33-4.35 1.94l-.87.36-1.08.42c-.7.3-1.43.55-2.15.8q-.7.24-1.44.47c-.85.27-1.73.52-2.6.73-.43.12-.86.2-1.3.3s-.86.18-1.3.25-.85.15-1.3.2-.77.1-1.17.14V331.1H315.2V205l-.6.36c-3.56 2-8.24 1.63-11.34 4.27-4 3.37-3.3 9.6-1.94 14.6.12.44.25.87.36 1.32 0 .13.08.27.1.42 0 .1.06.2.08.3a5.32 5.32 0 0 1 .16.7l.12.57.06.37c0 .12 0 .24.05.35a2 2 0 0 1 0 .34 5.54 5.54 0 0 1 .07.9v.1a9 9 0 0 1-6.15 7.87 8.73 8.73 0 0 1-3.17.36v93.27h-18.22l.4 4.44h17.86V479H260.9c-.13.73-.26 1.5-.44 2.25-.08.33-.16.66-.26 1s-.23.8-.35 1.2h33.2v30c.66 0 1.3 0 2 0h1.4l2.1-.07h.92c1.25-.06 2.4-.13 3.4-.2l1.33-.1.85-.05 1.23-.1h.77l.64.1h.23c.45.08 1.06.18 1.8.28l.96.15.53.07 1.5.2h.2l2.33.3v-30.6h67c-1.06-1.5-2.06-3-2.84-4.43h-64.2V335.54h285.53V479h-10.8c-1 .54-2.07 1.13-3.15 1.78 0 0 .4.2 1.1.62.77.45 1.92 1.14 3.35 2h9.5v6.54c.8.6 1.62 1.26 2.43 1.9l1.22 1c1.45 1.22 2.9 2.5 4.27 3.83l1.13 1.1c.47.48.94 1 1.38 1.44l.18.2q.54.6 1.05 1.17l.7.84c.42.52.82 1 1.2 1.52s.75 1 1.1 1.52.68 1 1 1.54.72 1.26 1 1.9h2.1l.2.4c.1.16.15.32.22.47.3.65.53 1.28.74 1.9.08.27.17.52.23.78a6.86 6.86 0 0 1 .2.78c0 .25.1.48.13.7s.07.48.1.7a3.7 3.7 0 0 1 .07.57c0 .17 0 .35 0 .53a11.74 11.74 0 0 1 0 1.68c.5-.1 1-.18 1.43-.3v-32.65h30zm8.52-148.8c-.07-1.12-.15-2.3-.2-3.5h-9.62c0 .2.07.38.1.57.1.66.2 1.3.3 2 .07.46.14.9.2 1.36l.05.5h9.15zM131.48 479c.93 1.5 1.9 3 2.92 4.43h125.45c.12-.4.25-.8.35-1.2s.18-.65.26-1c.18-.76.3-1.52.43-2.26zm521.5 4.42a2.15 2.15 0 0 0-.22-.28 1.43 1.43 0 0 0-.24-.25 5.8 5.8 0 0 1-.8-1 7.07 7.07 0 0 1-.4-.62c-.23-.44-.5-.92-.75-1.46 0-.06-.06-.13-.1-.2s-.2-.42-.3-.64H622.9V335.55h29.42l-.06-.5c-.06-.45-.13-.9-.2-1.38-.1-.63-.18-1.28-.3-2 0-.2-.06-.38-.1-.58H622.9V220.73h-.07a1.37 1.37 0 0 0-.4.05 3.06 3.06 0 0 0-.47.1l-.35.12-.44.18-.3.12c-.7.32-1.55.76-2.55 1.24-1.42.67-2.88 1.33-4.35 1.94l-.87.36-1.08.42c-.7.3-1.43.55-2.15.8q-.7.24-1.44.47c-.85.27-1.73.52-2.6.73-.43.12-.86.2-1.3.3s-.86.18-1.3.25-.85.15-1.3.2-.77.1-1.17.14V331.1H315.2V205l-.6.36c-3.56 2-8.24 1.63-11.34 4.27-4 3.37-3.3 9.6-1.94 14.6.12.44.25.87.36 1.32 0 .13.08.27.1.42 0 .1.06.2.08.3a5.32 5.32 0 0 1 .16.7l.12.57.06.37c0 .12 0 .24.05.35a2 2 0 0 1 0 .34 5.54 5.54 0 0 1 .07.9v.1a9 9 0 0 1-6.15 7.87 8.73 8.73 0 0 1-3.17.36v93.27h-18.22l.4 4.44h17.86V479H260.9c-.13.73-.26 1.5-.44 2.25-.08.33-.16.66-.26 1s-.23.8-.35 1.2h33.2v30c.66 0 1.3 0 2 0h1.4l2.1-.07h.92c1.25-.06 2.4-.13 3.4-.2l1.33-.1.85-.05 1.23-.1h.77l.64.1h.23c.45.08 1.06.18 1.8.28l.96.15.53.07 1.5.2h.2l2.33.3v-30.6h67c-1.06-1.5-2.06-3-2.84-4.43h-64.2V335.54h285.53V479h-10.8c-1 .54-2.07 1.13-3.15 1.78 0 0 .4.2 1.1.62.77.45 1.92 1.14 3.35 2h9.5v6.54c.8.6 1.62 1.26 2.43 1.9l1.22 1c1.45 1.22 2.9 2.5 4.27 3.83l1.13 1.1c.47.48.94 1 1.38 1.44l.18.2q.54.6 1.05 1.17l.7.84c.42.52.82 1 1.2 1.52s.75 1 1.1 1.52.68 1 1 1.54.72 1.26 1 1.9h2.1l.2.4c.1.16.15.32.22.47.3.65.53 1.28.74 1.9.08.27.17.52.23.78a6.86 6.86 0 0 1 .2.78c0 .25.1.48.13.7s.07.48.1.7a3.7 3.7 0 0 1 .07.57c0 .17 0 .35 0 .53a11.74 11.74 0 0 1 0 1.68c.5-.1 1-.18 1.43-.3v-32.65h30zm8.52-148.8c-.07-1.12-.15-2.3-.2-3.5h-9.64c0 .2.07.38.1.57.1.66.2 1.3.3 2 .07.46.14.9.2 1.36l.05.5h9.15zM131.5 479c.93 1.5 1.9 3 2.92 4.43h125.43c.12-.4.25-.8.35-1.2s.18-.65.26-1c.18-.76.3-1.52.43-2.26zM653 483.4a2.15 2.15 0 0 0-.22-.28 1.43 1.43 0 0 0-.24-.25 5.8 5.8 0 0 1-.8-1 7.07 7.07 0 0 1-.4-.62c-.23-.44-.5-.92-.75-1.46 0-.06-.07-.13-.1-.2s-.2-.42-.3-.64h-27.3V335.55h29.42l-.06-.5c-.06-.45-.13-.9-.2-1.38-.1-.63-.18-1.28-.3-2 0-.2-.06-.38-.1-.58H622.9V220.73h-.07a1.37 1.37 0 0 0-.4.05 3.06 3.06 0 0 0-.47.1l-.35.12-.44.18-.3.12c-.7.32-1.55.76-2.55 1.24-1.42.67-2.88 1.33-4.35 1.94l-.87.36-1.08.42c-.7.3-1.43.55-2.15.8q-.7.24-1.44.47c-.85.27-1.73.52-2.6.73-.43.12-.86.2-1.3.3s-.86.18-1.3.25-.85.15-1.3.2-.77.1-1.17.14V331.1H315.2V205l-.6.36c-3.56 2-8.24 1.63-11.34 4.27-4 3.37-3.3 9.6-1.94 14.6.12.44.25.87.36 1.32 0 .13.08.27.1.42 0 .1.06.2.08.3a5.32 5.32 0 0 1 .16.7l.12.57.06.37c0 .12 0 .24.05.35a2 2 0 0 1 0 .34 5.54 5.54 0 0 1 .07.9v.1a9 9 0 0 1-6.15 7.87 8.73 8.73 0 0 1-3.17.36v93.27h-18.22l.4 4.44h17.86V479H260.9c-.13.73-.26 1.5-.44 2.25-.08.33-.16.66-.26 1s-.23.8-.35 1.2h33.2v30c.66 0 1.3 0 2 0h1.4l2.1-.07h.92c1.25-.06 2.4-.13 3.4-.2l1.33-.1.85-.05 1.23-.1h.77l.64.1h.23c.45.08 1.06.18 1.8.28l.96.15.53.07 1.5.2h.2l2.33.3v-30.6h67c-1.06-1.5-2.06-3-2.84-4.43h-64.2V335.54h285.53V479h-10.8c-1 .54-2.07 1.13-3.15 1.78 0 0 .4.2 1.1.62.77.45 1.92 1.14 3.35 2h9.5v6.54c.8.6 1.62 1.26 2.43 1.9l1.22 1c1.45 1.22 2.9 2.5 4.27 3.83l1.13 1.1c.47.48.94 1 1.38 1.44l.18.2q.54.6 1.05 1.17l.7.84c.42.52.82 1 1.2 1.52s.75 1 1.1 1.52.68 1 1 1.54.72 1.26 1 1.9h2.1l.2.4c.1.16.15.32.22.47.3.65.53 1.28.74 1.9.08.27.17.52.23.78a6.86 6.86 0 0 1 .2.78c0 .25.1.48.13.7s.07.48.1.7a3.7 3.7 0 0 1 .07.57c0 .17 0 .35 0 .53a11.74 11.74 0 0 1 0 1.68c.5-.1 1-.18 1.43-.3v-32.65h30zm8.52-148.8c-.07-1.12-.15-2.3-.2-3.5h-9.66c0 .2.07.38.1.57.1.66.2 1.3.3 2 .07.46.14.9.2 1.36l.05.5h9.15zM131.52 479c.93 1.5 1.9 3 2.92 4.43h125.4c.13-.4.26-.8.36-1.2s.18-.65.26-1c.18-.76.3-1.52.43-2.26zm521.5 4.42a2.15 2.15 0 0 0-.22-.28 1.43 1.43 0 0 0-.24-.25 5.8 5.8 0 0 1-.8-1 7.07 7.07 0 0 1-.4-.62c-.23-.44-.5-.92-.75-1.46 0-.06-.05-.13-.1-.2s-.2-.42-.28-.64H622.9V335.55h29.42l-.06-.5c-.06-.45-.13-.9-.2-1.38-.1-.63-.18-1.28-.3-2 0-.2-.06-.38-.1-.58H622.9V220.73h-.07a1.37 1.37 0 0 0-.4.05 3.06 3.06 0 0 0-.47.1l-.35.12-.44.18-.3.12c-.7.32-1.55.76-2.55 1.24-1.42.67-2.88 1.33-4.35 1.94-.28.13-.58.25-.87.36s-.72.3-1.08.42c-.7.3-1.43.55-2.15.8q-.7.24-1.44.47c-.85.27-1.73.52-2.6.73-.43.12-.86.2-1.3.3s-.86.18-1.3.25-.85.15-1.3.2-.77.1-1.17.14V331.1H315.2V205l-.6.36c-3.56 2-8.24 1.63-11.34 4.27-4 3.37-3.3 9.6-1.94 14.6.12.44.25.87.36 1.32a2.88 2.88 0 0 1 .1.42c0 .1.06.2.08.3a5.32 5.32 0 0 1 .16.7l.12.57.06.37c0 .12 0 .24.05.35a2 2 0 0 1 0 .34 5.54 5.54 0 0 1 .07.9v.1a9 9 0 0 1-6.15 7.87 8.73 8.73 0 0 1-3.17.36v93.27h-18.22l.4 4.44h17.86V479H260.9c-.13.73-.26 1.5-.44 2.25-.08.33-.16.66-.26 1s-.23.8-.35 1.2h33.2v30c.66 0 1.3 0 2 0h1.4l2.1-.07h.92c1.25-.06 2.4-.13 3.4-.2l1.33-.1.85-.05 1.23-.1h.77l.64.1h.23c.45.08 1.06.18 1.8.28l.96.15.53.07 1.5.2h.2l2.33.3v-30.6h67c-1.06-1.5-2.06-3-2.84-4.43h-64.2V335.54h285.53V479h-10.8c-1 .54-2.07 1.13-3.15 1.78 0 0 .4.2 1.1.62.77.45 1.92 1.14 3.35 2h9.5v6.54c.8.6 1.62 1.26 2.43 1.9l1.22 1c1.45 1.22 2.9 2.5 4.27 3.83.38.36.76.73 1.13 1.1s.94 1 1.38 1.44l.18.2q.54.6 1.05 1.17l.7.84c.42.52.82 1 1.2 1.52s.75 1 1.1 1.52.68 1 1 1.54.72 1.26 1 1.9h2.1l.2.4c.1.16.15.32.22.47.3.65.53 1.28.74 1.9.08.27.17.52.23.78a6.86 6.86 0 0 1 .2.78c0 .25.1.48.13.7a5.74 5.74 0 0 1 .1.7 3.7 3.7 0 0 1 .07.57c0 .17 0 .35 0 .53a11.74 11.74 0 0 1 0 1.68c.5-.1 1-.18 1.43-.3v-32.65h30zm8.52-148.8c-.07-1.12-.15-2.3-.2-3.5h-9.68c0 .2.07.38.1.57.1.66.2 1.3.3 2 .07.46.14.9.2 1.36l.05.5h9.15zm261.23-158.78V19.58a188.8 188.8 0 0 0-20.12 1l-2.05.22v155.04H629.45l-.68-.84 1-1.27 4.43-5.52 4.44-5.5L720.1 61.3a169.9 169.9 0 0 1-26.88-3.9L622.86 145V39.46q-11.1-2.16-22.17-4.8V140.1L500 14.72q-14.75-.24-29.52.58l124.4 154.8 3.2 4 .7.88-.7.84H315.22V9.97c-7.34-1.54-14.72-3-22.16-4.18v170H114.6c-.04 1.5-.14 3-.28 4.43h178.72V331.1H94.87V228.4a283.74 283.74 0 0 1-22.16 27.07v75.64H14.08c-.64 1.48-1.27 2.95-1.86 4.45h60.5V479H.65c0 1.48-.08 3-.14 4.43h72.2v174.22a199.26 199.26 0 0 0 22.17 20.14V483.42h198.17V673.7a128 128 0 0 1 19.2-.13c1 .07 2 .16 3 .25v-190.4h285.5v169c2.9.15 5.83.36 8.73.62q6.75.6 13.43 1.67V483.44h277.66v138c7.64-3.36 15.2-6.7 22.17-10.55V488.34c-7.67-15.07-13.15-30.46-11.17-46.5 1.24-10.12 5.38-19.28 11.17-27.6v-78.7h106.13l7.3-4.43h-113.4V180.3h237.8c.14-1.48.25-2.95.33-4.44zm-22.2 4.44V331.1H622.9V184.33l.2-.22 3.7-3.82zm-585.4 0h285.56V331.1H315.2zm-220.3 298.7V335.56h198.17V479zm220.34 0V335.56h285.53V479zm307.7 0V335.56h277.66V479zm38.5-144.36c-.07-1.12-.15-2.3-.2-3.5h-9.54c0 .2.07.38.1.57.1.66.2 1.3.3 2 .07.46.14.9.2 1.36l.05.5h9.15zm-8.5 148.8a2.15 2.15 0 0 0-.24-.28 1.43 1.43 0 0 0-.24-.25 5.8 5.8 0 0 1-.8-1 7.07 7.07 0 0 1-.4-.62c-.23-.44-.5-.92-.75-1.46 0-.06-.06-.13-.1-.2s-.2-.42-.3-.64H622.9V335.55h29.42l-.06-.5c-.06-.45-.13-.9-.2-1.38-.1-.63-.18-1.28-.3-2 0-.2-.06-.38-.1-.58H622.9V220.73h-.07a1.37 1.37 0 0 0-.4.05 3.06 3.06 0 0 0-.47.1l-.35.12-.44.18-.3.12c-.7.32-1.55.76-2.55 1.24-1.42.67-2.88 1.33-4.35 1.94l-.87.36-1.08.42c-.7.3-1.43.55-2.15.8q-.7.24-1.44.47c-.85.27-1.73.52-2.6.73-.43.12-.86.2-1.3.3s-.86.18-1.3.25-.85.15-1.3.2-.77.1-1.17.14V331.1H315.2V205l-.6.36c-3.56 2-8.24 1.63-11.34 4.27-4 3.37-3.3 9.6-1.94 14.6.12.44.25.87.36 1.32 0 .13.08.27.1.42 0 .1.06.2.08.3a5.32 5.32 0 0 1 .16.7l.12.57.06.37c0 .12 0 .24.05.35a2 2 0 0 1 0 .34 5.54 5.54 0 0 1 .07.9v.1a9 9 0 0 1-6.15 7.87 8.73 8.73 0 0 1-3.17.36v93.27h-18.22l.4 4.44h17.86V479H260.9c-.13.73-.26 1.5-.44 2.25-.08.33-.16.66-.26 1s-.23.8-.35 1.2h33.2v30c.66 0 1.3 0 2 0h1.4l2.1-.07h.92c1.25-.06 2.4-.13 3.4-.2l1.33-.1.85-.05 1.23-.1h.77l.64.1h.23c.45.08 1.06.18 1.8.28l.96.15.53.07 1.5.2h.2l2.33.3v-30.6h67c-1.06-1.5-2.06-3-2.84-4.43h-64.2V335.54h285.53V479h-10.8c-1 .54-2.07 1.13-3.15 1.78 0 0 .4.2 1.1.62.77.45 1.92 1.14 3.35 2h9.5v6.54c.8.6 1.62 1.26 2.43 1.9l1.22 1c1.45 1.22 2.9 2.5 4.27 3.83l1.13 1.1c.47.48.94 1 1.38 1.44l.18.2q.54.6 1.05 1.17l.7.84c.42.52.82 1 1.2 1.52s.75 1 1.1 1.52.68 1 1 1.54.72 1.26 1 1.9h2.1l.2.4c.1.16.15.32.22.47.3.65.53 1.28.74 1.9.08.27.17.52.23.78a6.86 6.86 0 0 1 .2.78c0 .25.1.48.13.7s.07.48.1.7a3.7 3.7 0 0 1 .07.57c0 .17 0 .35 0 .53a11.74 11.74 0 0 1 0 1.68c.5-.1 1-.18 1.43-.3v-32.65h30zM131.37 479c.93 1.5 1.9 3 2.92 4.43h125.55c.12-.4.25-.8.35-1.2s.18-.65.26-1c.18-.76.3-1.52.43-2.26zm530-144.38c-.07-1.12-.15-2.3-.2-3.5h-9.52c0 .2.07.38.1.57.1.66.2 1.3.3 2 .07.46.14.9.2 1.36l.05.5h9.15zm-8.5 148.8a2.15 2.15 0 0 0-.24-.28 1.43 1.43 0 0 0-.24-.25 5.8 5.8 0 0 1-.8-1 7.07 7.07 0 0 1-.4-.62c-.23-.44-.5-.92-.75-1.46 0-.06-.06-.13-.1-.2s-.2-.42-.3-.64H622.9V335.55h29.42l-.06-.5c-.06-.45-.13-.9-.2-1.38-.1-.63-.18-1.28-.3-2 0-.2-.06-.38-.1-.58H622.9V220.73h-.07a1.37 1.37 0 0 0-.4.05 3.06 3.06 0 0 0-.47.1l-.35.12-.44.18-.3.12c-.7.32-1.55.76-2.55 1.24-1.42.67-2.88 1.33-4.35 1.94l-.87.36-1.08.42c-.7.3-1.43.55-2.15.8q-.7.24-1.44.47c-.85.27-1.73.52-2.6.73-.43.12-.86.2-1.3.3s-.86.18-1.3.25-.85.15-1.3.2-.77.1-1.17.14V331.1H315.2V205l-.6.36c-3.56 2-8.24 1.63-11.34 4.27-4 3.37-3.3 9.6-1.94 14.6.12.44.25.87.36 1.32 0 .13.08.27.1.42 0 .1.06.2.08.3a5.32 5.32 0 0 1 .16.7l.12.57.06.37c0 .12 0 .24.05.35a2 2 0 0 1 0 .34 5.54 5.54 0 0 1 .07.9v.1a9 9 0 0 1-6.15 7.87 8.73 8.73 0 0 1-3.17.36v93.27h-18.22l.4 4.44h17.86V479H260.9c-.13.73-.26 1.5-.44 2.25-.08.33-.16.66-.26 1s-.23.8-.35 1.2h33.2v30c.66 0 1.3 0 2 0h1.4l2.1-.07h.92c1.25-.06 2.4-.13 3.4-.2l1.33-.1.85-.05 1.23-.1h.77l.64.1h.23c.45.08 1.06.18 1.8.28l.96.15.53.07 1.5.2h.2l2.33.3v-30.6h67c-1.06-1.5-2.06-3-2.84-4.43h-64.2V335.54h285.53V479h-10.8c-1 .54-2.07 1.13-3.15 1.78 0 0 .4.2 1.1.62.77.45 1.92 1.14 3.35 2h9.5v6.54c.8.6 1.62 1.26 2.43 1.9l1.22 1c1.45 1.22 2.9 2.5 4.27 3.83l1.13 1.1c.47.48.94 1 1.38 1.44l.18.2q.54.6 1.05 1.17l.7.84c.42.52.82 1 1.2 1.52s.75 1 1.1 1.52.68 1 1 1.54.72 1.26 1 1.9h2.1l.2.4c.1.16.15.32.22.47.3.65.53 1.28.74 1.9.08.27.17.52.23.78a6.86 6.86 0 0 1 .2.78c0 .25.1.48.13.7s.07.48.1.7a3.7 3.7 0 0 1 .07.57c0 .17 0 .35 0 .53a11.74 11.74 0 0 1 0 1.68c.5-.1 1-.18 1.43-.3v-32.65h30zM131.37 479c.93 1.5 1.9 3 2.92 4.43h125.55c.12-.4.25-.8.35-1.2s.18-.65.26-1c.18-.76.3-1.52.43-2.26zm530-144.38c-.07-1.12-.15-2.3-.2-3.5h-9.52c0 .2.07.38.1.57.1.66.2 1.3.3 2 .07.46.14.9.2 1.36l.05.5h9.15zm-8.5 148.8a2.15 2.15 0 0 0-.24-.28 1.43 1.43 0 0 0-.24-.25 5.8 5.8 0 0 1-.8-1 7.07 7.07 0 0 1-.4-.62c-.23-.44-.5-.92-.75-1.46 0-.06-.06-.13-.1-.2s-.2-.42-.3-.64H622.9V335.55h29.42l-.06-.5c-.06-.45-.13-.9-.2-1.38-.1-.63-.18-1.28-.3-2 0-.2-.06-.38-.1-.58H622.9V220.73h-.07a1.37 1.37 0 0 0-.4.05 3.06 3.06 0 0 0-.47.1l-.35.12-.44.18-.3.12c-.7.32-1.55.76-2.55 1.24-1.42.67-2.88 1.33-4.35 1.94l-.87.36-1.08.42c-.7.3-1.43.55-2.15.8q-.7.24-1.44.47c-.85.27-1.73.52-2.6.73-.43.12-.86.2-1.3.3s-.86.18-1.3.25-.85.15-1.3.2-.77.1-1.17.14V331.1H315.2V205l-.6.36c-3.56 2-8.24 1.63-11.34 4.27-4 3.37-3.3 9.6-1.94 14.6.12.44.25.87.36 1.32 0 .13.08.27.1.42 0 .1.06.2.08.3a5.32 5.32 0 0 1 .16.7l.12.57.06.37c0 .12 0 .24.05.35a2 2 0 0 1 0 .34 5.54 5.54 0 0 1 .07.9v.1a9 9 0 0 1-6.15 7.87 8.73 8.73 0 0 1-3.17.36v93.27h-18.22l.4 4.44h17.86V479H260.9c-.13.73-.26 1.5-.44 2.25-.08.33-.16.66-.26 1s-.23.8-.35 1.2h33.2v30c.66 0 1.3 0 2 0h1.4l2.1-.07h.92c1.25-.06 2.4-.13 3.4-.2l1.33-.1.85-.05 1.23-.1h.77l.64.1h.23c.45.08 1.06.18 1.8.28l.96.15.53.07 1.5.2h.2l2.33.3v-30.6h67c-1.06-1.5-2.06-3-2.84-4.43h-64.2V335.54h285.53V479h-10.8c-1 .54-2.07 1.13-3.15 1.78 0 0 .4.2 1.1.62.77.45 1.92 1.14 3.35 2h9.5v6.54c.8.6 1.62 1.26 2.43 1.9l1.22 1c1.45 1.22 2.9 2.5 4.27 3.83l1.13 1.1c.47.48.94 1 1.38 1.44l.18.2q.54.6 1.05 1.17l.7.84c.42.52.82 1 1.2 1.52s.75 1 1.1 1.52.68 1 1 1.54.72 1.26 1 1.9h2.1l.2.4c.1.16.15.32.22.47.3.65.53 1.28.74 1.9.08.27.17.52.23.78a6.86 6.86 0 0 1 .2.78c0 .25.1.48.13.7s.07.48.1.7a3.7 3.7 0 0 1 .07.57c0 .17 0 .35 0 .53a11.74 11.74 0 0 1 0 1.68c.5-.1 1-.18 1.43-.3v-32.65h30zM131.37 479c.93 1.5 1.9 3 2.92 4.43h125.55c.12-.4.25-.8.35-1.2s.18-.65.26-1c.18-.76.3-1.52.43-2.26zm530-144.38c-.07-1.12-.15-2.3-.2-3.5h-9.52c0 .2.07.38.1.57.1.66.2 1.3.3 2 .07.46.14.9.2 1.36l.05.5h9.15zm-8.5 148.8a2.15 2.15 0 0 0-.24-.28 1.43 1.43 0 0 0-.24-.25 5.8 5.8 0 0 1-.8-1 7.07 7.07 0 0 1-.4-.62c-.23-.44-.5-.92-.75-1.46 0-.06-.06-.13-.1-.2s-.2-.42-.3-.64H622.9V335.55h29.42l-.06-.5c-.06-.45-.13-.9-.2-1.38-.1-.63-.18-1.28-.3-2 0-.2-.06-.38-.1-.58H622.9V220.73h-.07a1.37 1.37 0 0 0-.4.05 3.06 3.06 0 0 0-.47.1l-.35.12-.44.18-.3.12c-.7.32-1.55.76-2.55 1.24-1.42.67-2.88 1.33-4.35 1.94l-.87.36-1.08.42c-.7.3-1.43.55-2.15.8q-.7.24-1.44.47c-.85.27-1.73.52-2.6.73-.43.12-.86.2-1.3.3s-.86.18-1.3.25-.85.15-1.3.2-.77.1-1.17.14V331.1H315.2V205l-.6.36c-3.56 2-8.24 1.63-11.34 4.27-4 3.37-3.3 9.6-1.94 14.6.12.44.25.87.36 1.32 0 .13.08.27.1.42 0 .1.06.2.08.3a5.32 5.32 0 0 1 .16.7l.12.57.06.37c0 .12 0 .24.05.35a2 2 0 0 1 0 .34 5.54 5.54 0 0 1 .07.9v.1a9 9 0 0 1-6.15 7.87 8.73 8.73 0 0 1-3.17.36v93.27h-18.22l.4 4.44h17.86V479H260.9c-.13.73-.26 1.5-.44 2.25-.08.33-.16.66-.26 1s-.23.8-.35 1.2h33.2v30c.66 0 1.3 0 2 0h1.4l2.1-.07h.92c1.25-.06 2.4-.13 3.4-.2l1.33-.1.85-.05 1.23-.1h.77l.64.1h.23c.45.08 1.06.18 1.8.28l.96.15.53.07 1.5.2h.2l2.33.3v-30.6h67c-1.06-1.5-2.06-3-2.84-4.43h-64.2V335.54h285.53V479h-10.8c-1 .54-2.07 1.13-3.15 1.78 0 0 .4.2 1.1.62.77.45 1.92 1.14 3.35 2h9.5v6.54c.8.6 1.62 1.26 2.43 1.9l1.22 1c1.45 1.22 2.9 2.5 4.27 3.83l1.13 1.1c.47.48.94 1 1.38 1.44l.18.2q.54.6 1.05 1.17l.7.84c.42.52.82 1 1.2 1.52s.75 1 1.1 1.52.68 1 1 1.54.72 1.26 1 1.9h2.1l.2.4c.1.16.15.32.22.47.3.65.53 1.28.74 1.9.08.27.17.52.23.78a6.86 6.86 0 0 1 .2.78c0 .25.1.48.13.7s.07.48.1.7a3.7 3.7 0 0 1 .07.57c0 .17 0 .35 0 .53a11.74 11.74 0 0 1 0 1.68c.5-.1 1-.18 1.43-.3v-32.65h30zM131.37 479c.93 1.5 1.9 3 2.92 4.43h125.55c.12-.4.25-.8.35-1.2s.18-.65.26-1c.18-.76.3-1.52.43-2.26zm530-144.38c-.07-1.12-.15-2.3-.2-3.5h-9.52c0 .2.07.38.1.57.1.66.2 1.3.3 2 .07.46.14.9.2 1.36l.05.5h9.15zm-8.5 148.8a2.15 2.15 0 0 0-.24-.28 1.43 1.43 0 0 0-.24-.25 5.8 5.8 0 0 1-.8-1 7.07 7.07 0 0 1-.4-.62c-.23-.44-.5-.92-.75-1.46 0-.06-.06-.13-.1-.2s-.2-.42-.3-.64H622.9V335.55h29.42l-.06-.5c-.06-.45-.13-.9-.2-1.38-.1-.63-.18-1.28-.3-2 0-.2-.06-.38-.1-.58H622.9V220.73h-.07a1.37 1.37 0 0 0-.4.05 3.06 3.06 0 0 0-.47.1l-.35.12-.44.18-.3.12c-.7.32-1.55.76-2.55 1.24-1.42.67-2.88 1.33-4.35 1.94l-.87.36-1.08.42c-.7.3-1.43.55-2.15.8q-.7.24-1.44.47c-.85.27-1.73.52-2.6.73-.43.12-.86.2-1.3.3s-.86.18-1.3.25-.85.15-1.3.2-.77.1-1.17.14V331.1H315.2V205l-.6.36c-3.56 2-8.24 1.63-11.34 4.27-4 3.37-3.3 9.6-1.94 14.6.12.44.25.87.36 1.32 0 .13.08.27.1.42 0 .1.06.2.08.3a5.32 5.32 0 0 1 .16.7l.12.57.06.37c0 .12 0 .24.05.35a2 2 0 0 1 0 .34 5.54 5.54 0 0 1 .07.9v.1a9 9 0 0 1-6.15 7.87 8.73 8.73 0 0 1-3.17.36v93.27h-18.22l.4 4.44h17.86V479H260.9c-.13.73-.26 1.5-.44 2.25-.08.33-.16.66-.26 1s-.23.8-.35 1.2h33.2v30c.66 0 1.3 0 2 0h1.4l2.1-.07h.92c1.25-.06 2.4-.13 3.4-.2l1.33-.1.85-.05 1.23-.1h.77l.64.1h.23c.45.08 1.06.18 1.8.28l.96.15.53.07 1.5.2h.2l2.33.3v-30.6h67c-1.06-1.5-2.06-3-2.84-4.43h-64.2V335.54h285.53V479h-10.8c-1 .54-2.07 1.13-3.15 1.78 0 0 .4.2 1.1.62.77.45 1.92 1.14 3.35 2h9.5v6.54c.8.6 1.62 1.26 2.43 1.9l1.22 1c1.45 1.22 2.9 2.5 4.27 3.83l1.13 1.1c.47.48.94 1 1.38 1.44l.18.2q.54.6 1.05 1.17l.7.84c.42.52.82 1 1.2 1.52s.75 1 1.1 1.52.68 1 1 1.54.72 1.26 1 1.9h2.1l.2.4c.1.16.15.32.22.47.3.65.53 1.28.74 1.9.08.27.17.52.23.78a6.86 6.86 0 0 1 .2.78c0 .25.1.48.13.7s.07.48.1.7a3.7 3.7 0 0 1 .07.57c0 .17 0 .35 0 .53a11.74 11.74 0 0 1 0 1.68c.5-.1 1-.18 1.43-.3v-32.65h30zM131.37 479c.93 1.5 1.9 3 2.92 4.43h125.55c.12-.4.25-.8.35-1.2s.18-.65.26-1c.18-.76.3-1.52.43-2.26zm530-144.38c-.07-1.12-.15-2.3-.2-3.5h-9.52c0 .2.07.38.1.57.1.66.2 1.3.3 2 .07.46.14.9.2 1.36l.05.5h9.15zm-8.5 148.8a2.15 2.15 0 0 0-.24-.28 1.43 1.43 0 0 0-.24-.25 5.8 5.8 0 0 1-.8-1 7.07 7.07 0 0 1-.4-.62c-.23-.44-.5-.92-.75-1.46 0-.06-.06-.13-.1-.2s-.2-.42-.3-.64H622.9V335.55h29.42l-.06-.5c-.06-.45-.13-.9-.2-1.38-.1-.63-.18-1.28-.3-2 0-.2-.06-.38-.1-.58H622.9V220.73h-.07a1.37 1.37 0 0 0-.4.05 3.06 3.06 0 0 0-.47.1l-.35.12-.44.18-.3.12c-.7.32-1.55.76-2.55 1.24-1.42.67-2.88 1.33-4.35 1.94l-.87.36-1.08.42c-.7.3-1.43.55-2.15.8q-.7.24-1.44.47c-.85.27-1.73.52-2.6.73-.43.12-.86.2-1.3.3s-.86.18-1.3.25-.85.15-1.3.2-.77.1-1.17.14V331.1H315.2V205l-.6.36c-3.56 2-8.24 1.63-11.34 4.27-4 3.37-3.3 9.6-1.94 14.6.12.44.25.87.36 1.32 0 .13.08.27.1.42 0 .1.06.2.08.3a5.32 5.32 0 0 1 .16.7l.12.57.06.37c0 .12 0 .24.05.35a2 2 0 0 1 0 .34 5.54 5.54 0 0 1 .07.9v.1a9 9 0 0 1-6.15 7.87 8.73 8.73 0 0 1-3.17.36v93.27h-18.22l.4 4.44h17.86V479H260.9c-.13.73-.26 1.5-.44 2.25-.08.33-.16.66-.26 1s-.23.8-.35 1.2h33.2v30c.66 0 1.3 0 2 0h1.4l2.1-.07h.92c1.25-.06 2.4-.13 3.4-.2l1.33-.1.85-.05 1.23-.1h.77l.64.1h.23c.45.08 1.06.18 1.8.28l.96.15.53.07 1.5.2h.2l2.33.3v-30.6h67c-1.06-1.5-2.06-3-2.84-4.43h-64.2V335.54h285.53V479h-10.8c-1 .54-2.07 1.13-3.15 1.78 0 0 .4.2 1.1.62.77.45 1.92 1.14 3.35 2h9.5v6.54c.8.6 1.62 1.26 2.43 1.9l1.22 1c1.45 1.22 2.9 2.5 4.27 3.83l1.13 1.1c.47.48.94 1 1.38 1.44l.18.2q.54.6 1.05 1.17l.7.84c.42.52.82 1 1.2 1.52s.75 1 1.1 1.52.68 1 1 1.54.72 1.26 1 1.9h2.1l.2.4c.1.16.15.32.22.47.3.65.53 1.28.74 1.9.08.27.17.52.23.78a6.86 6.86 0 0 1 .2.78c0 .25.1.48.13.7s.07.48.1.7a3.7 3.7 0 0 1 .07.57c0 .17 0 .35 0 .53a11.74 11.74 0 0 1 0 1.68c.5-.1 1-.18 1.43-.3v-32.65h30zM131.37 479c.93 1.5 1.9 3 2.92 4.43h125.55c.12-.4.25-.8.35-1.2s.18-.65.26-1c.18-.76.3-1.52.43-2.26zm530-144.38c-.07-1.12-.15-2.3-.2-3.5h-9.52c0 .2.07.38.1.57.1.66.2 1.3.3 2 .07.46.14.9.2 1.36l.05.5h9.15zm-8.5 148.8a2.15 2.15 0 0 0-.24-.28 1.43 1.43 0 0 0-.24-.25 5.8 5.8 0 0 1-.8-1 7.07 7.07 0 0 1-.4-.62c-.23-.44-.5-.92-.75-1.46 0-.06-.06-.13-.1-.2s-.2-.42-.3-.64H622.9V335.55h29.42l-.06-.5c-.06-.45-.13-.9-.2-1.38-.1-.63-.18-1.28-.3-2 0-.2-.06-.38-.1-.58H622.9V220.73h-.07a1.37 1.37 0 0 0-.4.05 3.06 3.06 0 0 0-.47.1l-.35.12-.44.18-.3.12c-.7.32-1.55.76-2.55 1.24-1.42.67-2.88 1.33-4.35 1.94l-.87.36-1.08.42c-.7.3-1.43.55-2.15.8q-.7.24-1.44.47c-.85.27-1.73.52-2.6.73-.43.12-.86.2-1.3.3s-.86.18-1.3.25-.85.15-1.3.2-.77.1-1.17.14V331.1H315.2V205l-.6.36c-3.56 2-8.24 1.63-11.34 4.27-4 3.37-3.3 9.6-1.94 14.6.12.44.25.87.36 1.32 0 .13.08.27.1.42 0 .1.06.2.08.3a5.32 5.32 0 0 1 .16.7l.12.57.06.37c0 .12 0 .24.05.35a2 2 0 0 1 0 .34 5.54 5.54 0 0 1 .07.9v.1a9 9 0 0 1-6.15 7.87 8.73 8.73 0 0 1-3.17.36v93.27h-18.22l.4 4.44h17.86V479H260.9c-.13.73-.26 1.5-.44 2.25-.08.33-.16.66-.26 1s-.23.8-.35 1.2h33.2v30c.66 0 1.3 0 2 0h1.4l2.1-.07h.92c1.25-.06 2.4-.13 3.4-.2l1.33-.1.85-.05 1.23-.1h.77l.64.1h.23c.45.08 1.06.18 1.8.28l.96.15.53.07 1.5.2h.2l2.33.3v-30.6h67c-1.06-1.5-2.06-3-2.84-4.43h-64.2V335.54h285.53V479h-10.8c-1 .54-2.07 1.13-3.15 1.78 0 0 .4.2 1.1.62.77.45 1.92 1.14 3.35 2h9.5v6.54c.8.6 1.62 1.26 2.43 1.9l1.22 1c1.45 1.22 2.9 2.5 4.27 3.83l1.13 1.1c.47.48.94 1 1.38 1.44l.18.2q.54.6 1.05 1.17l.7.84c.42.52.82 1 1.2 1.52s.75 1 1.1 1.52.68 1 1 1.54.72 1.26 1 1.9h2.1l.2.4c.1.16.15.32.22.47.3.65.53 1.28.74 1.9.08.27.17.52.23.78a6.86 6.86 0 0 1 .2.78c0 .25.1.48.13.7s.07.48.1.7a3.7 3.7 0 0 1 .07.57c0 .17 0 .35 0 .53a11.74 11.74 0 0 1 0 1.68c.5-.1 1-.18 1.43-.3v-32.65h30zM131.37 479c.93 1.5 1.9 3 2.92 4.43h125.55c.12-.4.25-.8.35-1.2s.18-.65.26-1c.18-.76.3-1.52.43-2.26zm530-144.38c-.07-1.12-.15-2.3-.2-3.5h-9.52c0 .2.07.38.1.57.1.66.2 1.3.3 2 .07.46.14.9.2 1.36l.05.5h9.15zm-8.5 148.8a2.15 2.15 0 0 0-.24-.28 1.43 1.43 0 0 0-.24-.25 5.8 5.8 0 0 1-.8-1 7.07 7.07 0 0 1-.4-.62c-.23-.44-.5-.92-.75-1.46 0-.06-.06-.13-.1-.2s-.2-.42-.3-.64H622.9V335.55h29.42l-.06-.5c-.06-.45-.13-.9-.2-1.38-.1-.63-.18-1.28-.3-2 0-.2-.06-.38-.1-.58H622.9V220.73h-.07a1.37 1.37 0 0 0-.4.05 3.06 3.06 0 0 0-.47.1l-.35.12-.44.18-.3.12c-.7.32-1.55.76-2.55 1.24-1.42.67-2.88 1.33-4.35 1.94l-.87.36-1.08.42c-.7.3-1.43.55-2.15.8q-.7.24-1.44.47c-.85.27-1.73.52-2.6.73-.43.12-.86.2-1.3.3s-.86.18-1.3.25-.85.15-1.3.2-.77.1-1.17.14V331.1H315.2V205l-.6.36c-3.56 2-8.24 1.63-11.34 4.27-4 3.37-3.3 9.6-1.94 14.6.12.44.25.87.36 1.32 0 .13.08.27.1.42 0 .1 0 .2.1.3a5.32 5.32 0 0 1 .15.7l.12.56.06.37c0 .1 0 .23.06.34a2 2 0 0 1 0 .34 5.54 5.54 0 0 1 .07.9v.1a9 9 0 0 1-6.15 7.88 8.73 8.73 0 0 1-3.17.36v93.27H274.8l.4 4.43h17.86V479H260.9c-.13.73-.26 1.5-.44 2.25-.08.33-.16.66-.26 1s-.23.8-.35 1.2h33.2v30c.66 0 1.3 0 2 0h1.4l2.1-.07h.92c1.25-.06 2.4-.13 3.4-.2l1.33-.1.85-.05 1.23-.1h.77l.64.1h.23c.45.08 1.06.18 1.8.28l.96.15.53.07 1.5.2h.2l2.33.3v-30.6h67c-1.06-1.5-2.06-3-2.84-4.43h-64.2V335.54h285.53V479h-48.65c.94.37 1.75.74 2.4 1.08 7.86 4 22.3 2.9 31.7 1.57l1.7-.25c.77.45 1.92 1.14 3.35 2h9.5v6.54c.8.6 1.62 1.26 2.43 1.9l1.22 1c1.45 1.22 2.9 2.5 4.27 3.83l1.13 1.1c.47.48.94 1 1.38 1.44l.18.2q.54.6 1.05 1.17l.7.84c.42.52.82 1 1.2 1.52s.75 1 1.1 1.52.68 1 1 1.54.72 1.26 1 1.9h2.1l.2.4c.1.16.15.32.22.47.3.65.53 1.28.74 1.9.08.27.17.52.23.78a6.86 6.86 0 0 1 .2.78c0 .25.1.48.13.7s.07.48.1.7a3.7 3.7 0 0 1 .07.57c0 .17 0 .35 0 .53a11.74 11.74 0 0 1 0 1.68c.5-.1 1-.18 1.43-.3v-32.65h30zM131.37 479c.93 1.5 1.9 3 2.92 4.43h125.55c.12-.4.25-.8.35-1.2s.18-.65.26-1c.18-.76.3-1.52.43-2.26zm458.55 0h-37.85c.94.37 1.75.74 2.4 1.08 7.86 4 22.3 2.9 31.7 1.57l1.7-.25c-.7-.4-1.1-.62-1.1-.62 1.08-.65 2.13-1.24 3.15-1.8zm33 0V335.54h39.53c-.34-.32-.68-.64-1-.93l-.26-.23-.58-.52c-.25-.22-.5-.43-.75-.63l-.63-.5-.7-.54q-.5-.42-1.1-.83a2.7 2.7 0 0 0-.27-.2H622.9v-7.85c-.32.16-.62.33-.93.5l-1 .62s0 .05-.06.05a1.2 1.2 0 0 1-.2.12l-.6.46c-.2.14-.42.3-.62.45-.6.45-1.2 1-1.8 1.47l-.6.53-1.15 1.05c-1.55 1.45-3.07 2.95-4.64 4.34-.4.35-.8.7-1.2 1a30.53 30.53 0 0 1-2.65 2 12.87 12.87 0 0 1-1.14.73l-.65.33-.6.3a22.3 22.3 0 0 1-4.32 1.56V479h-59.36c0 .16.1.3.12.45.32 1.33.65 2.66 1 4h58.25V637.2a3.55 3.55 0 0 1 .46 0h.46l1 .06 1.9.16 3 .35c.45 0 .92.12 1.37.2l1.63.22h.22l2.65.44c.18 0 .38.07.57.1l1.27.24 1.85.37 4.44-.16.6.13.76.17v-156h89.2c.15-1.48.3-3 .43-4.44zm89.63 0c-.14 1.48-.28 3-.42 4.43h38.32l2.62-4.44zm47.47 0h-4v4.46h4.53zm-137.1 0V335.54h39.53c-.34-.32-.68-.64-1-.93l-.26-.23-.58-.52c-.25-.22-.5-.43-.75-.63l-.63-.5-.7-.54q-.5-.42-1.1-.83a2.7 2.7 0 0 0-.27-.2H622.9v-7.85c-.32.16-.62.33-.93.5l-1 .62s0 .05-.06.05a1.2 1.2 0 0 1-.2.12l-.6.46c-.2.14-.42.3-.62.45-.6.45-1.2 1-1.8 1.47l-.6.53-1.15 1.05c-1.55 1.45-3.07 2.95-4.64 4.34-.4.35-.8.7-1.2 1a30.53 30.53 0 0 1-2.65 2 12.87 12.87 0 0 1-1.14.73l-.65.33-.6.3a22.3 22.3 0 0 1-4.32 1.56V479h-59.36c0 .16.1.3.12.45.32 1.34.64 2.65 1 4h58.26V637.2h.91l1 .06 1.9.16 3 .35c.45 0 .92.12 1.37.2l1.62.22h.22l2.65.44c.18 0 .38.07.57.1l1.27.24 1.85.37 4.44-.16.6.13.76.17v-156h91.64v-.33a3.3 3.3 0 0 0 0-.33c.12-1.23.23-2.44.35-3.66a.45.45 0 0 1 0-.12zm92.1 0a.45.45 0 0 0 0 .1c-.1 1.23-.22 2.44-.34 3.67a3.3 3.3 0 0 1 0 .33v.33h34.44v-.24l2.46-4.2zm45 0h-4v4.46h4.53z" opacity=".1"/><path fill="#fff" d="M951.46 543.34l-28.7-.47-22.2-.38-45.4-.77h-2l-38.2-.64-76.4-1.32-41.42-.7-5.17-.08h-2l-3.88-.06H684.04l-21.5-.43-12.3-.2-3.3-.06h-1.41l-22.56-.38-22.17-.36-178.6-3h-2.43l-67.75-1.13-4.24-.08-32.5-.54-22.16-.37-20-.35h-1.7l-78.95-1.32-26.2-.54-71.4-1.2-7.23-.13h-.08l-14.83-.25-72.1-1.2c-.46-6.56-.62-13.16-.6-19.77q0-6.6.18-13.15l72.53 1.58 14 .3h.25l7.9.18 33.32.72 17.9.4 106 2.3 7.4.15 33.58.73 4.18.1 7.44.16 9.8.2h.75l31.8.7 45.47 1 2.82.06 108.73 2.36h1.78l94.92 2.06 14.58.32 2.13.05h2.12l3.34.07 4.18.1 18.75.4h2.07l5.9.13h2.44l2.32.05 13 .3 46.43 1h2.1l3.12.06 127.92 2.77h1.93l47.48 1 19.8.43 2.37.33 16.17 2.28c1.75 3.1 3.45 6.2 5 9.3a130.32 130.32 0 0 1 7.54 17.26z"/><path fill="#d0d0db" d="M951.46 543.34l-28.7-.47-22.2-.38-45.4-.77h-2l-38.2-.64-76.4-1.32-41.42-.7-5.17-.08h-2l-3.88-.06H684.04l-21.5-.43-12.3-.2-3.3-.06h-1.41l-22.56-.38-22.17-.36-178.6-3h-2.43l-67.75-1.13-4.24-.08-32.5-.54-22.16-.37-20-.35h-1.7l-78.95-1.32-26.2-.54-71.4-1.2-7.23-.13h-.08l-14.83-.25-72.1-1.2c-.46-6.56-.62-13.16-.6-19.77l72.7 1.45 15 .3h.23l6.93.13 42.08.83 23.77.48 40.15.8 39.82.8 22.87.44h.47l25.1.5h.9l3 .06 22.18.44h.45l11.5.22 3.9.1 7.15.12 65.23 1.3h2.62l194.65 3.86 22.17.45 18.92.37h2.48l15.5.3 2.87.07h2.3l46.76.93h2.08l3.27.06 55.6 1.1 60.87 1.2 17.16.35h1.63l48.18 1 22.17.45 21.23.42a130.32 130.32 0 0 1 7.53 17.17z"/><path fill="url(#a)" d="M888.37 731.12q-.92.58-1.8 1.2-1.9 1.27-3.7 2.65c-2 1.52-3.92 3.14-5.78 4.82q-1.66 1.5-3.25 3.1c-.84.8-1.68 1.66-2.5 2.53-1.58 1.65-3.12 3.35-4.63 5.07l-1.2 1.38q-1.65 2-3.3 3.94c-1.4 1.72-2.8 3.46-4.2 5.2-2 2.5-4 5-5.93 7.5-.6.73-1.16 1.44-1.72 2.16-3.26 4-6.53 8-10 11.7l-87.43.17h-24.07l-.34-.2-2.28-1.3-1.07-.63c-2.72-1.58-5.43-3.16-8.13-4.7l-.65-.38c-3.8-2.17-7.6-4.28-11.35-6.27q-3.4-1.8-6.87-3.44a193.33 193.33 0 0 0-23.58-9.46 203.18 203.18 0 0 0-32.26-7.77q-6.68-1.07-13.43-1.67c-2.9-.26-5.82-.47-8.74-.6a206.34 206.34 0 0 0-70.1 8.5c-3.1.95-6.17 2-9.2 3.07-.58.2-1.14.4-1.7.6.1-.5.22-1 .33-1.53.83-3.82 4.28-8 9.06-12.2 2-24.5 22.47-44 22.47-44l48.52-21 .6-.4c8.45-5.7 17.42-10.26 22.16-11.94a13.34 13.34 0 0 1 2.06-.6c8.87-1.77 16.66-8.85 23-12.73 2.78-1.7 3.28-7.8 2.94-14.16 0-.5 0-1-.08-1.47l-1.44.08-.28-.74-.36-1c-.06-.16-.1-.32-.17-.48H666.7c-.57-1.5-1.1-2.9-1.55-4.27a82.68 82.68 0 0 1-3.26-11.92 3.4 3.4 0 0 1-.1-.46 35.73 35.73 0 0 1-.57-5.44 20.6 20.6 0 0 1 .24-4.1 13.32 13.32 0 0 1 .4-1.73l-.9.1-2.4.2-.74.06-.32.2-15.18 1.36-1.45.13-.74.06a.43.43 0 0 0 0-.1s0 0 0-.08l-1.4.13-.75.06a12.58 12.58 0 0 0 .27-1.58l-1.57.15-.58.05a115.83 115.83 0 0 1-16-.2c-20.8-1.4-45.93-6.2-45.93-6.2s-28.42 6.37-49-3.4a36.1 36.1 0 0 1-10.36-7.22 33.18 33.18 0 0 1-6.88-10.2 25.5 25.5 0 0 1-1.54-4.62 13.76 13.76 0 0 1-.37-4.44c1.78-20 55.73-6.5 66.78-.85a17.35 17.35 0 0 0 1.95.84c8.2 3 21.3 2 30.05.75l1.7-.26c-.36-.23-.66-.4-.85-.5l-.25-.14a52.13 52.13 0 0 1 14.74-6.28 35.67 35.67 0 0 1 9.6-1 55.4 55.4 0 0 1 9.86.85h.23a11.6 11.6 0 0 0 2.5-.65c2.62-1.06 4.6-3.22 3.83-7a17.7 17.7 0 0 1 1.07-9.9s4.92 1.3 4.35-5a20.75 20.75 0 0 0-.8-3.84c-.22-.7-.4-1.4-.55-2.1 0 0 0-.1 0-.13-2.07-10.08 1.62-21.1 1.62-21.1l2.48-3.2.13-.38.1-.24-1.33-6.9-.32-1.65-.7-23.68s-.36-37.12 11.7-42.42l-.13-1.68-.23-2.9s-5.16-1.54-8.26-4a7.32 7.32 0 0 1-1.73-1.92 3.22 3.22 0 0 1-.47-2.52 5 5 0 0 1 1.6-2.5 26.38 26.38 0 0 0 7.8-14.14s1.3-2.14 3.4-5.5c.14-.23.3-.48.46-.73-2.22-8-4.8-16.17-7.18-23.24-.22-.66-.43-1.32-.65-1.95-.15-.4-.28-.8-.4-1.18-.25-.67-.48-1.32-.7-2l-.8.16a51.58 51.58 0 0 1-9.2.83A50.52 50.52 0 0 1 598 313c.18-.8.37-1.58.6-2.35.1-.43.23-.84.37-1.26a8.63 8.63 0 0 0-5.32.67c-2.48 1.1-4.65 2.9-7.07 4.16a16.84 16.84 0 0 1-7.68 1.77 17.07 17.07 0 0 1-4.87-.7 17.08 17.08 0 0 1-5.62-2.82c.38 0 .73 0 1.1-.08h.3l.83-.15h.24c.35-.1.7-.18 1-.3l.18-.04c.3-.1.6-.2.88-.3l.25-.1 1-.44c.35-.16.68-.35 1-.54a2 2 0 0 1 .2-.12l.82-.53.16-.1c.33-.23.65-.46 1-.7a23.43 23.43 0 0 0 3.27-3.12c3.26-3.72 5.58-8.3 7.87-12.84l6-11.9c1.2-2.38 2.45-4.8 3.86-7a29.85 29.85 0 0 1 3.35-4.45 17.77 17.77 0 0 1 3.7-3.08 19.22 19.22 0 0 1 8.88-2.65c4.9-.35 10.1.44 15.06.28 6.7-.22 13.23-2.28 19.57-4.7a58.6 58.6 0 0 1 9.2-3 20.2 20.2 0 0 1 3.7-.43 24 24 0 0 1 10.45 2.58 40.8 40.8 0 0 1 12.58 9.3c.52.56 1 1.13 1.5 1.72 1.22 1.45 2.4 3 3.56 4.44 1 1.23 1.93 2.44 3 3.6 4.87 5.55 10.8 9.85 15.56 15.53s8.3 13.3 7 20.87v.05c0 .05 0 .08 0 .12-.1.53-.22 1-.36 1.57 0 .17-.1.34-.14.5-.1.36-.2.72-.32 1.07l-.18.57c-.13.37-.25.75-.4 1.13-1 2.76-2 5.5-2.07 8.44a11.05 11.05 0 0 0 0 1.3c.25 3.78 2 7.35 3.1 11a19.73 19.73 0 0 1 .93 5.08c0 .32 0 .64 0 .95v.03c0 .3 0 .6 0 .9a9.74 9.74 0 0 1-.23 1.45.5.5 0 0 1 0 .16.9.9 0 0 1 0 .22s0 .07 0 .1a7 7 0 0 1-.22.7c0 .08 0 .16-.08.24l-.24.55-.14.26a4.33 4.33 0 0 1-.3.5 1.6 1.6 0 0 1-.14.23 6.78 6.78 0 0 1-.53.66c-.12.13-.24.24-.37.36l1.48.9c.13.1.26.16.4.24 4.8 1 19 4 24.58 4.25 1.7.1 4.46 1.2 7.67 2.8a68.82 68.82 0 0 1 31.17 32.5c4.68 10 10.2 20.87 13.12 23 2.35 1.77 4.78 5.32 6.8 8.86.9 1.53 1.7 3.06 2.37 4.44 1.54 3.08 2.52 5.44 2.52 5.44s23 15.55 20.18 30.75c0 0 5 17 9.93 21.9s16.3 44.6 16.3 44.6 4.26 7.42 3.9 13.06 4.27 17.7 4.27 17.7 1 5 2.3 10c.4 1.5.83 3 1.3 4.43.9 2.86 1.87 5.23 2.78 6 2.82 2.46 1.4 7.76 1.4 7.76s3.55 9.2 5.33 11.67a8.65 8.65 0 0 1 1 4.1 45.75 45.75 0 0 1-.28 6.86s-.26 2-.42 4.7c-.26 4.4-.26 10.57 1.48 13a9.77 9.77 0 0 1 1.3 4.2c.83 6 .15 15.2 2.6 17.4 3.2 2.8 1.78 28.62 1.78 28.62s4.96 31.98 9.33 49.6z" transform="translate(-19.44 -93.81)"/><path fill="#95b6f0" d="M741.93 573.1l-3.37 2.76-16.26 13.33-3.3 2.7-14.28 11.72s-40.16 23.4-81.82 43.16c-4.47 2.12-9 4.2-13.43 6.2-2.9-.25-5.82-.46-8.74-.6a206.34 206.34 0 0 0-70.1 8.52 44.46 44.46 0 0 1-.2-9.35c2-24.33 22.3-43.7 22.3-43.7l48-20.83h.06l22.1-9.6 33.38-14.48 10.57 1.25 19.22 2.28z"/><path d="M741.93 573.1l-3.37 2.76-16.26 13.33-3.3 2.7-14.28 11.72s-40.16 23.4-81.82 43.16c-4.47 2.12-9 4.2-13.43 6.2-2.9-.25-5.82-.46-8.74-.6a206.34 206.34 0 0 0-70.1 8.52 44.46 44.46 0 0 1-.2-9.35c2-24.33 22.3-43.7 22.3-43.7l48-20.83h.06l22.1-9.6 33.38-14.48 10.57 1.25 19.22 2.28z" opacity=".05"/><path fill="#5f546f" d="M699.1 670.68l-.12 1-.64 4.8-.1.76-.04.26-.24 1.83-.35 2.66-.64-.4c-3.8-2.16-7.6-4.27-11.35-6.26q-3.4-1.8-6.86-3.44a193.33 193.33 0 0 0-23.58-9.46l2.17-4 13.43 3.94 19.08 5.62 3.5 1 2.8.82z"/><path d="M699.1 670.68l-.12 1-.64 4.8-.1.76-.04.26-.24 1.83-.35 2.66-.64-.4c-3.8-2.16-7.6-4.27-11.35-6.26q-3.4-1.8-6.86-3.44a193.33 193.33 0 0 0-23.58-9.46l2.17-4 13.43 3.94 19.08 5.62 3.5 1 2.8.82z" opacity=".05"/><path fill="#ccccd8" d="M668.92 655.6l25.97 10.52 3.86 11.58-26.68-10.53-3.16-11.58z"/><path d="M668.92 655.6l25.97 10.52 3.86 11.58-26.68-10.53-3.16-11.58z" opacity=".05"/><path fill="#5f546f" d="M838.56 667.26c-2 2.5-4 5-5.94 7.5-.58.72-1.15 1.43-1.7 2.15-3.27 4-6.54 8-10 11.7l-.42.45-110.32.2-.74-.43-.33-.2-2.27-1.3-1.07-.63c-2.7-1.6-5.42-3.17-8.12-4.7l-.65-.4.1-2.4.07-2.08.15-3.76.06-1.57 1.63-.07z"/><path d="M733.5 688.93h-1.05l-9.9-.14h-.34l-13.12-.18-2.28-1.32-.2-8.1v-2.1l-.07-3.6 24.86-1.3 1.05-.06.28 4.5.13 2.12.63 10.07z" opacity=".1"/><path fill="#5f546f" d="M732.45 688.92l-10.8-.13-12.55-.18-2.28-1.32-1.07-.62-.2-7.5v-2.1l-.07-3.6 26-1.4v.1l.3 4.5.12 2.1.63 10.05z"/><path fill="#fff" d="M732.45 688.92l-10.8-.13-12.55-.18-2.28-1.32-1.07-.62-.2-7.5v-2.1l-.07-3.6 26-1.4v.1l.3 4.5.12 2.1.63 10.05z" opacity=".1"/><path d="M698.98 671.67l139.58-4.4c-2 2.5-4 5-5.94 7.5-.58.7-1.15 1.42-1.7 2.14l-98 1.8h-1l-25.2.47h-1l-7.15.13a3.4 3.4 0 0 1-.45 0 3.76 3.76 0 0 1-.9-.14l.08-2.07.15-3.77.06-1.57z" opacity=".1"/><path fill="#ccccd8" d="M847.23 656.73l-1.2 1.38q-1.65 2-3.3 3.95c-1.4 1.72-2.8 3.46-4.2 5.2-2 2.5-4 5-5.93 7.5l-99.87 1.85h-1l-25.17.5h-1l-7 .1h-.34a5.08 5.08 0 0 1-.9-.1h-.2a5.34 5.34 0 0 1-4.13-5.92l.3-2.2.3-2.12.18-1.2.35-2.38.1-.67z"/><path fill="#5f546f" d="M852.85 644.36l4.75 1.66q-1.65 1.5-3.24 3.1c-.84.82-1.68 1.67-2.5 2.54-1.58 1.65-3.12 3.35-4.63 5.07l-1.2 1.38q-1.65 2-3.3 3.95l-146 4h-1.8l-.73-2.83-5.94-22.8 141.16 3.33 8.1.2z"/><path fill="#95b6f0" d="M863.38 641.2c-2 1.5-3.92 3.13-5.78 4.8q-1.65 1.52-3.24 3.1c-.84.83-1.68 1.68-2.5 2.55-1.58 1.65-3.12 3.35-4.63 5.07l-1.2 1.38c-24.3 2.76-67.1 6.48-105.86 4.14a144.23 144.23 0 0 0-43.46 3.8l-1.67.44-1.38.37c-1.3.35-2.56.72-3.8 1.1-3 .9-5.8 1.87-8.44 2.88l-2.65 1.05a193.33 193.33 0 0 0-23.58-9.46 203.18 203.18 0 0 0-32.26-7.77q-6.67-1.07-13.42-1.67c-2.9-.26-5.82-.47-8.74-.6a206.34 206.34 0 0 0-70.1 8.5c-3.08.95-6.16 2-9.2 3.07l.06-.3c.84-3.8 4.24-8 9-12.1 15.4-13.52 44.76-26.86 44.76-26.86l15.65-6.65 9.88-4.2 22.17-9.4 46.86-19.88.5-.2 10.86-4.6 9.92-4.23a79 79 0 0 1 21.1-2.64c.9 0 1.82 0 2.73 0 .7 0 1.38 0 2.07.08h1.28c1.7.1 3.38.23 5.1.4.6.05 1.2.12 1.8.2h.32l1.34.15c.57.06 1.13.14 1.7.22l1.66.24c1.12.16 2.24.34 3.37.54q2.52.45 5.1 1l2.5.54c2.56.56 5.13 1.2 7.7 1.87l2.4.66 1.62.47 2 .6c4.7 1.4 9.43 3 14.1 4.66l2.5.94 2.4.9a.27.27 0 0 0 .12.05c1.43.55 2.86 1.12 4.28 1.7 8.07 3.27 16 6.87 23.48 10.63l2.58 1.3 1.34.68c.9.45 1.76.9 2.64 1.37l2.6 1.38 1.3.7 1.27.7 1.26.68q4.44 2.43 8.57 4.87c.8.46 1.57.92 2.34 1.4l1.16.67c1.52.92 3 1.83 4.46 2.75.72.44 1.43.9 2.15 1.35 1.05.67 2.1 1.34 3.1 2 .68.43 1.34.87 2 1.3l1 .67c.65.43 1.28.85 1.9 1.28l1.07.74c.7.47 1.4 1 2.08 1.44.34.24.67.5 1 .72l.3.22 2.46 1.8s0 0 .05 0l1.5 1.14 1.46 1.13c1 .73 1.85 1.46 2.7 2.17.42.34.83.68 1.22 1l.6.5.57.5 1 .93.7.67c.25.23.48.45.7.67a32.53 32.53 0 0 1 2.5 2.7c.58.76 1.12 1.47 1.62 2.15z"/><path fill="#c27099" d="M625.75 515.2a24.94 24.94 0 0 1-8.54 1.76c-20.32 1.5-61.3-6.34-61.3-6.34s-51.6 11.58-65.65-20.7 51.95-16.16 64.24-9.84c7.84 4 22.3 2.9 31.7 1.58 5.3-.76 9-1.58 9-1.58s43.53 28.8 30.55 35.1z"/><path fill="#4c4981" d="M682.25 457.27l-11.58 56.5-34.4 3-17.2 1.52c4.2-17.56-32.28-37.57-32.28-37.57 18.58-11.23 29.47-6 33.32-6.32.26 0 .5 0 .76-.08 3.64-.54 7.26-2.7 6.27-7.62a17.7 17.7 0 0 1 1-9.84s6.67 1.76 3.5-8.77 1.06-23.18 1.06-23.18l2.47-3.16 3.86-11.93 15.8 16.14z"/><path d="M682.25 457.62l-11.58 56.5-34.4 3-17.2 1.54c4.2-17.56-32.28-37.57-32.28-37.57 18.58-11.24 29.47-6 33.32-6.32l.76-.1c3.64-.54 7.26-2.7 6.27-7.62a17.7 17.7 0 0 1 1-9.84s6.67 1.76 3.5-8.77 1.06-23.17 1.06-23.17l2.47-3.16 3.9-11.93 15.8 16.14z" opacity=".05"/><path d="M643.3 513.43c-1.7 1.22-3.35 2.34-4.92 3.4l-17.2 1.5c4.2-17.54-32.3-37.55-32.3-37.55 18.6-11.23 29.5-6 33.35-6.32.25 0 .5 0 .76-.1 4.66 5.94 10.55 12.8 14 14.5 6.3 3.16 19.98 14.74 6.3 24.57zM625.75 515.2a24.94 24.94 0 0 1-8.54 1.76c1.84-15-24.36-31.42-31-35.3 5.32-.76 9-1.58 9-1.58s43.53 28.8 30.55 35.1z" opacity=".1"/><path fill="#4c4981" d="M641.2 513.43c-1.7 1.22-3.35 2.34-4.92 3.4l-17.2 1.5c4.2-17.54-32.3-37.55-32.3-37.55 18.6-11.23 29.5-6 33.34-6.32.26 0 .5 0 .76-.1 4.68 5.94 10.56 12.8 14 14.5 6.3 3.16 20 14.74 6.3 24.57z"/><path d="M641.2 514.13q-2.56 1.83-4.92 3.4l-17.2 1.52c4.2-17.56-32.3-37.57-32.3-37.57 18.6-11.23 29.5-6 33.34-6.3.26 0 .5-.07.76-.1 4.68 5.92 10.56 12.78 14 14.48 6.3 3.16 20 14.74 6.3 24.57z" opacity=".05"/><path fill="#c27099" d="M712.8 273s-66 92.3-60.73 75.45c3.47-11.1-6.14-42.83-13.1-63.26-3.64-10.62-6.56-18.18-6.56-18.18s37.92-32.65 37.22-25.28c-.18 1.92 2.65 5 7 8.4C688.8 259.95 712.8 273 712.8 273z"/><path d="M676.56 250.2a50.24 50.24 0 0 1-37.62 35C635.3 274.57 632.4 267 632.4 267s37.9-32.65 37.2-25.28c-.16 1.92 2.67 4.96 6.96 8.45z" opacity=".1"/><path fill="#c27099" d="M678.56 234.03a50.2 50.2 0 1 1-50.2-50.2 49.95 49.95 0 0 1 50.2 50.2z"/><path d="M863.38 641.2c-2 1.5-3.92 3.13-5.78 4.8q-1.65 1.52-3.24 3.1c-.84.83-1.68 1.68-2.5 2.55a139.9 139.9 0 0 1-22.47-7.85c-5.84-2.6-10.7-5.6-13.4-8.6-9-9.88-38.63-35.57-97-43.33a271.5 271.5 0 0 0-42.4-2.15q-2.94.06-5.95.2l-.9-5.38.5-.2 10.84-4.6 9.9-4.23a79 79 0 0 1 21.1-2.63c.9 0 1.83 0 2.74 0 .7 0 1.37 0 2.06.08h1.28c1.7.1 3.38.23 5.1.4.6.05 1.2.12 1.8.2h.32l1.34.15c.56.06 1.12.14 1.68.22l1.67.24c1.1.17 2.23.35 3.36.55 1.68.3 3.38.62 5.1 1l2.5.55c2.56.56 5.13 1.2 7.7 1.87l2.4.66 1.62.46 2 .6c4.7 1.4 9.43 3 14.1 4.66l2.5.94 2.4.9a.27.27 0 0 0 .12.05c1.43.54 2.86 1.1 4.28 1.7 8.07 3.26 16 6.86 23.48 10.62l2.58 1.3 1.33.68c.9.45 1.76.9 2.64 1.37l2.62 1.38 1.28.7 1.28.7 1.26.68q4.43 2.43 8.56 4.87c.8.46 1.57.92 2.34 1.4l1.15.67c1.5.93 3 1.83 4.45 2.75.72.44 1.43.9 2.15 1.35 1.05.67 2.1 1.34 3.1 2 .68.43 1.34.87 2 1.3l1 .67c.65.43 1.28.85 1.9 1.28l1.07.74 2.1 1.63c.33.23.66.48 1 .7l.3.23 2.45 1.8s0 0 .05 0l1.5 1.14 1.46 1.13c1 .74 1.86 1.47 2.7 2.17.43.34.84.68 1.23 1l.6.5.57.5 1 .93.7.67c.26.23.5.45.7.67a32.53 32.53 0 0 1 2.5 2.72c.6.75 1.13 1.46 1.63 2.14z" opacity=".1"/><path fill="#4c4981" d="M857.76 588.9s5 32.2 9.37 49.6q-1.9 1.28-3.7 2.66c-2 1.52-3.92 3.14-5.78 4.82q-1.65 1.5-3.24 3.1a145.88 145.88 0 0 1-16.85-5.12c-9.14-3.4-17.62-7.67-21.5-11.93-8.85-9.68-37.5-34.6-93.7-42.86a269.67 269.67 0 0 0-43.83-2.65c-2.56 0-5.16.1-7.8.23l-.4-2.42-3.47-20.14-3.18-18.88v-.1l-.34-2.1V543l-.14-.86-.62-3.6-1.63-9.66-.76-4.56s-.06-.52-.13-1.45c0-.15 0-.32 0-.5s0-.3 0-.45 0-.23 0-.36 0-.5-.06-.8 0-.35 0-.55l-.05-.62a1.6 1.6 0 0 1 0-.23c0-.32-.06-.67-.1-1a.13.13 0 0 1 0-.06c-.05-.66-.12-1.35-.2-2.07-.04-.45-.1-.92-.14-1.4-.2-1.85-.4-3.87-.66-6-.23-1.78-.47-3.62-.73-5.46-.06-.5-.13-1-.2-1.5 0-.3-.1-.58-.14-.87 0-.23-.07-.47-.1-.7-.16-1-.32-1.9-.48-2.83 0-.2-.07-.4-.1-.6-.1-.47-.17-1-.26-1.4s-.22-1.13-.33-1.68a.22.22 0 0 0 0-.1c0-.23-.1-.46-.16-.7s-.15-.68-.22-1c-.13-.6-.26-1.18-.4-1.72l-.2-.73c-.08-.38-.2-.76-.3-1.12a17.24 17.24 0 0 0-2-5 2.15 2.15 0 0 0-.23-.28 1.43 1.43 0 0 0-.25-.25 5.8 5.8 0 0 1-.8-1 7.07 7.07 0 0 1-.4-.6c-.23-.45-.5-.93-.75-1.47 0-.06-.06-.13-.1-.2s-.2-.42-.3-.64c-4.85-10.92-11-38.58-11-38.58l-3.98-19.23-.4-2.12-1.2-6.4v-.75l-.7-22.74s-.36-36.87 11.58-42.13l-.36-4.56s-9.3-2.74-10.34-6.93a3 3 0 0 1 .12-1.9 5.5 5.5 0 0 1 1.45-2c.17-.17.34-.33.5-.5a26.1 26.1 0 0 0 7.22-13.55s1.46-2.44 3.82-6.2c7.36-11.68 23.4-36.07 30.57-38.73a57.33 57.33 0 0 0 16.5-9.84l1.6.35c4.78 1 18.85 3.94 24.35 4.22 1.67.1 4.4 1.2 7.6 2.78a68.26 68.26 0 0 1 31 32.26c4.64 10 10.1 20.72 13 22.88a23.58 23.58 0 0 1 4.94 5.83c.92 1.43 1.8 3 2.6 4.44 2.38 4.4 4 8.35 4 8.35s22.83 15.44 20 30.53c0 0 4.93 16.85 9.84 21.77s16.15 44.23 16.15 44.23 4.2 7.37 3.85 13 4.2 17.56 4.2 17.56.74 3.73 1.8 8c.37 1.46.77 3 1.2 4.44 1.06 3.66 2.25 6.93 3.33 7.88 2.8 2.45 1.4 7.72 1.4 7.72s3.5 9.13 5.27 11.58a5.83 5.83 0 0 1 .8 2.36 37.5 37.5 0 0 1-.1 8.53s-.15 1.22-.3 3c-.34 4.26-.6 11.8 1.36 14.5a7.3 7.3 0 0 1 1 2.66c1.24 5.7.2 16.4 2.84 18.77 3.22 2.8 1.82 28.43 1.82 28.43z"/><path fill="#c27099" d="M704.02 522.56s-2 4.72-4.9 11.7c-5.76 13.8-15 36.4-19 48.32-6 17.9-30.2 28.43-30.2 28.43s-48.08 16.5-64.93 4.22 31.58-39.32 40.35-41.06 16.5-8.8 22.82-12.64c3-1.82 3.3-8.78 2.82-15.64a132.22 132.22 0 0 0-2.13-15.26z"/><path d="M769.66 357.58s18.25-8.08 26 4.56-26-4.56-26-4.56zM837.05 520.1s-126 1.05-102.14 17.2 27.4 23.86 55.12 16.14 47.03-33.34 47.03-33.34zM678.56 234.03a50 50 0 0 1-6.72 25.1 15.6 15.6 0 0 1-5.17-3.3c-1.7-1.8-2.64-4.26-3.7-6.6a57.94 57.94 0 0 0-8.37-13.3c-2.38-2.84-5.44-5.56-8.9-5.22-5.85.57-10 9.55-15.6 7.65-1.7-.57-4.2-11.38-5.15-13.37-2.28-4.7-3.55-3.34-7.7-1.38-7.9 3.73-16.44 7-25.1 5.32a13.3 13.3 0 0 1-7.87-4.14 27.47 27.47 0 0 0-2.66-3.27 5.33 5.33 0 0 0-1.63-.92 50.2 50.2 0 0 1 98.56 13.45z" opacity=".1"/><path fill="#63345e" d="M631.16 237.3c5.6 1.9 9.76-7.08 15.6-7.65 3.46-.33 6.52 2.4 8.9 5.22a57.4 57.4 0 0 1 8.37 13.32c1.06 2.3 2 4.78 3.7 6.58a17 17 0 0 0 5.57 3.47l7.6 3.42c4.4 2 10 3.73 13.42 0 2.7-3 2.34-8 1.1-12s-3.23-8-3.13-12.22c.1-4.6 2.6-8.68 3.42-13.2 1.38-7.55-2.18-15.24-6.9-20.88s-10.57-9.9-15.4-15.4c-2.76-3.14-5.16-6.63-8-9.7a40.3 40.3 0 0 0-12.47-9.24 23.5 23.5 0 0 0-10.34-2.56c-4.4.07-8.6 1.84-12.77 3.43-6.28 2.4-12.75 4.44-19.4 4.66-8 .26-16.67-2-23.7 2.35-5 3.1-8 8.92-10.8 14.46l-6 11.84c-2.26 4.5-4.56 9-7.78 12.73s-7.52 6.5-12.13 6.6a17 17 0 0 0 18 1.67c2.4-1.24 4.55-3.05 7-4.13s5.47-1.33 7.57.46a25.1 25.1 0 0 1 2.65 3.27 13.25 13.25 0 0 0 7.87 4.13c8.66 1.65 17.2-1.6 25.1-5.3 4.15-2 5.43-3.33 7.7 1.37 1.05 1.92 3.54 12.73 5.24 13.3z"/><path d="M704.02 522.56s-2 4.72-4.9 11.7c-2.36 1.15-4.85 2.43-7.24 3.67-6.4 3.33-12.08 6.38-12.08 6.38l-28.77 1.58a132.22 132.22 0 0 0-2.12-15.26zM751.4 383.9l-7 24.57s-7 14.74-3.5 28.8-2.1 35.44-2.1 35.44l-10.9 28.1s-13.7 28.77-16.16 28.77c-1.34 0-10.08 4.38-17.76 8.36-6.4 3.33-12.07 6.38-12.07 6.38l-32.3 1.77c-10.64-28-3.3-32.9 2-33.37a11.3 11.3 0 0 1 4 .38l7-44.23v-27.38s2.12-26.32 6.68-34.75a79.46 79.46 0 0 0 6.66-17.53s-4.22-8.1-5.27-13.35a95.75 95.75 0 0 1-1.4-11.23s-4.92.7-6.32-39.32 28.43-50.9 28.43-50.9c35.8-10.87 56.52 19.3 70.9 41.08S751.4 383.9 751.4 383.9zM747.2 381.8l-7 24.56s-7 14.75-3.52 28.8-2.1 35.44-2.1 35.44l-10.88 28.08s-13.7 28.78-16.14 28.78c-1.34 0-10.08 4.38-17.76 8.36-6.4 3.33-12.08 6.4-12.08 6.4l-14.4.77-3.15-18.7s-1.85-24.34-5.18-35.9l3.42-21.65v-27.38s2.1-26.33 6.67-34.75a79.3 79.3 0 0 0 6.65-17.56s-4.2-8.07-5.26-13.34a93.08 93.08 0 0 1-1.4-11.22s-4.93.7-6.33-39.33 28.43-50.9 28.43-50.9c35.8-10.87 56.52 19.3 70.9 41.08s-10.9 68.45-10.9 68.45z" opacity=".1"/><path fill="#4c4981" d="M749.3 381.8l-7 24.56s-7 14.75-3.5 28.8-2.12 35.44-2.12 35.44l-10.87 28.08s-13.68 28.78-16.15 28.78c-1.33 0-10.08 4.38-17.75 8.36-6.4 3.33-12.08 6.4-12.08 6.4l-32.3 1.74c-10.64-28-3.3-32.9 1.95-33.37a11.3 11.3 0 0 1 4 .37l7-44.22v-27.38s2.1-26.33 6.66-34.75a79.64 79.64 0 0 0 6.67-17.56s-4.2-8.07-5.27-13.34a95.45 95.45 0 0 1-1.4-11.22s-4.9.7-6.3-39.33 28.42-50.9 28.42-50.9c35.8-10.87 56.5 19.3 70.9 41.08S749.3 381.8 749.3 381.8z"/><path d="M692.93 534.77c-6.4 3.33-12.08 6.38-12.08 6.38l-32.3 1.76c-10.64-28-3.3-32.9 1.95-33.36 7.73 5.58 17.78 13.25 18.42 15.82s13.7 6.58 24 9.4z" opacity=".1"/><path fill="#4c4981" d="M691.88 535.82c-6.4 3.33-12.08 6.4-12.08 6.4l-32.3 1.74c-10.64-28-3.3-32.9 1.95-33.37 7.73 5.58 17.78 13.24 18.42 15.8s13.7 6.6 24 9.42z"/><g opacity=".1"><path d="M696.08 254.98c-3.38 3.75-9 2-13.42 0l-7.6-3.42a16.68 16.68 0 0 1-5.57-3.47c-1.7-1.8-2.66-4.28-3.7-6.6a58.07 58.07 0 0 0-8.38-13.3c-2.38-2.84-5.45-5.56-8.9-5.23-5.85.57-10 9.54-15.6 7.65-1.7-.57-4.2-11.38-5.15-13.37-2.28-4.7-3.55-3.34-7.7-1.38-7.9 3.72-16.44 7-25.1 5.3a13.22 13.22 0 0 1-7.87-4.12 26 26 0 0 0-2.67-3.27c-2.1-1.8-5.1-1.55-7.56-.46s-4.6 2.9-7 4.13a16.78 16.78 0 0 1-10.88 1.5 15.2 15.2 0 0 1-8.9 3.5 17 17 0 0 0 18 1.67c2.4-1.24 4.56-3.05 7-4.13s5.48-1.34 7.58.45a25.1 25.1 0 0 1 2.66 3.27 13.25 13.25 0 0 0 7.87 4.13c8.67 1.65 17.22-1.6 25.1-5.3 4.16-2 5.44-3.33 7.7 1.37 1 2 3.46 12.8 5.16 13.37 5.6 1.88 9.76-7.1 15.6-7.66 3.46-.33 6.52 2.4 8.9 5.22a57.4 57.4 0 0 1 8.37 13.33c1.06 2.3 2 4.78 3.7 6.58a17 17 0 0 0 5.57 3.47l7.6 3.42c4.4 2 10 3.73 13.42 0a9.56 9.56 0 0 0 2-7c-.07.1-.15.2-.24.3zM695.9 222.9a29.28 29.28 0 0 0-1.76 6.72 35.5 35.5 0 0 0 1.58-5.43c.08-.43.14-.86.2-1.3z"/></g><path d="M498.68 656.64s-6.32 16.85-18.6 17.2z" opacity=".1"/><path fill="url(#b)" d="M524.5 716.46a107.9 107.9 0 0 0-8-14l-1.3-1.93h.87a4.3 4.3 0 0 0 3.05-1c7.78-6.5-8.15-44-16.8-44.62-5.93-.45-17.55-.9-25.4-1.15l-2.13-.07c-.1-.42-.18-.83-.28-1.26 0 0-9.87-2.47-14.8-7.77S448.8 633 448.8 633s-4.87-2-7.22-4.7a4.3 4.3 0 0 1-1.23-2.72c0-3.4-11.86-13.57-14.83-16.06l-.66-.56s-1.06-5.3-4.93-6.36c-1.6-.44-3.52-2.94-5.2-5.72a80.17 80.17 0 0 1-4.3-8.42s-4.87-5.68-8.74-11.23c-1.07-1.52-2.07-3-2.85-4.44a12 12 0 0 1-1.8-4.5c-.36-4.94-6-5.3-6-5.3s-4.93-9.9-4.93-12.38-7.4-7.42-7.4-7.42l-11.62-13.08s3.17-9.2-8.1-16.26-12.68-27.23-12.68-27.23l-9.9-21.48-1-2.2a6.05 6.05 0 0 0 2.18-2.1 6.4 6.4 0 0 0 .63-5.33 23.78 23.78 0 0 0-3.58-7.46c-.1-.15-.2-.28-.3-.4-.6-.85-1.04-1.33-1.04-1.33a4.38 4.38 0 0 0 1.1-1c.1-.1.17-.2.25-.34.73-1.12 1.26-3 0-5.6a10.72 10.72 0 0 0-.64-1.18c-3.5-5.65-4.2-19.1-4.2-19.1l-8.47-23.68s-1.1-14.34-8.85-23.4a20.6 20.6 0 0 0-7.34-5.6 16.52 16.52 0 0 0-6.8-5.23l-.1-.04c-.15-.87-.27-1.75-.38-2.6s-.17-1.44-.24-2.16a54.9 54.9 0 0 0 7.52.5 54 54 0 0 0 7.34-.48 55.34 55.34 0 0 0 22.17-8 56.3 56.3 0 0 0 24.9-34.42 56.8 56.8 0 0 0 1.57-13.32 55.6 55.6 0 0 0-1.16-11.4c0-.24-.1-.48-.15-.72-.28-1.38-.64-2.74-1.04-4.08-.1-.3-.2-.58-.27-.87a27.5 27.5 0 0 0 8 .93 4.75 4.75 0 0 0 2.64-.74 5.53 5.53 0 0 0 1.53-2.36c.48-1.16.95-2.36 1.34-3.58a2.76 2.76 0 0 0 .1-.27 23.73 23.73 0 0 0 .8-3.5 16 16 0 0 0 .2-2.9c0-.52 0-1-.08-1.53a10.56 10.56 0 0 0-.37-2c0 .16 0 .33-.06.5a9.88 9.88 0 0 0-.55-1.4c-2.83-5.87-11-8.17-12.68-14.46-.8-3-.07-6.8-2.46-8.83a10.35 10.35 0 0 0-3.65-1.53c-5.23-1.67-9.32-5.68-13.85-8.8a28 28 0 0 0-4.8-2.6c-3.5-1.46-7.28-2-10.64-.4-.94.43-1.8 1-2.75 1.5a16 16 0 0 1-8.76 1.07c-2-.18-3.94-.55-5.86-.83-4.9-.75-10.64-.7-13.9 3-1.24 1.4-2 3.24-3.48 4.37-2.7 2.1-6.54 1.08-9.9.4s-7.7-.38-9 2.78a27.6 27.6 0 0 0-.7 3c-.76 2.72-3.32 4.58-6 5.47s-5.5 1-8.27 1.5a31 31 0 0 0-12.45 5.27 12.15 12.15 0 0 0-4 4.47c0-.13-.08-.25-.13-.37a5.17 5.17 0 0 0-.4 2.4 4.5 4.5 0 0 0 .1 1.4 6.33 6.33 0 0 0 .32 1 13.62 13.62 0 0 1 .76 2.14 4.6 4.6 0 0 1 .1.9 6.54 6.54 0 0 1-1 3.4c-.2.36-.4.7-.64 1a39.12 39.12 0 0 1-2.66 3.2 13 13 0 0 0-2.1 3.25l-.1-.07-.1-.16a6.58 6.58 0 0 0-.5 2.78 4.35 4.35 0 0 0 .37 2.12 3.77 3.77 0 0 0 .6.9c.87 1 2.16 1.47 3.2 2.23 2.92 2.13 3.56 6.16 3.73 9.77a83 83 0 0 1-.82 16c0 .05 0 .1 0 .15-.3 2.08-1.14 5.94-1.4 9.78v.45a.38.38 0 0 0 0-.1c0 .46 0 .93 0 1.38 0 3.06.4 5.95 2 7.68a4.72 4.72 0 0 0 1.57 1.16c1 .45 2.38.1 3.93-.6q-.93 2.33-1.93 4.62c-.1.27-.23.54-.34.8q-1.18 2.7-2.44 5.27a27.53 27.53 0 0 0-14.65 1.57s-2.12 16.26-9.16 18-32.74 23.34-32.74 23.34l-37.12 37.27-.92.92s-.93 1.3-2.45 3.5c-5.68 8.22-19.6 28.82-24.3 40-1.77 4.17-3.6 10.8-5.28 18.18-4 17.7-7.3 39.8-7 43.33.3 4.28-1.5 43.86-.87 59.38a33.55 33.55 0 0 0 .5 5.33 45.83 45.83 0 0 1 .48 7.7c.07 5.1-.07 12-.3 19.46-.6 20.17-1.92 43.9-1.92 43.9s6 17.35 9.16 22.57c.58 1 1.07 1.53 1.4 1.48 2.1-.34 8.1 14.5 8.1 14.5s2.34-.08 6.4-.35l1.2-.1c.3.7.63 1.38 1 2.07s.68 1.4 1 2.1.65 1.36 1 2c4.08 8.22 8.66 16.07 11.6 16.88 6.33 1.77 23.6 10.6 25 14.5s25.2 7.9 35.4 7.9h5.03v1.2c0 .2 0 .4 0 .6a10.15 10.15 0 0 0 9.92 9.3l7.7.13h.33l-.23 1.74-.05.37-.23 1.74-2.1 16h.7l21.12.34h2.22v-.67c1-.3 2.06-.6 3.1-.9l1.17-.33c19-5.45 38-10.63 57.18-12.1a128 128 0 0 1 19.2-.15c1 .07 2 .16 3 .25 20.62 2 40.65 9.25 60.67 15.37h2.43l6.35.05h1l20.3.2h2.06l.43-16.56v-2.13l6.68.12a10.1 10.1 0 0 0 7.8-3.5 10 10 0 0 0 2.26-4.53 10.12 10.12 0 0 0 .23-2.15v-1.5c1.85 2.95 3.64 8-.7 13.1a20.53 20.53 0 0 1-4.22 3.66c-6.43 4.3-9.25 7.3-10.4 9.26-1.3 2.2-.5 3.1-.5 3.1h58.52c14.22-6.1 28-13.92 42.2-20.04a.55.55 0 0 0 .14-.08l1-.4c3.32-7.52 5.23-31.07-6.33-45.06zM287.33 538.68l.58-1.48 1.1-2.82c.13.17.26.36.37.54 11 16.18 21.05 30.92 21.05 30.92l1.85 2.08c-1 .12-2.07.24-3.14.34-3.78.4-7.68.76-9.27.76-3.53 0-13.38-2.47-13.38-2.47l-5.15-2.35a28.87 28.87 0 0 0-.95-6.43l-.24-.77 6.1-15.5zm95.28 97.16c8.66 6.16 19.4 13.16 30.13 19.88l-4.9.1-26.05.62c-9.7-2.16-24-5.44-27.7-6.8-1.8-.68-9.6-2.8-19.43-5.4-6.86-1.82-14.7-3.87-22.17-5.8l-15.17-3.9a2.8 2.8 0 0 0-.6-1.18 29.22 29.22 0 0 1-4.18-7.56 47.34 47.34 0 0 1-2.17-7.3s-9-1-10.53-4c-.47-.85-.27-1.88 1-3.1a8.72 8.72 0 0 0 2.18-3 10.8 10.8 0 0 0 .53-1.64 13.68 13.68 0 0 0 0-5.26 17.63 17.63 0 0 0-.93-3.3 61.46 61.46 0 0 1 11.28 3.75c4.25 2 11.77 2.5 18.6 2.48 4.7 0 9.1-.26 11.86-.46h.48c1.58-.13 2.52-.23 2.52-.23s3 .53 7.32 1.07c2.76.33 6.08.67 9.54.87 1.32.1 2.66.15 4 .18l2.3 2.28.64.6c6.74 6.55 13.67 12.94 20.26 18.47 3.9 3.18 7.66 6.14 11.2 8.64z" transform="translate(-19.44 -93.81)"/><path fill="#aea4b2" d="M350.2 565.38l90.56-2.1 31.6 17.54 4.9 41.07L394.1 598l-43.88-32.64z"/><path d="M350.2 565.38l90.56-2.1 31.6 17.54 4.9 41.07L394.1 598l-43.88-32.64z" opacity=".05"/><path fill="#ffc4d0" d="M297.56 502.2c1.05 0 9.48 10.52 9.48 10.52s31.94 5.62 39.66-1.4-15.14-30.54-15.14-30.54l-20.36 1.06-16.5 9.82z"/><path fill="#575989" d="M250.86 468.85l15.45 7s9.84 2.46 13.35 2.46 18.25-1.75 18.25-1.75l13.34 5.27s-11.94 22.46-4.2 30.88c0 0-24.23 2.46-33.36-1.75s-21.4-5.62-21.4-5.62z"/><path d="M252.97 469.2l15.44 7s9.84 2.45 13.35 2.45S300 476.9 300 476.9l13.34 5.3s-11.93 22.45-4.2 30.88c0 0-24.23 2.45-33.35-1.76s-21.43-5.62-21.43-5.62z" opacity=".05"/><path fill="#ffc4d0" d="M286.3 302.82s-101.74-23.17-83.52-26.33c11.64-2 22.3-28.34 28.46-47.12 3.52-10.66 5.58-18.88 5.58-18.88s58.62 27.38 45.28 36.5c-5.12 3.52-5.7 12.55-4.44 22.35 2 15.75 8.65 33.47 8.65 33.47z"/><path fill="#5f546f" d="M385.65 665.77l-.07 1.78-.2 4.54-.1 2.1-.62 15V690.74H378.44v-.05l-1.05.05v-1.16l-1.4-.44c-20-6.12-40.05-13.38-60.67-15.37-1-.1-2-.2-3-.26a128 128 0 0 0-19.2.14c-19.15 1.48-38.2 6.66-57.17 12.1l-1.18.34c-1 .3-2.06.6-3.1.9l.26-15.35v-4.85H238.56l54.47-.38 22.17-.16z"/><path d="M239.28 661.9l-.7 4.9-.42 2.9-.3 2.07-2 14-1.17.33c-1 .3-2.07.6-3.1.9v.67h-2.22l-4.33 1.24h-17l.2-1.57 2.12-16 .28-2.1.56-4.16 27-3z" opacity=".1"/><path fill="#5f546f" d="M238.23 661.9v.12l-.7 4.8-.4 2.85-.3 2.1-2.15 14.42c-1 .3-2.06.58-3.1.9v.66h-2.2l-4.34 1.24-1 .28-17.06-.28 2.33-17.6.26-2.2.22-1.76.3-2.4z"/><path d="M406.36 668.57l-.07 3.9-.04 2.1v.03l-.25 14.84v.2l-21.38.84-3.9.16-2.35.1-1.06.03-.03-1.15v-.42l-.52-15.08v-.02l-.07-2.1-.16-4.83 1.06.05 6.95.32 1.05.06 20.78.97z" opacity=".1"/><path fill="#5f546f" d="M407.4 668.57l-.05 3.93-.04 2.1-.36 14.85-.05 1.6-22.3-.22-3.33-.02h-.02l-2.88-.03v-.04l-.04-.8-.02-.72-.5-15.08-.06-2.1-.16-4.8v-.05l8 .37 21.83 1.03z"/><path fill="#fff" d="M238.23 661.9v.12l-.7 4.8-.4 2.85-.3 2.1-2.15 14.42c-1 .3-2.06.58-3.1.9v.66h-2.2l-4.34 1.24-1 .28-17.06-.28 2.33-17.6.26-2.2.22-1.76.3-2.4zM407.4 668.57l-.05 3.93-.04 2.1-.36 14.85-.05 1.6-22.3-.22-3.33-.02h-.02l-2.88-.03v-.04l-.04-.8-.02-.72-.5-15.08-.06-2.1-.16-4.8v-.05l8 .37 21.83 1.03z" opacity=".1"/><path d="M282.1 247c-5.12 3.52-5.7 12.55-4.44 22.35a55.85 55.85 0 0 1-46.42-40c3.52-10.66 5.58-18.88 5.58-18.88s58.62 27.4 45.28 36.54z" opacity=".1"/><path fill="#ffc4d0" d="M340.72 211.9a55.75 55.75 0 1 1-2.35-16.07 55.8 55.8 0 0 1 2.35 16.08z"/><path d="M338.37 195.83c-4.46-1.1-8.9-2.66-13.46-2.7a4.38 4.38 0 0 0-3 .75c-1.3 1.1-1.1 3.12-1.26 4.83a9.86 9.86 0 0 1-5 7.7c-3.58 2-8.25 1.65-11.36 4.3-3.95 3.36-3.3 9.57-1.93 14.58a19 19 0 0 1 1 6.08 8.78 8.78 0 0 1-15.68 4.92c-2.82-3.6-2.44-8.63-3.2-13.12a24.7 24.7 0 0 0-6.9-13.42 13.33 13.33 0 0 0-6.1-3.73 7 7 0 0 0-6.68 1.74c-2.24 2.45-1.85 6.15-2.14 9.45a21.1 21.1 0 0 1-8.7 15.2c-4.7 3.32-10.5 4.55-15.9 6.54a9.7 9.7 0 0 0-1.55.78 55.82 55.82 0 1 1 101.87-43.9z" opacity=".1"/><path fill="#ae757a" d="M237 237.9c5.4-2 11.2-3.23 15.9-6.56a21.15 21.15 0 0 0 8.7-15.2c.3-3.3-.07-7 2.17-9.46a7 7 0 0 1 6.68-1.72 13.23 13.23 0 0 1 6.1 3.73 24.76 24.76 0 0 1 6.95 13.4c.75 4.5.37 9.54 3.2 13.13a8.8 8.8 0 0 0 15.67-4.93 19.23 19.23 0 0 0-1-6.07c-1.36-5-2-11.22 1.93-14.6 3.1-2.63 7.78-2.3 11.36-4.27a9.9 9.9 0 0 0 5-7.7c.15-1.72-.05-3.73 1.26-4.83a4.47 4.47 0 0 1 3-.76c7.55.07 14.7 4.24 22.25 3.82a4.73 4.73 0 0 0 2.64-.76 5.4 5.4 0 0 0 1.54-2.33c2-4.63 3.57-10.04 1.38-14.58-2.82-5.82-11-8.1-12.64-14.35-.8-3-.07-6.77-2.46-8.77a10.17 10.17 0 0 0-3.64-1.53c-5.2-1.65-9.3-5.64-13.8-8.7s-10.44-5.33-15.4-3c-1 .43-1.8 1-2.74 1.48-4.45 2.15-9.7 1-14.58.23s-10.6-.68-13.87 3c-1.23 1.4-2 3.2-3.47 4.34-2.7 2.07-6.53 1.07-9.86.4s-7.68-.38-9 2.76a24.7 24.7 0 0 0-.7 3c-.77 2.7-3.32 4.54-6 5.42s-5.5 1-8.27 1.5a31.06 31.06 0 0 0-12.4 5.23c-2.6 1.85-5.1 4.73-4.43 7.84.24 1.1.85 2.06 1.08 3.15.7 3.2-2 6-4.16 8.46s-4 6.3-1.84 8.76c.86 1 2.15 1.44 3.2 2.2 2.9 2.12 3.53 6.12 3.7 9.7a81.7 81.7 0 0 1-.83 16c-.7 4.54-3.92 17.57 2.06 20.26 3.48 1.6 11.7-6.4 15.3-7.7z"/><path fill="none" d="M275.43 483.24s-13 .7-11.93 5.62 11.93-5.62 11.93-5.62z"/><path fill="#aea4b2" d="M510.42 668.27a.55.55 0 0 1-.15.08c-14.24 6.12-28 13.93-42.2 20.05-1.25.54-2.5 1.07-3.8 1.6a111.47 111.47 0 0 1-27.57 7.65 103 103 0 0 1-29.4-.74c.32-3.87 1.08-9.48 2.87-11.6 1.57-1.87 4.35-4.36 9.2-7.6a17.43 17.43 0 0 0 5.42-5.32 9.83 9.83 0 0 0 .45-9.46 17.28 17.28 0 0 0-1-1.83 14.9 14.9 0 0 0-2.12-2.66H249.8s-40.7-.28-57.6-.35h-5.57c-10.18 0-34.06-3.87-35.46-7.73s-18.6-12.64-24.92-14.4c-3.16-.87-8.26-9.93-12.55-18.75-.7-1.4-1.35-2.8-2-4.15-.32-.67-.63-1.33-.92-2V611c-1.26-2.74-2.35-5.23-3.17-7.15l-.4-1c-.1-.2-.17-.37-.23-.54s-.17-.4-.26-.58l-.22-.56c-.36-.85-.56-1.34-.56-1.34l156.9-60s5 1.27 12.44 3.16c.6.16 1.23.32 1.88.47l15.93 4.08c7.52 1.94 15.37 4 22.17 5.76 9.4 2.47 16.76 4.47 18.5 5.13 3.62 1.36 18 4.62 27.63 6.76 5.3 1.17 9.2 2 9.2 2s12.4 2.4 28.6 5.7l3.15.64 4.2.85c.84.15 1.7.33 2.54.5 2.88.6 5.8 1.2 8.77 1.8l6.36 1.33c6.8 1.4 13.53 2.84 19.77 4.2l4.84 1.07 1.88.4 1.85.42c7.18 1.62 13.17 3.06 17 4.13a26.35 26.35 0 0 1 3.86 1.42c8.45 3.83 15.64 11.85 20.87 19.25a107.73 107.73 0 0 1 9.3 15.78c11 13.17 9.8 34.9 6.85 43.57z"/><path d="M244.56 581.2s-6.67 29.48-27.38 40 27.38-40 27.38-40zM288.77 599.42s-22.46 13-19.3 22.47zM491.3 636.63s-6.3 26.68-20 27zM407.4 668.57l-.08 6.03-22.02-.35-7.5-.13-140.98-2.34-4.98-.08-22.52-.38.83-6.26 28.08-3.16-.7 4.9 148.13-1.03-.08 1.78 21.83 1.02z" opacity=".1"/><path fill="#ccccd8" d="M414 672.62l-212.44-3.53a10.1 10.1 0 0 1-9.92-9.86l-.12-4.7h232.74v8A10.1 10.1 0 0 1 414 672.6z"/><path d="M262.45 554.2s-8.08 6.3-11.94 11.57-24.94 14.7-24.94 14.7c-26.72 27.86-89.12 35-111.9 36.7-.68-1.4-1.34-2.8-2-4.15-3.34-7.17-5.8-13.24-5.8-13.24l156.9-60 12.42 3.16a25.32 25.32 0 0 0 2.3 3.5 2.76 2.76 0 0 1 .63 1.2c1.23 4.7-15.65 6.55-15.65 6.55z" opacity=".1"/><path fill="#575989" d="M277.1 543.4c1.18 4.72-15.7 6.54-15.7 6.54s-8.08 6.3-11.94 11.58-24.9 14.74-24.9 14.74c-27.1 28.24-90.88 35.18-112.82 36.76-4.78.35-7.58.44-7.58.44s-6-14.74-8.07-14.4-10.54-23.87-10.54-23.87 3.5-63.2 1.75-70.57.7-59.32.37-64.23 6.32-47 12.28-61.08 26.66-43.13 26.66-43.13l37.96-37.94s25.62-21.42 32.64-23.17 9.12-17.9 9.12-17.9c16.85-7 36.86 7.7 36.86 7.7 17.55-.34 15.8 2.82 15.8 2.82l10.18 2.1.26 2.84L282.1 410.2l-15 38-7.16 18.18a28.68 28.68 0 0 1-.7 18.6c-3.86 9.83 2.8 21.4 2.8 21.4s4.2 8.8-1.4 14 9.48 7 9.48 7 1.76 9.14 6.32 14.76a3 3 0 0 1 .67 1.25z"/><path d="M202.78 503.25s-7 13.34 5.6 15.44 45.3-1.4 49.5-1.4-55.1-14.05-55.1-14.05zM201.37 458.67c1.76 3.16 39.67 35.1 52.65 40.72zM228.4 436.2s19 34 25.27 39.3 1.05-19 1.05-19zM175.05 339.33s48.08 31.24 46 53.35-46-53.35-46-53.35zM118.18 440.07s-12.28 97.23 85.3 95.47c0 0-79.68-29.48-85.3-95.47z" opacity=".1"/><path fill="#ffc4d0" d="M495.17 608.9c-14.05-.35-53.7-14.74-53.7-14.74l.23-1.1 6.43-30.87 8 .26c7.82.26 19.4.7 25.32 1.14 9.5.72 27.76 45.65 13.72 45.3z"/><path d="M269.38 272.66L282.1 410.2l-15 38c-11.68-17.1-24.88-36.33-28.57-41.5-7-9.82-21.4-57.9-21.4-57.9s-4.22-42.48 24.2-64.94c12.35-9.67 21.56-11.87 28.05-11.2zM448.82 583.24a35.55 35.55 0 0 1-10.5 13s-18.35-10.62-39.15-23.43c15.56 3.18 34.64 7.1 49.65 10.44zM443.56 594.2l-1.87-1.1 6.43-30.9 8 .26c4.25 19.93-12.57 31.73-12.57 31.73z" opacity=".1"/><path fill="#575989" d="M284.9 277.2s-11.92-17.9-40.34 4.56-24.22 64.94-24.22 64.94 14.4 48.08 21.4 57.9 48.44 70.6 48.44 70.6 43.52 49.48 71.95 69.5 79.33 49.5 79.33 49.5 17.55-12.3 12.3-33c0 0-9.84-2.46-14.75-7.73s-10.88-11.58-10.88-11.58-8.42-3.52-8.42-7.38-15.44-16.5-15.44-16.5-1.06-5.27-4.92-6.32-9.48-14-9.48-14-13-15.1-13.33-20-6-5.26-6-5.26-4.92-9.83-4.92-12.3-7.36-7.36-7.36-7.36l-11.58-13s3.16-9.12-8.07-16.14-12.65-27-12.65-27l-10.88-23.52a6.18 6.18 0 0 0 2.8-7.37 24.7 24.7 0 0 0-4.9-9.13s4.2-2.45.7-8.07-4.22-18.95-4.22-18.95l-8.42-23.52s-1.73-22.57-16.12-28.9z"/><path d="M314.4 434.45s36.5-9.48 25.62-1.76-25.62 1.75-25.62 1.75zM309.48 474.1s27.73-4.9 21.4 1.42-21.4-1.4-21.4-1.4zM254.72 309.84s37.2 9.83 46 30.54z" opacity=".1"/><g opacity=".1"><path d="M220.08 203.73c-.17-3.58-.8-7.6-3.7-9.7-1-.77-2.34-1.23-3.2-2.2l-.12-.16c-.7 1.8-.76 3.66.47 5.07.86 1 2.15 1.44 3.2 2.2 2.06 1.5 3 4 3.4 6.56-.03-.6-.03-1.18-.05-1.77zM218.44 176.37a7.55 7.55 0 0 0 .44 1.3 5.32 5.32 0 0 0 .3-3.07 6.83 6.83 0 0 0-.44-1.3 5.27 5.27 0 0 0-.3 3.07zM352.25 179.12a29.2 29.2 0 0 1-2.34 8.08 5.4 5.4 0 0 1-1.5 2.33 4.8 4.8 0 0 1-2.65.74c-7.54.42-14.7-3.74-22.25-3.82a4.45 4.45 0 0 0-3 .76c-1.3 1.12-1.1 3.13-1.26 4.83a9.9 9.9 0 0 1-5 7.7c-3.58 2-8.26 1.65-11.36 4.3s-3.38 7.3-2.6 11.6a9.12 9.12 0 0 1 3-6.7c3.1-2.64 7.77-2.3 11.35-4.27a9.9 9.9 0 0 0 5-7.7c.15-1.72-.05-3.73 1.26-4.83a4.4 4.4 0 0 1 3-.76c7.54.07 14.7 4.24 22.24 3.82a4.73 4.73 0 0 0 2.64-.76 5.4 5.4 0 0 0 1.53-2.33c1.7-4.1 3.16-8.8 1.95-12.98zM295.86 232.57a9 9 0 0 1-9.54-3c-2.82-3.6-2.44-8.62-3.2-13.13a24.86 24.86 0 0 0-6.93-13.4 13.36 13.36 0 0 0-6.1-3.74 7 7 0 0 0-6.68 1.73c-2.24 2.42-1.88 6.15-2.16 9.44a21.13 21.13 0 0 1-8.7 15.2c-4.7 3.34-10.5 4.57-15.92 6.57-3.6 1.33-11.8 9.3-15.33 7.7-1.75-.78-2.7-2.46-3.17-4.55-.15 4.17.53 8.12 3.53 9.47 3.52 1.58 11.74-6.4 15.33-7.72 5.4-2 11.2-3.22 15.9-6.56a21.1 21.1 0 0 0 8.7-15.2c.3-3.3-.07-7 2.17-9.46a7 7 0 0 1 6.68-1.72 13.3 13.3 0 0 1 6.1 3.72 24.82 24.82 0 0 1 6.93 13.42c.75 4.5.37 9.53 3.2 13.12a8.78 8.78 0 0 0 15.67-4.92 13.57 13.57 0 0 0-.47-4 9 9 0 0 1-6.02 7z"/></g><path fill="#6c63ff" d="M57.77 439.94a9.2 9.2 0 0 0-1.2 2.34c-.1.2-.17.43-.24.66a1.84 1.84 0 0 0-.43-.15 6 6 0 0 0-2-.18c0-.25 0-.52 0-.8.08-2.87-.26-6.87-3-5.18s-.75 4.35.94 6.1l.44.44c-1.55 1.1-1.84 3.67-2.1 6.34s-2.53 5.6-4 7.27l-.42.46a5.5 5.5 0 0 0-4.4-1.13c-.05-.24-.12-.48-.2-.74-1.2-4.42-3.75-12.06-7-13.73l.43-.54c1.37-1.8 2.9-4.47.63-5.15s-2.5 2.32-2.36 4.56c0 .28 0 .55.06.8a3.36 3.36 0 0 0-2.37 1.17l-.35-.4c-1.84-2.2-5.24-5.66-6.27-3-1 2.43 2 5.6 4.14 7.44l.13.1c-1.42 5.74 4.75 10.42 8.07 12.46l.43.26c-4.58 5.4-7.4 15.5-7.4 15.5l12.82 2.3s8.5-7.33 7.4-14.22h.1c8.5-1.7 10.42-10.76 9.1-16.14l.15-.06a9.47 9.47 0 0 0 3.93-3c2.4-3.32-2.6-7.04-5.03-3.8z"/><path d="M57.77 439.94a9.2 9.2 0 0 0-1.2 2.34c-.1.2-.17.43-.24.66a1.84 1.84 0 0 0-.43-.15 6 6 0 0 0-2-.18c0-.25 0-.52 0-.8.08-2.87-.26-6.87-3-5.18s-.75 4.35.94 6.1l.44.44c-1.55 1.1-1.84 3.67-2.1 6.34s-2.53 5.6-4 7.27l-.42.46a5.5 5.5 0 0 0-4.4-1.13c-.05-.24-.12-.48-.2-.74-1.2-4.42-3.75-12.06-7-13.73l.43-.54c1.37-1.8 2.9-4.47.63-5.15s-2.5 2.32-2.36 4.56c0 .28 0 .55.06.8a3.36 3.36 0 0 0-2.37 1.17l-.35-.4c-1.84-2.2-5.24-5.66-6.27-3-1 2.43 2 5.6 4.14 7.44l.13.1c-1.42 5.74 4.75 10.42 8.07 12.46l.43.26c-4.58 5.4-7.4 15.5-7.4 15.5l12.82 2.3s8.5-7.33 7.4-14.22h.1c8.5-1.7 10.42-10.76 9.1-16.14l.15-.06a9.47 9.47 0 0 0 3.93-3c2.4-3.32-2.6-7.04-5.03-3.8z" opacity=".1"/><path fill="#6c63ff" d="M32.24 443.64l-1.5 4.38a22.26 22.26 0 0 1-1.88-1.5c-2.1-1.85-5.1-5-4.14-7.46 1-2.62 4.43.84 6.28 3 .75.9 1.24 1.58 1.24 1.58zM35.4 441.13c-.75 1-1.45 1.72-1.45 1.72a22.1 22.1 0 0 1-.27-2.3c-.12-2.25.1-5.24 2.36-4.57s.74 3.35-.63 5.15zM54.74 441.82c0 1.45-.18 2.6-.18 2.6a17.6 17.6 0 0 1-1.87-1.67c-1.7-1.76-3.58-4.48-.95-6.1s3.07 2.3 3 5.17zM63.56 443.7a9.6 9.6 0 0 1-3.93 3 11.22 11.22 0 0 1-1.32.5l-1.74-2.5a17 17 0 0 1 .73-2.42 9.2 9.2 0 0 1 1.26-2.34c2.43-3.24 7.42.48 5 3.77z"/><path d="M31 442.1c.75.86 1.24 1.54 1.24 1.54l-1.5 4.38a22.26 22.26 0 0 1-1.88-1.5 8.63 8.63 0 0 1 1.7-3.87c.14-.2.3-.4.44-.56zM35.4 441.13c-.75 1-1.45 1.72-1.45 1.72a22.1 22.1 0 0 1-.27-2.3 3 3 0 0 1 1.73.58z" opacity=".1"/><path fill="#6c63ff" d="M42.78 458.55l-3.73 1.64a22.2 22.2 0 0 1-2-1.13c-3.9-2.4-11.8-8.48-6.5-15.63s9.68 5.68 11.4 12c.55 1.82.83 3.1.83 3.1z"/><path d="M52.7 442.75a3 3 0 0 1 2.04-.93c0 1.45-.18 2.6-.18 2.6a17.6 17.6 0 0 1-1.87-1.67zM59.67 446.7a11.22 11.22 0 0 1-1.32.47l-1.8-2.48a17 17 0 0 1 .74-2.42c1.15.66 2 2.32 2.37 4.4z" opacity=".1"/><path fill="#6c63ff" d="M50.4 462.9l-.62.1c-12.5 1.9-4.12-4.84-4.12-4.84s.57-.52 1.33-1.37c1.5-1.67 3.76-4.58 4-7.28.4-4.05.84-7.85 5.62-6.73s5.62 17.72-6.2 20.1z"/><path fill="#d4dfec" d="M26.3 494h23.88v6.3H26.3zM22.5 473.6h31.2v21.92H22.5z"/><path d="M26.3 494h23.88v6.3H26.3zM22.5 473.6h31.2v21.92H22.5z" opacity=".1"/><path fill="#d4dfec" d="M27.87 494h23.88v6.3H27.87z"/><path d="M41.97 455.4c.53 1.86.8 3.15.8 3.15l-3.72 1.64a22.2 22.2 0 0 1-2-1.13 9.6 9.6 0 0 1 4.92-3.68zM50.4 462.9l-.62.1c-12.5 1.9-4.12-4.84-4.12-4.84s.57-.52 1.33-1.37a8.28 8.28 0 0 1 3.4 6.1z" opacity=".1"/><path fill="#6c63ff" d="M30.1 474.84s7-25 16.8-17.33-4 19.63-4 19.63z"/><circle cx="33.62" cy="447.37" r=".79" opacity=".1"/><circle cx="33.56" cy="451.03" r=".79" opacity=".1"/><circle cx="56.32" cy="448.09" r=".79" opacity=".1"/><circle cx="38.01" cy="466.86" r=".79" opacity=".1"/><circle cx="54.69" cy="454.17" r=".79" opacity=".1"/><circle cx="46.58" cy="462.28" r=".79" opacity=".1"/><circle cx="36.3" cy="448.94" r=".79" opacity=".1"/><circle cx="54.16" cy="450.44" r=".79" opacity=".1"/><circle cx="51.48" cy="456.52" r=".79" opacity=".1"/><circle cx="43.24" cy="466.27" r=".79" opacity=".1"/><circle cx="41.54" cy="462.41" r=".79" opacity=".1"/><circle cx="37.48" cy="453.71" r=".79" opacity=".1"/><path d="M27.87 494h23.88v2.3H27.87z" opacity=".1"/><path fill="#d4dfec" d="M24.07 473.6h31.2v21.92h-31.2z"/><circle cx="44.29" cy="469.8" r=".79" opacity=".1"/><circle cx="39.58" cy="470.79" r=".79" opacity=".1"/><path fill="#6c63ff" d="M966.4 358.03s7.84-23.4 28.48-14.8c0 0-9.6 20.92-27.44 18.54zM963.17 334.56s8.7-23.48 29.3-13.1c0 0-12 21.6-28.3 16.67zM962.24 313.03s11.63-23 28.3-19.8c0 0-12 24.36-27.64 24.87zM962.74 292.24s13.1-27.86 26.4-23.5c0 0-9.38 21.37-26.6 28.1zM965 267.65s11.78-23.07 25.42-22c0 0-9.16 23.08-26.1 28.34zM966.83 244.73s13.8-22.8 22.8-22c0 0-8.05 23.3-22.52 26.1zM968.95 223.44s10.24-25.48 19.48-26.3c0 0-4.53 21.43-18.9 28.42zM969.84 195.3s9.72-20.1 17.44-22.17c0 0-5.24 24.6-16.56 27.58zM969.84 176.72l4.38-37.35s9.15 30.1-4.4 44.06zM965.1 138.2s-5.55-28.62-7.65-30.5c0 0 16.33 20.52 11 42.88zM965.32 375.5q-7.35 5.17-14.46 10.68c-.93.7-1.86 1.44-2.78 2.2a32.46 32.46 0 0 1-8.82-2.77c9.3-13 20-12.13 26.06-10.1zM966.56 358.6s-15.06-19.57-31.75-4.7c0 0 15.9 16.65 32 8.56zM964.26 334.13s-15.1-20-31.84-4.07c0 0 17.75 17.2 31.92 7.8zM964.16 312.62s-10.38-23.62-27.2-21.3c0 0 10.68 25 26.27 26.33zM963.17 292.2s-9.63-29.24-23.38-26.53c0 0 6.73 22.36 23 31.13zM966.15 266.42s-10.9-23.52-24.57-23c0 0 8.26 23.42 25 29.33zM968.4 244.48s-7.3-25.62-16.2-27.2c0 0 1.63 24.6 14.85 31.1zM969.47 223s-8.5-26.13-17.65-27.58c0 0 3.07 21.7 16.9 29.64zM971.56 197.1s-6-21.48-13.26-24.9c0 0 .82 25.14 11.44 30.06zM968.86 175.86l-15.64-34.2s.53 31.45 17.7 40.57zM960.03 140s-21.2-20-21.66-22.78c0 0 8.58 24.77 30.32 32.25zM959.74 132.42s-23.18-30.35-30.18-31.38c0 0 22.3 4.47 31 30.08z"/><path fill="#444053" d="M970.7 200.93h-1c1-40.83-2.8-65.63-10.78-69.85l.47-.9c8.44 4.45 12.35 28.93 11.3 70.75zM963.56 297.82l-1.52-.1c.26-3.8.6-7.66 1-11.5 3.65-33.35 6.1-64.12 6.7-87.38l1-.94c-.6 23.3-2.56 55.1-6.22 88.5-.38 3.8-.72 7.65-.96 11.42zM967.86 361.82q1.07 5.28 2.3 10.32l-2 1.4q-1.25-5.25-2.26-10.65c-.4-2.1-.74-4.2-1.08-6.3-.93-5.83-1.64-11.77-2.16-17.76-.1-1.1-.2-2.2-.26-3.3-.1-1.27-.2-2.54-.28-3.83v-.6c-.26-4.54-.42-9.12-.46-13.7 0-3.16 0-6.34.05-9.5.1-3.4.23-6.8.42-10.18 0-.44 0-.9.1-1.34s0-.93.07-1.4c0-.1 0-.2 0-.3l.36.26.33.2.74.53s0 .08 0 .12v.58q-.47 7.2-.53 14.12a7.45 7.45 0 0 0 0 .94c0 2.1 0 4.16 0 6.2 0 .15 0 .3 0 .46q.1 6.63.58 13c0 .63.1 1.27.13 1.9 0 .22 0 .44.06.67.06.62.1 1.24.17 1.87l.2 2.32c0 .1 0 .2 0 .3q.95 9.6 2.6 18.6.42 2.57.93 5.06z"/><path fill="#6c63ff" d="M1064.82 312.8l-2.27 1.52c-6.5 4.37-13.1 8.6-19.76 12.72 0 .68 0 1.37 0 2a2.7 2.7 0 0 1-.4-.14l-.12-1.58-.1-1.7v-.56s.27-.44.75-1.16c2.35-3.45 10.42-13.47 21.9-11.1zM1043.8 301.44s13.33-21.18 31.37-6.78c0 0-16.22 18.66-31.14 10.5zM1047.3 280.2s16.13-20.14 31.8-13.55c0 0-16.78 21.37-32.2 18.65zM1052.08 259.94s18.54-24.57 30.68-17.57c0 0-13.6 19-31.84 22.05zM1059.34 236.35s16.3-20.16 29.4-16.27c0 0-13.7 20.7-31.37 22.36zM1065.86 214.3s18.2-19.47 26.83-16.82c0 0-12.68 21.14-27.42 20.9zM1072.3 193.9s15.26-22.83 24.5-21.7c0 0-8.86 20-24.34 23.92zM1078.98 166.54s13.66-17.63 21.62-18.1c0 0-10.18 23-21.88 23.58zM1082.8 148.36l12-35.65s2.77 31.35-13.37 42.22zM1086.08 109.7s.47-29.15-1.2-31.4c0 0 11.75 23.43 1.94 44.2zM1009.9 346.48c4.47-4.1 8.7-6.2 12.56-7.06q-6.1 3.67-12.2 7.35zM1042.16 325.65l-.3 1.94-.27 1.87c-.34.1-.67.17-1 .23a19.26 19.26 0 0 1-2.84.4c-15.36 1.15-25.75-15.58-25.75-15.58 15.48-8.88 25.43 3.47 28.82 8.83.84 1.3 1.27 2.2 1.34 2.3zM1044.94 301.25s-10.68-22.64-30.32-10.53c0 0 13.83 20.48 29.63 14.18zM1049.27 280.2s-5.3-25.26-22.25-26.44c0 0 5.33 26.63 20.3 31.16zM1052.56 259.96s-3.42-30.6-17.42-30.76c0 0 2 23.26 16.13 35.2zM1060.73 235.37s-5.83-25.25-19.32-27.5c0 0 3.27 24.6 18.43 33.84zM1067.45 214.37s-1.88-26.58-10.26-29.95c0 0-3.47 24.4 8.12 33.5zM1072.9 193.56s-2.9-27.3-11.58-30.6c0 0-1.46 21.84 10.45 32.48zM1080.3 168.64s-1.5-22.25-7.86-27.1c0 0-4.38 24.8 5 31.8zM1082.02 147.3l-8.26-36.68s-6 30.9 9 43.36zM1080.75 110.4s-16.62-23.94-16.5-26.75c0 0 3.3 26 23 37.8zM1082.03 102.92s-16.47-34.47-23.06-36.9c0 0 20.9 9 24.18 35.82z"/><path fill="#444053" d="M1078.66 172.2l-1-.24c9.4-39.74 10.76-64.8 3.82-70.58l.65-.78c7.37 6.16 6.17 30.9-3.47 71.6zM1051.72 265.57l-1.47-.4c1-3.67 2.17-7.38 3.37-11 10.44-31.9 19.17-61.5 24.53-84.16l1.2-.7c-5.37 22.7-13.83 53.4-24.3 85.33-1.18 3.62-2.3 7.3-3.33 10.94zM1052.32 263.5c-.07.23-.13.45-.2.68q-2 6.93-3.44 13.7c-.07.32-.13.64-.2 1-.45 2-.86 4-1.25 6 0 .15-.05.3-.08.44q-1.44 7.47-2.36 14.72c0 .23-.07.46-.1.7-.2 1.4-.35 2.78-.5 4.17v.32c-.7 6.38-1.12 12.6-1.3 18.7 0 1 0 2.08-.08 3.1 0 .7 0 1.38 0 2a2.7 2.7 0 0 1-.4-.13l-.1-1.6-.4.26-.28 1.88c-.33.1-.66.17-1 .23v-1.37c0-1.65.12-3.3.2-5 .3-5.9.8-11.87 1.53-17.86.28-2.34.6-4.7.94-7.07q1-7.06 2.47-14.08c.62-3.13 1.3-6.2 2-9.3q1.15-5 2.5-9.9c.1-.42.23-.85.34-1.28.15-.5.3-1 .4-1.46l.07-.17.3.3.28.3z"/></svg>