<svg xmlns="http://www.w3.org/2000/svg" viewBox="0 0 925.25 687.32263"><title>online_cv</title><path fill="#3f3d56" d="M68.94 48.33h799.8v511.73H68.95z"/><path fill="#f2f2f2" d="M485.9 140.72H846V559.6H485.9z"/><path fill="#3f3d56" d="M36.67 531.42c10.94 20.3 34.17 29 34.17 29s5.48-24.18-5.46-44.48-34.18-29-34.18-29-5.48 24.18 5.47 44.48z"/><path fill="#6c63ff" d="M44.2 524.74c19.75 11.9 27.36 35.5 27.36 35.5s-24.43 4.34-44.2-7.55S0 517.2 0 517.2s24.43-4.35 44.2 7.54z"/><path fill="#fff" d="M607.7 179.7h218.4v8.8H607.7zM607.7 199.07h218.4v8.8H607.7zM607.7 218.45h73.98v8.8H607.7zM159.22 444.1h218.4v8.8h-218.4zM159.22 463.46h218.4v8.8h-218.4zM159.22 482.84h73.97v8.8H159.2zM556.53 287.73h218.4v8.8h-218.4zM556.53 307.1h218.4v8.8h-218.4zM556.53 326.06h218.4v8.8h-218.4zM556.53 345h218.4v8.82h-218.4zM556.53 363.96h218.4v8.8h-218.4zM556.53 382.92h218.4v8.8h-218.4zM556.53 401.87h218.4v8.8h-218.4zM556.53 420.82h218.4v8.8h-218.4zM556.53 439.77h218.4v8.8h-218.4zM556.53 458.73h218.4v8.8h-218.4zM556.53 477.68h218.4v8.8h-218.4z"/><path fill="#6c63ff" d="M348 304.06a79.4 79.4 0 0 1-29.54 61.87 78.46 78.46 0 0 1-10.88 7.42 76.94 76.94 0 0 1-7.13 3.57 78.8 78.8 0 0 1-25.48 6.46q-3.24.27-6.55.26a78.64 78.64 0 0 1-13.02-1.07c-1.52-.23-3-.53-4.5-.87a76.56 76.56 0 0 1-7.64-2.12 79.4 79.4 0 0 1-27.93-16.24 72.43 72.43 0 0 1-5.92-5.9A79.58 79.58 0 1 1 348 304.06zM584.76 215.28c.1 25.47-15 34.43-33.67 34.52q-.66 0-1.3 0-1.3-.03-2.57-.12c-16.86-1.12-30-10.4-30.1-34.1-.12-24.5 31.08-55.6 33.42-57.9.1-.08.13-.12.13-.12s33.97 32.25 34.08 57.72z"/><path fill="#3f3d56" d="M549.85 245.9l12.3-17.33-12.33 19.23-.02 2q-1.3-.03-2.57-.12l1.22-25.5v-.22l.12-2.4-12.5-19.18 12.53 17.37.04.5.92-19.25-10.73-19.82 10.84 16.44.88-39.93v-.14.13l-.03 31.47 10.53-12.52-10.57 15.23-.2 17.24 9.82-16.58-9.85 19.12-.1 9.58 14.24-23.1-14.3 26.45zM868.28 272.45A132.67 132.67 0 0 0 735.6 405.12a38.85 38.85 0 0 1-38.85 38.85H632.3a115.6 115.6 0 0 0-115.6 115.6h351.58V272.46z"/><path fill="#2f2e41" d="M459.84 48.33h17.06v511.73h-17.06z"/><path fill="#6c63ff" d="M303 40.75V27.48a27.48 27.48 0 0 0-54.95 0v13.27h-52.13v29.38h159.2V40.75zM275.54 7.58a16.1 16.1 0 1 1-16.1 16.1 16.1 16.1 0 0 1 16.1-16.1z"/><path fill="#ffb8b8" d="M282.55 298.8s-7.9 22.54-3.04 26-16.43 31.78-16.43 31.78l-25.58-6.94 14-23.68s1.82-23.7 1.82-27.15 29.23 0 29.23 0z"/><path d="M282.55 298.8s-7.9 22.54-3.04 26-16.43 31.78-16.43 31.78l-25.58-6.94 14-23.68s1.82-23.7 1.82-27.15 29.23 0 29.23 0z" opacity=".1"/><circle cx="266.376" cy="294.765" r="20.796" fill="#ffb8b8"/><path fill="#d0cde1" d="M250.9 381.7a76.56 76.56 0 0 1-7.64-2.12l3.98-27.3 1.23-8.4 6.3 2.36c.87.3 1.83.68 2.94 1.1a6.66 6.66 0 0 0 5.3-.2c6.1-2.8 9.73-13.67 9.73-13.67s.25 3.05.57 8.2c.58 9.08 1.4 24.68 1.67 41.7q-3.24.28-6.55.27a78.64 78.64 0 0 1-13.02-1.07c-1.52-.23-3-.53-4.5-.87zM256.55 330l-1.77 16.24-.86 7.86-3 27.6a76.56 76.56 0 0 1-7.66-2.12 79.4 79.4 0 0 1-27.93-16.24l-3.84-13.7a16.2 16.2 0 0 1 .24-2.43.03.03 0 0 1 0-.02 17.22 17.22 0 0 1 .48-2.12.07.07 0 0 0 0-.03 15.73 15.73 0 0 1 3.9-6.94c4.62-4.63 35.23-19.08 35.23-19.08l.58 1.22z"/><path fill="#2f2e41" d="M265.93 265.37c4.6-.16 9.55-.24 13.43 2.24a19.66 19.66 0 0 1 4.65 4.56c3.8 4.78 7.06 10.8 5.66 16.74l-1.64-.64a10.7 10.7 0 0 0 1.03 4.6c-.23-.68-1 .4-.8 1.08l1.8 5.9a5.56 5.56 0 0 0-7.08 4.23c-.2-6.86-.9-14.72-6.48-18.73-2.8-2.03-6.36-2.65-9.77-3.2-3.16-.5-6.46-.98-9.48.05s-5.58 4.12-4.9 7.23a3.23 3.23 0 0 0-3.63 1.8 9.4 9.4 0 0 0-.75 4.3c-1.48 1.05-3.17-1.03-3.77-2.74-1.42-4.03-2.68-8.3-1.92-12.5s4.18-8.2 8.45-8.22a2.96 2.96 0 0 1-.77-2.1l3.5-.3a3.88 3.88 0 0 1-2.3-1.2c1.4 1.54 12.5-3.02 14.77-3.1z"/><path fill="#d0cde1" d="M314.32 345.03c-.54 4.33-3.63 16.56-6.74 28.32a76.94 76.94 0 0 1-7.13 3.57 78.8 78.8 0 0 1-25.48 6.46q-3.24.27-6.55.26a78.64 78.64 0 0 1-13.02-1.07c1.6-6.2 3.78-16.46 5.8-26.5.62-3.03 1.23-6.05 1.8-8.93 2.23-11.35 3.95-20.6 3.95-20.6s6.92-6.8 11.02-8.36a3.56 3.56 0 0 1 1.77-.3c3.4.57 8 8.66 8 8.66s20.76 6.92 25.62 14.77a5.75 5.75 0 0 1 .96 3.73zM226.5 345.03l-1.2 25.92a78.77 78.77 0 0 1-9.97-7.6 72.43 72.43 0 0 1-5.92-5.9c1-4.38 1.84-8.05 2.34-10.24a.03.03 0 0 1 0-.02c.28-1.22.45-1.96.48-2.12a.07.07 0 0 0 0-.03zM318.46 365.93a78.46 78.46 0 0 1-10.88 7.42 76.94 76.94 0 0 1-7.13 3.57l-2.3-13.4 2.3-25.43 12.9 3.2.97.26z"/><path fill="#a0616a" d="M865.25 410.5s-9 44 6 40 9-42 9-42z"/><path fill="#d0cde1" d="M907.25 228.5h-10s-11 8-10 17-18 87-18 97-4 13-4 19 2 10 0 13-6 21-5 28a56.4 56.4 0 0 1 0 14h25s18-61 22-64 6-8 6-11-2-3 3-7 2-22 2-22l7-18z"/><path d="M907.25 228.5h-10s-11 8-10 17-18 87-18 97-4 13-4 19 2 10 0 13-6 21-5 28a56.4 56.4 0 0 1 0 14h25s18-61 22-64 6-8 6-11-2-3 3-7 2-22 2-22l7-18z" opacity=".1"/><path fill="#a0616a" d="M767.25 386s-9 44 6 40 9-42 9-42zM770.25 591l-6 25 22 14 6-30-22-9zM874.25 622l-11 15 13 15h18v-30h-20z"/><path fill="#2f2e41" d="M897.25 639h-6a22.58 22.58 0 0 0-9 0c-6 1-14.14-8.62-14.14-8.62l-7.85 6.62s-16 4-8 23l18 11s9 19 27 16 5-23 5-23zM770.25 604l-1.52-6.66-13.48 3.66s-28-18-28 6 22 32 22 32 8-1 8 6 21 18 29 14 8-14 8-14l-2-28-9 2s-17-1-14-5 1-10 1-10zM799.25 374s-12 16-12 25-4 89-4 89-22 102-16 108 24 15 27 12 24-112 24-112l25-67 23 96s-1 83 3 84 6 2 4 6-5 12-5 12 25 6 30 2 6-101 0-135 1-112 1-112z"/><circle cx="835.75" cy="150.501" r="30" fill="#a0616a"/><path fill="#a0616a" d="M826.75 169.5s4 21 0 27 54 2 54 2-28-32-25-38-29 9-29 9z"/><path fill="#d0cde1" d="M801.25 204s20-26 45-21c6.75 1.35 12.92 2.7 18.32 3.95 19.05 4.4 34.9 18 41.4 36.43 1.7 4.78 2.53 9.37 1.78 13.12-3 15-1.5 133.5-1.5 133.5s-8 3-7 7 8 9 1 9-113-4-111-7 12-175 12-175zM811.25 204h-10s-11 8-10 17-18 87-18 97-4 13-4 19 2 10 0 13-6 21-5 28a56.4 56.4 0 0 1 0 14h25s18-61 22-64 6-8 6-11-2-3 3-7 2-22 2-22l7-18z"/><path d="M796.67 377.68l30.08-66.18-15.04 70.38-15.03-4.2z" opacity=".1"/><path fill="#2f2e41" d="M825.28 105.13l.02-2.47a19.3 19.3 0 0 1 6.2.22 10.08 10.08 0 0 0-.9-4.34 19.62 19.62 0 0 1 5.93 1.77l.7-4.6 17.9 6.3c6.43 2.24 13.23 4.75 17.4 10.13 4.65 6 5 14.4 3.2 21.8s-5.4 14.16-8.12 21.25a50.28 50.28 0 0 1-3.8 8.75c-5.4 8.72-17.64 11.84-27.2 8.13-3.55-1.37-6.88-3.65-8.68-7a51.88 51.88 0 0 1-2.33-6.36c-1.67-4.4-4.1-13.64-8.15-16.06-1.77-1.07-4.48 3.5-6.02 2.12-3.94-3.58-3.97-9.85-2.4-14.94a110.34 110.34 0 0 1 5.5-14.94c.94-1.96 10.76-10.04 10.75-9.75z"/></svg>