<svg xmlns="http://www.w3.org/2000/svg" xmlns:xlink="http://www.w3.org/1999/xlink" viewBox="0 0 1022.76 761.09"><defs><linearGradient id="a" x1="616.05" x2="616.05" y1="543.92" y2="426.21" gradientUnits="userSpaceOnUse"><stop offset="0" stop-color="#808080" stop-opacity=".25"/><stop offset=".54" stop-color="#808080" stop-opacity=".12"/><stop offset="1" stop-color="#808080" stop-opacity=".1"/></linearGradient><linearGradient id="b" x1="404.29" x2="404.29" y1="575" y2="496.58" xlink:href="#a"/><linearGradient id="c" x1="222.33" x2="222.33" y1="432.82" y2="379.12" xlink:href="#a"/><linearGradient id="d" x1="533.77" x2="533.77" y1="346.42" y2="316.03" xlink:href="#a"/><linearGradient id="e" x1="398.54" x2="398.54" y1="299.67" y2="275.44" xlink:href="#a"/><linearGradient id="f" x1="367.05" x2="367.05" y1="437.96" y2="395.77" xlink:href="#a"/><linearGradient id="g" x1="2606.45" x2="2848.25" y1="160.59" y2="160.59" gradientTransform="matrix(-1 0 0 1 3342 0)" xlink:href="#a"/><linearGradient id="h" x1="2483.29" x2="2483.29" y1="816.51" y2="211.49" gradientTransform="matrix(-1 0 0 1 3342 0)" xlink:href="#a"/></defs><title>drone_race</title><path fill="#6c63ff" d="M174.8 110.92c-5.48 5.72-7.6 13.78-9.95 21.35-19 61-65.82 110.07-119.14 145.13C23.14 292.25-4.35 312.16.6 338.77c2.66 14.3 14.33 24.82 23 36.46A99.86 99.86 0 0 1 39 461.93c-9.86 33.2-37.42 64.2-28.9 97.77 5.27 20.7 23.13 35.38 40.3 48q40.18 29.57 82.92 55.4c19.1 11.53 39.42 22.76 61.68 24.22 19.6 1.3 38.8-5.12 57.4-11.46 16.27-5.53 32.94-11.3 46.07-22.4 8.57-7.23 15.4-16.57 24.92-22.5 22.35-13.92 51.07-5.1 76.7.83a306.77 306.77 0 0 0 182.83-14.43c88.3-35.74 155.62-110.8 242-151.06 37.14-17.3 77.54-28.06 111.93-50.36a193.9 193.9 0 0 0 49.2-45.85c26-34.56 40.06-78.6 36-121.7s-26.8-84.65-62.54-109c-38.25-26-86.56-30.9-130.08-46.56C784.5 76.7 744.52 48.9 700 31.6 627.25 3.3 543.4 4.94 471.74 36.07c-48.44 21.06-97.54 70.3-151.5 74-38.43 2.63-115.42-30.54-145.43.84z" opacity=".1"/><ellipse cx="133.46" cy="386.14" rx="40.83" ry="6.15" opacity=".03"/><path fill="url(#a)" d="M743 430.15a149 149 0 0 0-21.3 1.32 5.1 5.1 0 1 0-10.23 0 149 149 0 0 0-21.3-1.32c-15.77 0-28.55 1.76-28.55 3.94s12.8 3.9 28.57 3.9a149 149 0 0 0 21.3-1.32 5.36 5.36 0 0 0 .32 1.85 3.53 3.53 0 0 0-.34 5.68 9.54 9.54 0 0 0-5.6 5.3 8.58 8.58 0 0 0-4.9-1.82l-53.06-2.44a20.56 20.56 0 0 0-16.63-8.56h-33.46a20.56 20.56 0 0 0-16.7 8.68l-50.43 2.32a8.58 8.58 0 0 0-4.58 1.6 9.56 9.56 0 0 0-4.9-4.85 3.52 3.52 0 0 0 1.54-2.93 3.48 3.48 0 0 0-2.35-3.3 5.4 5.4 0 0 0 .23-1.5 149 149 0 0 0 21.3 1.3c15.77 0 28.55-1.75 28.55-3.93s-12.78-3.94-28.55-3.94a149 149 0 0 0-21.3 1.32 5.2 5.2 0 0 0-5.1-5.26 5.2 5.2 0 0 0-5.12 5.25 149 149 0 0 0-21.3-1.32c-15.76 0-28.54 1.76-28.54 3.94S473.32 438 489.1 438a149 149 0 0 0 21.3-1.32 5.36 5.36 0 0 0 .32 1.85 3.54 3.54 0 0 0-.2 5.8 9.67 9.67 0 0 0-6.1 9v6.47a9.55 9.55 0 0 0 9.42 9.68h3.75a9.3 9.3 0 0 0 7.54-3.9 8.6 8.6 0 0 0 5.7 2.4l49.45 1.42a21.2 21.2 0 0 0 6.12 6.42c-4.73 4.94-23.2 26.86-20.22 65.5 0 0 3 5.68 10.65 0 0 0-4.9-43 22.54-60.77a6.83 6.83 0 0 0 6.42 4.7h3.5a18.83 18.83 0 0 0-11.6 17.52 18.33 18.33 0 1 0 36.64 0 18.83 18.83 0 0 0-11.6-17.52h3.5a6.83 6.83 0 0 0 6.43-4.7c27.43 17.73 22.53 60.76 22.53 60.76 7.67 5.7 10.65 0 10.65 0 3.4-44.22-21.3-66.56-21.3-66.56h-.45a21.26 21.26 0 0 0 4.63-5.26l52-1.5a8.63 8.63 0 0 0 6-2.65 9.33 9.33 0 0 0 7.73 4.15h3.74a9.55 9.55 0 0 0 9.42-9.68v-6.48a9.7 9.7 0 0 0-5.58-8.83 3.52 3.52 0 0 0-.6-6.36 5.4 5.4 0 0 0 .22-1.5A149 149 0 0 0 743 438c15.77 0 28.55-1.76 28.55-3.94s-12.77-3.9-28.55-3.9z" transform="translate(-88.62 -69.46)"/><circle cx="525.99" cy="432.38" r="17.76" fill="#6c63ff"/><circle cx="525.99" cy="432.38" r="11.98" fill="#6c63ff"/><circle cx="525.99" cy="432.38" r="11.98" fill="#f5f5f5" opacity=".2"/><circle cx="525.99" cy="432.38" r="7.85" fill="#6c63ff"/><circle cx="525.99" cy="432.38" r="7.85" opacity=".25"/><path fill="#6c63ff" d="M498.3 405.94s-24 21.07-20.64 62.78c0 0 2.9 5.37 10.33 0 0 0-6.2-52.87 35.1-62.78zM553.66 405.94s24 21.07 20.65 62.78c0 0-2.88 5.37-10.32 0 0 0 6.2-52.87-35.1-62.78z"/><rect width="72.7" height="40.27" x="488.2" y="370.01" fill="#6c63ff" rx="16.95" ry="16.95"/><path fill="#6c63ff" d="M500.1 401.15l-56.72-1.6a8.5 8.5 0 0 1-8.27-8.5v-2.2a8.5 8.5 0 0 1 8.14-8.5l56.72-2.53a8.5 8.5 0 0 1 8.9 8.5v6.3a8.5 8.5 0 0 1-8.76 8.53zM551.46 401.15l56.72-1.6a8.5 8.5 0 0 0 8.27-8.5v-2.2a8.5 8.5 0 0 0-8.13-8.5l-56.72-2.53a8.5 8.5 0 0 0-8.9 8.5v6.3a8.5 8.5 0 0 0 8.76 8.53z"/><path fill="#f5f5f5" d="M500.1 401.15l-56.72-1.6a8.5 8.5 0 0 1-8.27-8.5v-2.2a8.5 8.5 0 0 1 8.14-8.5l56.72-2.53a8.5 8.5 0 0 1 8.9 8.5v6.3a8.5 8.5 0 0 1-8.76 8.53zM551.46 401.15l56.72-1.6a8.5 8.5 0 0 0 8.27-8.5v-2.2a8.5 8.5 0 0 0-8.13-8.5l-56.72-2.53a8.5 8.5 0 0 0-8.9 8.5v6.3a8.5 8.5 0 0 0 8.76 8.53z" opacity=".2"/><rect width="21.89" height="24.37" x="417.77" y="376.62" fill="#6c63ff" rx="9.21" ry="9.21"/><rect width="21.89" height="24.37" x="612.32" y="376.62" fill="#6c63ff" rx="9.21" ry="9.21"/><rect width="13.22" height="6.61" x="422.31" y="371.25" fill="#6c63ff" rx="2.78" ry="2.78"/><rect width="9.91" height="14.87" x="423.55" y="360.1" fill="#6c63ff" rx="4.17" ry="4.17"/><ellipse cx="402.9" cy="367.53" fill="#6c63ff" rx="27.67" ry="3.72"/><ellipse cx="454.12" cy="367.53" fill="#6c63ff" rx="27.67" ry="3.72"/><rect width="13.22" height="6.61" x="617.28" y="371.25" fill="#6c63ff" rx="2.78" ry="2.78"/><rect width="9.91" height="14.87" x="618.52" y="360.1" fill="#6c63ff" rx="4.17" ry="4.17"/><ellipse cx="597.86" cy="367.53" fill="#6c63ff" rx="27.67" ry="3.72"/><ellipse cx="649.08" cy="367.53" fill="#6c63ff" rx="27.67" ry="3.72"/><ellipse cx="402.9" cy="367.53" fill="#f5f5f5" rx="27.67" ry="3.72" opacity=".2"/><ellipse cx="454.12" cy="367.53" fill="#f5f5f5" rx="27.67" ry="3.72" opacity=".2"/><ellipse cx="597.86" cy="367.53" fill="#f5f5f5" rx="27.67" ry="3.72" opacity=".2"/><ellipse cx="649.08" cy="367.53" fill="#f5f5f5" rx="27.67" ry="3.72" opacity=".2"/><rect width="33.04" height="13.22" x="509.47" y="402.64" fill="#6c63ff" rx="5.56" ry="5.56"/><rect width="33.04" height="13.22" x="509.47" y="402.64" fill="#f5f5f5" rx="5.56" ry="5.56" opacity=".2"/><g opacity=".7"><path fill="url(#b)" d="M488.88 499.2a99.25 99.25 0 0 0-14.2.88 3.4 3.4 0 1 0-6.8 0 99.25 99.25 0 0 0-14.2-.88c-10.5 0-19 1.18-19 2.63s8.52 2.63 19 2.63a99.25 99.25 0 0 0 14.2-.88 3.57 3.57 0 0 0 .22 1.23 2.35 2.35 0 0 0-.22 3.8 6.36 6.36 0 0 0-3.73 3.52 5.72 5.72 0 0 0-3.27-1.22l-35.35-1.63a13.7 13.7 0 0 0-11.08-5.7h-22.3a13.7 13.7 0 0 0-11.15 5.8l-33.6 1.54a5.7 5.7 0 0 0-3.05 1.07 6.37 6.37 0 0 0-3.27-3.23 2.35 2.35 0 0 0 1-2 2.32 2.32 0 0 0-1.56-2.2 3.6 3.6 0 0 0 .14-1 99.24 99.24 0 0 0 14.2.87c10.5 0 19-1.17 19-2.62s-8.52-2.63-19-2.63a99.25 99.25 0 0 0-14.2.88 3.45 3.45 0 0 0-3.4-3.5 3.45 3.45 0 0 0-3.42 3.5 99.25 99.25 0 0 0-14.2-.88c-10.5 0-19 1.18-19 2.63s8.52 2.63 19 2.63a99.25 99.25 0 0 0 14.2-.87 3.57 3.57 0 0 0 .22 1.23 2.36 2.36 0 0 0-.14 3.86 6.44 6.44 0 0 0-4.06 6V519a6.36 6.36 0 0 0 6.27 6.45h2.5a6.2 6.2 0 0 0 5-2.6 5.74 5.74 0 0 0 3.8 1.6l32.94.94a14.12 14.12 0 0 0 4.08 4.27c-3.15 3.3-15.45 17.9-13.47 43.63 0 0 2 3.8 7.1 0 0 0-3.27-28.67 15-40.48a4.55 4.55 0 0 0 4.3 3.13h2.32a12.55 12.55 0 0 0-7.73 11.67 12.2 12.2 0 1 0 24.4 0 12.55 12.55 0 0 0-7.6-11.62h2.33a4.55 4.55 0 0 0 4.3-3.13c18.27 11.8 15 40.48 15 40.48 5.1 3.8 7.1 0 7.1 0 2.26-29.47-14.2-44.35-14.2-44.35h-.3a14.16 14.16 0 0 0 3.1-3.5l34.66-1a5.75 5.75 0 0 0 4-1.77 6.22 6.22 0 0 0 5.15 2.77h2.5a6.36 6.36 0 0 0 6.28-6.45v-4.35a6.46 6.46 0 0 0-3.7-5.88 2.34 2.34 0 0 0-.4-4.23 3.6 3.6 0 0 0 .13-1 99.24 99.24 0 0 0 14.2.87c10.5 0 19-1.18 19-2.63s-8.52-2.64-19.02-2.64z" transform="translate(-88.62 -69.46)"/><circle cx="314.71" cy="477.51" r="11.83" fill="#6c63ff"/><circle cx="314.71" cy="477.51" r="7.98" fill="#6c63ff"/><circle cx="314.71" cy="477.51" r="7.98" fill="#f5f5f5" opacity=".2"/><circle cx="314.71" cy="477.51" r="5.23" fill="#6c63ff"/><circle cx="314.71" cy="477.51" r="5.23" opacity=".25"/><path fill="#6c63ff" d="M296.28 459.9s-16 14-13.76 41.82c0 0 1.93 3.58 6.88 0 0 0-4.13-35.22 23.4-41.83zM333.15 459.9s16 14 13.76 41.82c0 0-1.92 3.58-6.87 0 0 0 4.13-35.22-23.4-41.83z"/><rect width="48.43" height="26.83" x="289.54" y="435.95" fill="#6c63ff" rx="11.29" ry="11.29"/><path fill="#6c63ff" d="M297.47 456.7l-37.8-1.06a5.67 5.67 0 0 1-5.5-5.66v-1.44a5.67 5.67 0 0 1 5.4-5.66l37.8-1.7a5.67 5.67 0 0 1 5.93 5.65v4.2a5.67 5.67 0 0 1-5.83 5.67zM331.68 456.7l37.8-1.06a5.67 5.67 0 0 0 5.5-5.66v-1.44a5.67 5.67 0 0 0-5.4-5.66l-37.8-1.7a5.67 5.67 0 0 0-5.92 5.67v4.2a5.67 5.67 0 0 0 5.82 5.65z"/><path fill="#f5f5f5" d="M297.47 456.7l-37.8-1.06a5.67 5.67 0 0 1-5.5-5.66v-1.44a5.67 5.67 0 0 1 5.4-5.66l37.8-1.7a5.67 5.67 0 0 1 5.93 5.65v4.2a5.67 5.67 0 0 1-5.83 5.67zM331.68 456.7l37.8-1.06a5.67 5.67 0 0 0 5.5-5.66v-1.44a5.67 5.67 0 0 0-5.4-5.66l-37.8-1.7a5.67 5.67 0 0 0-5.92 5.67v4.2a5.67 5.67 0 0 0 5.82 5.65z" opacity=".2"/><rect width="14.58" height="16.24" x="242.62" y="440.36" fill="#6c63ff" rx="6.14" ry="6.14"/><rect width="14.58" height="16.24" x="372.23" y="440.36" fill="#6c63ff" rx="6.14" ry="6.14"/><rect width="8.81" height="4.4" x="245.64" y="436.78" fill="#6c63ff" rx="1.85" ry="1.85"/><rect width="6.6" height="9.91" x="246.47" y="429.35" fill="#6c63ff" rx="2.78" ry="2.78"/><ellipse cx="232.71" cy="434.3" fill="#6c63ff" rx="18.44" ry="2.48"/><ellipse cx="266.83" cy="434.3" fill="#6c63ff" rx="18.44" ry="2.48"/><rect width="8.81" height="4.4" x="375.53" y="436.78" fill="#6c63ff" rx="1.85" ry="1.85"/><rect width="6.6" height="9.91" x="376.36" y="429.35" fill="#6c63ff" rx="2.78" ry="2.78"/><ellipse cx="362.6" cy="434.3" fill="#6c63ff" rx="18.44" ry="2.48"/><ellipse cx="396.72" cy="434.3" fill="#6c63ff" rx="18.44" ry="2.48"/><ellipse cx="232.71" cy="434.3" fill="#f5f5f5" rx="18.44" ry="2.48" opacity=".2"/><ellipse cx="266.83" cy="434.3" fill="#f5f5f5" rx="18.44" ry="2.48" opacity=".2"/><ellipse cx="362.6" cy="434.3" fill="#f5f5f5" rx="18.44" ry="2.48" opacity=".2"/><ellipse cx="396.72" cy="434.3" fill="#f5f5f5" rx="18.44" ry="2.48" opacity=".2"/><rect width="22.01" height="8.81" x="303.71" y="457.69" fill="#6c63ff" rx="3.71" ry="3.71"/><rect width="22.01" height="8.81" x="303.71" y="457.69" fill="#f5f5f5" rx="3.71" ry="3.71" opacity=".2"/></g><g opacity=".5"><path fill="url(#c)" d="M280.25 380.92a68 68 0 0 0-9.72.6 2.33 2.33 0 1 0-4.66 0 68 68 0 0 0-9.72-.6c-7.2 0-13 .8-13 1.8s5.83 1.8 13 1.8a68 68 0 0 0 9.72-.6 2.45 2.45 0 0 0 .15.84 1.6 1.6 0 0 0-.15 2.6 4.35 4.35 0 0 0-2.56 2.4 3.92 3.92 0 0 0-2.23-.82l-24.2-1.12a9.38 9.38 0 0 0-7.58-3.9H214a9.38 9.38 0 0 0-7.62 4l-23 1.06a3.9 3.9 0 0 0-2.1.73 4.36 4.36 0 0 0-2.23-2.2 1.6 1.6 0 0 0 .7-1.34 1.6 1.6 0 0 0-1.06-1.5 2.46 2.46 0 0 0 .1-.7 68 68 0 0 0 9.7.6c7.2 0 13-.8 13-1.8s-5.82-1.8-13-1.8a68 68 0 0 0-9.7.6 2.37 2.37 0 0 0-2.34-2.4 2.37 2.37 0 0 0-2.33 2.4 68 68 0 0 0-9.72-.6c-7.18 0-13 .8-13 1.8s5.84 1.8 13 1.8a68 68 0 0 0 9.73-.6 2.45 2.45 0 0 0 .15.84 1.6 1.6 0 0 0-.1 2.64 4.4 4.4 0 0 0-2.77 4.13v3a4.36 4.36 0 0 0 4.3 4.42h1.72a4.25 4.25 0 0 0 3.44-1.8 3.93 3.93 0 0 0 2.6 1.1l22.55.66a9.67 9.67 0 0 0 2.8 2.93c-2.15 2.24-10.57 12.24-9.2 29.86 0 0 1.35 2.6 4.85 0 0 0-2.24-19.63 10.28-27.72a3.12 3.12 0 0 0 2.93 2.15h1.6a8.6 8.6 0 0 0-5.3 8 8.36 8.36 0 1 0 16.72 0 8.6 8.6 0 0 0-5.3-8H227a3.12 3.12 0 0 0 2.93-2.16c12.52 8.1 10.28 27.72 10.28 27.72 3.5 2.6 4.87 0 4.87 0 1.55-20.18-9.72-30.36-9.72-30.36h-.2a9.7 9.7 0 0 0 2.1-2.4l23.75-.68a3.94 3.94 0 0 0 2.72-1.2 4.26 4.26 0 0 0 3.52 1.88H269a4.36 4.36 0 0 0 4.3-4.42v-3a4.42 4.42 0 0 0-2.54-4 1.6 1.6 0 0 0-.28-2.9 2.46 2.46 0 0 0 .1-.7 68 68 0 0 0 9.72.6c7.2 0 13-.8 13-1.8s-5.86-1.86-13.05-1.86z" transform="translate(-88.62 -69.46)"/><circle cx="133.06" cy="344.17" r="8.1" fill="#6c63ff"/><circle cx="133.06" cy="344.17" r="5.46" fill="#6c63ff"/><circle cx="133.06" cy="344.17" r="5.46" fill="#f5f5f5" opacity=".2"/><circle cx="133.06" cy="344.17" r="3.58" fill="#6c63ff"/><circle cx="133.06" cy="344.17" r="3.58" opacity=".25"/><path fill="#6c63ff" d="M120.43 332.1s-10.93 9.6-9.42 28.64c0 0 1.33 2.45 4.72 0 0 0-2.83-24.12 16-28.64zM145.68 332.1s10.93 9.6 9.42 28.64c0 0-1.32 2.45-4.7 0 0 0 2.82-24.12-16-28.64z"/><rect width="33.16" height="18.37" x="115.82" y="315.72" fill="#6c63ff" rx="7.73" ry="7.73"/><path fill="#6c63ff" d="M121.25 329.92l-25.87-.72a3.88 3.88 0 0 1-3.77-3.88v-1a3.88 3.88 0 0 1 3.72-3.88l25.87-1.16a3.88 3.88 0 0 1 4.04 3.88v2.88a3.88 3.88 0 0 1-4 3.88zM144.67 329.92l25.87-.72a3.88 3.88 0 0 0 3.77-3.88v-1a3.88 3.88 0 0 0-3.7-3.88l-25.87-1.16a3.88 3.88 0 0 0-4.05 3.88v2.88a3.88 3.88 0 0 0 4 3.88z"/><path fill="#f5f5f5" d="M121.25 329.92l-25.87-.72a3.88 3.88 0 0 1-3.77-3.88v-1a3.88 3.88 0 0 1 3.72-3.88l25.87-1.16a3.88 3.88 0 0 1 4.04 3.88v2.88a3.88 3.88 0 0 1-4 3.88zM144.67 329.92l25.87-.72a3.88 3.88 0 0 0 3.77-3.88v-1a3.88 3.88 0 0 0-3.7-3.88l-25.87-1.16a3.88 3.88 0 0 0-4.05 3.88v2.88a3.88 3.88 0 0 0 4 3.88z" opacity=".2"/><rect width="9.99" height="11.12" x="83.69" y="318.73" fill="#6c63ff" rx="4.2" ry="4.2"/><rect width="9.99" height="11.12" x="172.43" y="318.73" fill="#6c63ff" rx="4.2" ry="4.2"/><rect width="6.03" height="3.01" x="85.76" y="316.28" fill="#6c63ff" rx="1.27" ry="1.27"/><rect width="4.52" height="6.78" x="86.33" y="311.2" fill="#6c63ff" rx="1.9" ry="1.9"/><ellipse cx="76.91" cy="314.59" fill="#6c63ff" rx="12.62" ry="1.7"/><ellipse cx="100.27" cy="314.59" fill="#6c63ff" rx="12.62" ry="1.7"/><rect width="6.03" height="3.01" x="174.69" y="316.28" fill="#6c63ff" rx="1.27" ry="1.27"/><rect width="4.52" height="6.78" x="175.26" y="311.2" fill="#6c63ff" rx="1.9" ry="1.9"/><ellipse cx="165.84" cy="314.59" fill="#6c63ff" rx="12.62" ry="1.7"/><ellipse cx="189.2" cy="314.59" fill="#6c63ff" rx="12.62" ry="1.7"/><ellipse cx="76.91" cy="314.59" fill="#f5f5f5" rx="12.62" ry="1.7" opacity=".2"/><ellipse cx="100.27" cy="314.59" fill="#f5f5f5" rx="12.62" ry="1.7" opacity=".2"/><ellipse cx="165.84" cy="314.59" fill="#f5f5f5" rx="12.62" ry="1.7" opacity=".2"/><ellipse cx="189.2" cy="314.59" fill="#f5f5f5" rx="12.62" ry="1.7" opacity=".2"/><rect width="15.07" height="6.03" x="125.52" y="330.6" fill="#6c63ff" rx="2.54" ry="2.54"/><rect width="15.07" height="6.03" x="125.52" y="330.6" fill="#f5f5f5" rx="2.54" ry="2.54" opacity=".2"/></g><g opacity=".5"><path fill="url(#d)" d="M566.55 317a38.46 38.46 0 0 0-5.5.34 1.32 1.32 0 1 0-2.64 0 38.46 38.46 0 0 0-5.5-.34c-4.06 0-7.36.46-7.36 1s3.3 1 7.37 1a38.46 38.46 0 0 0 5.5-.34 1.38 1.38 0 0 0 .1.48.9.9 0 0 0-.1 1.47 2.46 2.46 0 0 0-1.44 1.38 2.22 2.22 0 0 0-1.27-.47L542 321a5.3 5.3 0 0 0-4.3-2.2h-8.62a5.3 5.3 0 0 0-4.32 2.23l-13 .6a2.2 2.2 0 0 0-1.18.4 2.47 2.47 0 0 0-1.27-1.24.9.9 0 0 0 .4-.77.9.9 0 0 0-.6-.86 1.4 1.4 0 0 0 .06-.4 38.46 38.46 0 0 0 5.5.35c4.07 0 7.37-.46 7.37-1s-3.3-1-7.37-1a38.46 38.46 0 0 0-5.5.34 1.34 1.34 0 0 0-1.32-1.36 1.34 1.34 0 0 0-1.32 1.36A38.46 38.46 0 0 0 501 317c-4.07 0-7.37.46-7.37 1s3.3 1 7.37 1a38.46 38.46 0 0 0 5.5-.34 1.38 1.38 0 0 0 .1.48.9.9 0 0 0-.06 1.5 2.5 2.5 0 0 0-1.57 2.33v1.67a2.47 2.47 0 0 0 2.43 2.5h1a2.4 2.4 0 0 0 1.95-1 2.22 2.22 0 0 0 1.47.62l12.76.37a5.47 5.47 0 0 0 1.58 1.66c-1.22 1.27-6 6.93-5.22 16.9 0 0 .77 1.47 2.75 0 0 0-1.28-11.1 5.8-15.7a1.76 1.76 0 0 0 1.67 1.22h.9a4.86 4.86 0 0 0-3 4.52 4.73 4.73 0 1 0 9.46 0 4.86 4.86 0 0 0-3-4.52h.9a1.76 1.76 0 0 0 1.66-1.2c7.08 4.57 5.8 15.68 5.8 15.68 2 1.47 2.76 0 2.76 0 .88-11.42-5.5-17.2-5.5-17.2H541a5.5 5.5 0 0 0 1.2-1.35l13.44-.4a2.23 2.23 0 0 0 1.54-.67 2.4 2.4 0 0 0 2 1.07h1a2.47 2.47 0 0 0 2.43-2.5v-1.67a2.5 2.5 0 0 0-1.43-2.28.9.9 0 0 0-.16-1.64 1.4 1.4 0 0 0 .07-.4 38.46 38.46 0 0 0 5.5.35c4.07 0 7.37-.45 7.37-1s-3.32-1-7.4-1z" transform="translate(-88.62 -69.46)"/><circle cx="444.78" cy="266.1" r="4.59" fill="#6c63ff"/><circle cx="444.78" cy="266.1" r="3.09" fill="#6c63ff"/><circle cx="444.78" cy="266.1" r="3.09" fill="#f5f5f5" opacity=".2"/><circle cx="444.78" cy="266.1" r="2.03" fill="#6c63ff"/><circle cx="444.78" cy="266.1" r="2.03" opacity=".25"/><path fill="#6c63ff" d="M437.63 259.27s-6.2 5.44-5.33 16.2c0 0 .75 1.4 2.67 0 0 0-1.6-13.64 9.06-16.2zM451.92 259.27s6.2 5.44 5.33 16.2c0 0-.75 1.4-2.67 0 0 0 1.6-13.64-9.06-16.2z"/><rect width="18.77" height="10.4" x="435.02" y="250" fill="#6c63ff" rx="4.38" ry="4.38"/><path fill="#6c63ff" d="M438.1 258.03l-14.65-.4a2.2 2.2 0 0 1-2.13-2.2v-.57a2.2 2.2 0 0 1 2.1-2.2l14.64-.65a2.2 2.2 0 0 1 2.3 2.2v1.63a2.2 2.2 0 0 1-2.27 2.2zM451.38 258.03l14.64-.4a2.2 2.2 0 0 0 2.13-2.2v-.57a2.2 2.2 0 0 0-2.1-2.2l-14.67-.64a2.2 2.2 0 0 0-2.3 2.2v1.62a2.2 2.2 0 0 0 2.3 2.2z"/><path fill="#f5f5f5" d="M438.1 258.03l-14.65-.4a2.2 2.2 0 0 1-2.13-2.2v-.57a2.2 2.2 0 0 1 2.1-2.2l14.64-.65a2.2 2.2 0 0 1 2.3 2.2v1.63a2.2 2.2 0 0 1-2.27 2.2zM451.38 258.03l14.64-.4a2.2 2.2 0 0 0 2.13-2.2v-.57a2.2 2.2 0 0 0-2.1-2.2l-14.67-.64a2.2 2.2 0 0 0-2.3 2.2v1.62a2.2 2.2 0 0 0 2.3 2.2z" opacity=".2"/><rect width="5.65" height="6.29" x="416.84" y="251.7" fill="#6c63ff" rx="2.38" ry="2.38"/><rect width="5.65" height="6.29" x="467.07" y="251.7" fill="#6c63ff" rx="2.38" ry="2.38"/><rect width="3.41" height="1.71" x="418.01" y="250.32" fill="#6c63ff" rx=".72" ry=".72"/><rect width="2.56" height="3.84" x="418.33" y="247.44" fill="#6c63ff" rx="1.08" ry="1.08"/><ellipse cx="413" cy="249.36" fill="#6c63ff" rx="7.15" ry=".96"/><ellipse cx="426.22" cy="249.36" fill="#6c63ff" rx="7.15" ry=".96"/><rect width="3.41" height="1.71" x="468.35" y="250.32" fill="#6c63ff" rx=".72" ry=".72"/><rect width="2.56" height="3.84" x="468.67" y="247.44" fill="#6c63ff" rx="1.08" ry="1.08"/><ellipse cx="463.33" cy="249.36" fill="#6c63ff" rx="7.15" ry=".96"/><ellipse cx="476.56" cy="249.36" fill="#6c63ff" rx="7.15" ry=".96"/><ellipse cx="413" cy="249.36" fill="#f5f5f5" rx="7.15" ry=".96" opacity=".2"/><ellipse cx="426.22" cy="249.36" fill="#f5f5f5" rx="7.15" ry=".96" opacity=".2"/><ellipse cx="463.33" cy="249.36" fill="#f5f5f5" rx="7.15" ry=".96" opacity=".2"/><ellipse cx="476.56" cy="249.36" fill="#f5f5f5" rx="7.15" ry=".96" opacity=".2"/><rect width="8.53" height="3.41" x="440.51" y="258.42" fill="#6c63ff" rx="1.44" ry="1.44"/><rect width="8.53" height="3.41" x="440.51" y="258.42" fill="#f5f5f5" rx="1.44" ry="1.44" opacity=".2"/></g><g opacity=".3"><path fill="url(#e)" d="M424.67 276.25a30.66 30.66 0 0 0-4.38.27 1.05 1.05 0 1 0-2.1 0 30.66 30.66 0 0 0-4.4-.27c-3.23 0-5.87.36-5.87.8s2.63.82 5.88.82a30.66 30.66 0 0 0 4.4-.27 1.1 1.1 0 0 0 .06.38.73.73 0 0 0-.07 1.17 2 2 0 0 0-1.16 1.1 1.77 1.77 0 0 0-1-.4l-10.92-.5a4.23 4.23 0 0 0-3.42-1.75h-6.88a4.23 4.23 0 0 0-3.44 1.8l-10.38.47a1.76 1.76 0 0 0-.94.33 2 2 0 0 0-1-1 .72.72 0 0 0 .32-.6.72.72 0 0 0-.48-.68 1.1 1.1 0 0 0 0-.3 30.66 30.66 0 0 0 4.38.26c3.24 0 5.88-.36 5.88-.8s-2.63-.82-5.88-.82a30.66 30.66 0 0 0-4.38.27 1.07 1.07 0 0 0-1.05-1.08 1.07 1.07 0 0 0-1.05 1.08 30.66 30.66 0 0 0-4.38-.27c-3.24 0-5.88.36-5.88.8s2.63.82 5.88.82a30.66 30.66 0 0 0 4.38-.27 1.1 1.1 0 0 0 .07.4.73.73 0 0 0 0 1.18 2 2 0 0 0-1.25 1.86v1.33a2 2 0 0 0 1.94 2h.77a1.92 1.92 0 0 0 1.55-.8 1.77 1.77 0 0 0 1.18.5l10.18.28a4.36 4.36 0 0 0 1.26 1.32c-1 1-4.77 5.53-4.16 13.48 0 0 .6 1.17 2.2 0 0 0-1-8.86 4.63-12.5a1.4 1.4 0 0 0 1.32 1h.7a3.88 3.88 0 0 0-2.38 3.6 3.77 3.77 0 1 0 7.54 0 3.88 3.88 0 0 0-2.4-3.6h.73a1.4 1.4 0 0 0 1.3-1c5.66 3.64 4.65 12.5 4.65 12.5 1.58 1.17 2.2 0 2.2 0 .7-9.1-4.4-13.7-4.4-13.7h-.08a4.38 4.38 0 0 0 1-1.08l10.7-.3a1.78 1.78 0 0 0 1.24-.55 1.92 1.92 0 0 0 1.6.85h.77a2 2 0 0 0 1.94-2V281a2 2 0 0 0-1.14-1.82.72.72 0 0 0-.12-1.3 1.1 1.1 0 0 0 0-.32 30.66 30.66 0 0 0 4.38.27c3.24 0 5.88-.36 5.88-.8s-2.7-.78-5.93-.78z" transform="translate(-88.62 -69.46)"/><circle cx="309.62" cy="221.55" r="3.66" fill="#6c63ff"/><circle cx="309.62" cy="221.55" r="2.47" fill="#6c63ff"/><circle cx="309.62" cy="221.55" r="2.47" fill="#f5f5f5" opacity=".2"/><circle cx="309.62" cy="221.55" r="1.62" fill="#6c63ff"/><circle cx="309.62" cy="221.55" r="1.62" opacity=".25"/><path fill="#6c63ff" d="M303.92 216.1s-4.93 4.35-4.25 12.93c0 0 .6 1.1 2.13 0 0 0-1.28-10.88 7.23-12.92zM315.32 216.1s4.93 4.35 4.25 12.93c0 0-.6 1.1-2.13 0 0 0 1.28-10.88-7.23-12.92z"/><rect width="14.96" height="8.29" x="301.84" y="208.71" fill="#6c63ff" rx="2.23" ry="2.23"/><path fill="#6c63ff" d="M304.3 215.12l-11.68-.33a1.75 1.75 0 0 1-1.7-1.76v-.45a1.75 1.75 0 0 1 1.67-1.76l11.66-.52a1.75 1.75 0 0 1 1.83 1.75v1.3a1.75 1.75 0 0 1-1.8 1.75zM314.86 215.12l11.67-.33a1.75 1.75 0 0 0 1.7-1.76v-.45a1.75 1.75 0 0 0-1.67-1.76l-11.67-.52a1.75 1.75 0 0 0-1.84 1.75v1.3a1.75 1.75 0 0 0 1.8 1.75z"/><path fill="#f5f5f5" d="M304.3 215.12l-11.68-.33a1.75 1.75 0 0 1-1.7-1.76v-.45a1.75 1.75 0 0 1 1.67-1.76l11.66-.52a1.75 1.75 0 0 1 1.83 1.75v1.3a1.75 1.75 0 0 1-1.8 1.75zM314.86 215.12l11.67-.33a1.75 1.75 0 0 0 1.7-1.76v-.45a1.75 1.75 0 0 0-1.67-1.76l-11.67-.52a1.75 1.75 0 0 0-1.84 1.75v1.3a1.75 1.75 0 0 0 1.8 1.75z" opacity=".2"/><rect width="4.51" height="5.02" x="287.35" y="210.07" fill="#6c63ff" rx="1.21" ry="1.21"/><rect width="4.51" height="5.02" x="327.39" y="210.07" fill="#6c63ff" rx="1.21" ry="1.21"/><rect width="2.72" height="1.36" x="288.28" y="208.97" fill="#6c63ff" rx=".37" ry=".37"/><rect width="2.04" height="3.06" x="288.54" y="206.67" fill="#6c63ff" rx=".55" ry=".55"/><ellipse cx="284.29" cy="208.2" fill="#6c63ff" rx="5.7" ry=".77"/><ellipse cx="294.83" cy="208.2" fill="#6c63ff" rx="5.7" ry=".77"/><rect width="2.72" height="1.36" x="328.41" y="208.97" fill="#6c63ff" rx=".37" ry=".37"/><rect width="2.04" height="3.06" x="328.66" y="206.67" fill="#6c63ff" rx=".55" ry=".55"/><ellipse cx="324.41" cy="208.2" fill="#6c63ff" rx="5.7" ry=".77"/><ellipse cx="334.96" cy="208.2" fill="#6c63ff" rx="5.7" ry=".77"/><ellipse cx="284.29" cy="208.2" fill="#f5f5f5" rx="5.7" ry=".77" opacity=".2"/><ellipse cx="294.83" cy="208.2" fill="#f5f5f5" rx="5.7" ry=".77" opacity=".2"/><ellipse cx="324.41" cy="208.2" fill="#f5f5f5" rx="5.7" ry=".77" opacity=".2"/><ellipse cx="334.96" cy="208.2" fill="#f5f5f5" rx="5.7" ry=".77" opacity=".2"/><rect width="6.8" height="2.72" x="306.22" y="215.43" fill="#6c63ff" rx=".73" ry=".73"/><rect width="6.8" height="2.72" x="306.22" y="215.43" fill="#f5f5f5" rx=".73" ry=".73" opacity=".2"/></g><g opacity=".3"><path fill="url(#f)" d="M412.55 397.18a53.4 53.4 0 0 0-7.63.47 1.83 1.83 0 1 0-3.66 0 53.4 53.4 0 0 0-7.63-.47c-5.65 0-10.23.63-10.23 1.4S388 400 393.62 400a53.4 53.4 0 0 0 7.63-.47 1.92 1.92 0 0 0 .12.66 1.26 1.26 0 0 0-.12 2 3.42 3.42 0 0 0-2 1.9 3.08 3.08 0 0 0-1.76-.67l-19-.88a7.37 7.37 0 0 0-6-3.07h-12a7.37 7.37 0 0 0-6 3.1l-18.08.84a3.07 3.07 0 0 0-1.64.57 3.43 3.43 0 0 0-1.76-1.75 1.26 1.26 0 0 0 .55-1.05 1.25 1.25 0 0 0-.84-1.2 1.93 1.93 0 0 0 .08-.53 53.4 53.4 0 0 0 7.64.47c5.65 0 10.23-.63 10.23-1.4s-4.58-1.42-10.23-1.42a53.4 53.4 0 0 0-7.63.47 1.86 1.86 0 0 0-1.82-1.9 1.86 1.86 0 0 0-1.83 1.9 53.4 53.4 0 0 0-7.63-.48c-5.65 0-10.23.63-10.23 1.4s4.6 1.48 10.25 1.48a53.4 53.4 0 0 0 7.63-.47 1.92 1.92 0 0 0 .12.66 1.27 1.27 0 0 0-.07 2.06 3.47 3.47 0 0 0-2.18 3.24v2.32a3.42 3.42 0 0 0 3.38 3.47h1.34a3.34 3.34 0 0 0 2.7-1.4 3.1 3.1 0 0 0 2 .85l17.73.5a7.6 7.6 0 0 0 2.2 2.3c-1.7 1.78-8.3 9.64-7.25 23.48 0 0 1.07 2 3.82 0 0 0-1.76-15.42 8.08-21.78a2.45 2.45 0 0 0 2.3 1.7h1.27a6.75 6.75 0 0 0-4.16 6.27 6.57 6.57 0 1 0 13.13 0 6.75 6.75 0 0 0-4.17-6.28h1.26a2.45 2.45 0 0 0 2.3-1.7c9.84 6.36 8.08 21.8 8.08 21.8 2.75 2 3.82 0 3.82 0 1.22-15.86-7.63-23.87-7.63-23.87h-.16a7.62 7.62 0 0 0 1.67-1.9l18.65-.53a3.1 3.1 0 0 0 2.14-.95 3.34 3.34 0 0 0 2.77 1.48h1.34a3.42 3.42 0 0 0 3.38-3.47v-2.3a3.47 3.47 0 0 0-2-3.18 1.26 1.26 0 0 0-.22-2.28 1.93 1.93 0 0 0 .08-.54 53.4 53.4 0 0 0 7.64.47c5.65 0 10.23-.63 10.23-1.4s-4.57-1.4-10.22-1.4z" transform="translate(-88.62 -69.46)"/><circle cx="277.92" cy="353.42" r="6.37" fill="#6c63ff"/><circle cx="277.92" cy="353.42" r="4.29" fill="#6c63ff"/><circle cx="277.92" cy="353.42" r="4.29" fill="#f5f5f5" opacity=".2"/><circle cx="277.92" cy="353.42" r="2.81" fill="#6c63ff"/><circle cx="277.92" cy="353.42" r="2.81" opacity=".25"/><path fill="#6c63ff" d="M268 343.94s-8.6 7.55-7.4 22.5c0 0 1 1.92 3.7 0 0 0-2.23-18.95 12.57-22.5zM287.83 343.94s8.6 7.55 7.4 22.5c0 0-1 1.92-3.7 0 0 0 2.22-18.95-12.58-22.5z"/><rect width="26.05" height="14.43" x="264.37" y="331.07" fill="#6c63ff" rx="6.07" ry="6.07"/><path fill="#6c63ff" d="M268.64 342.22l-20.33-.57a3 3 0 0 1-3-3v-.78a3 3 0 0 1 2.92-3l20.33-.9a3 3 0 0 1 3.2 3v2.25a3 3 0 0 1-3.1 3zM287.04 342.22l20.33-.57a3 3 0 0 0 3-3v-.78a3 3 0 0 0-2.9-3l-20.34-.9a3 3 0 0 0-3.2 3v2.25a3 3 0 0 0 3.1 3z"/><path fill="#f5f5f5" d="M268.64 342.22l-20.33-.57a3 3 0 0 1-3-3v-.78a3 3 0 0 1 2.92-3l20.33-.9a3 3 0 0 1 3.2 3v2.25a3 3 0 0 1-3.1 3zM287.04 342.22l20.33-.57a3 3 0 0 0 3-3v-.78a3 3 0 0 0-2.9-3l-20.34-.9a3 3 0 0 0-3.2 3v2.25a3 3 0 0 0 3.1 3z" opacity=".2"/><rect width="7.85" height="8.73" x="239.13" y="333.43" fill="#6c63ff" rx="3.3" ry="3.3"/><rect width="7.85" height="8.73" x="308.86" y="333.43" fill="#6c63ff" rx="3.3" ry="3.3"/><rect width="4.74" height="2.37" x="240.76" y="331.51" fill="#6c63ff" rx="1" ry="1"/><rect width="3.55" height="5.33" x="241.2" y="327.51" fill="#6c63ff" rx="1.5" ry="1.5"/><ellipse cx="233.8" cy="330.18" fill="#6c63ff" rx="9.92" ry="1.33"/><ellipse cx="252.16" cy="330.18" fill="#6c63ff" rx="9.92" ry="1.33"/><rect width="4.74" height="2.37" x="310.63" y="331.51" fill="#6c63ff" rx="1" ry="1"/><rect width="3.55" height="5.33" x="311.08" y="327.51" fill="#6c63ff" rx="1.5" ry="1.5"/><ellipse cx="303.67" cy="330.18" fill="#6c63ff" rx="9.92" ry="1.33"/><ellipse cx="322.03" cy="330.18" fill="#6c63ff" rx="9.92" ry="1.33"/><ellipse cx="233.8" cy="330.18" fill="#f5f5f5" rx="9.92" ry="1.33" opacity=".2"/><ellipse cx="252.16" cy="330.18" fill="#f5f5f5" rx="9.92" ry="1.33" opacity=".2"/><ellipse cx="303.67" cy="330.18" fill="#f5f5f5" rx="9.92" ry="1.33" opacity=".2"/><ellipse cx="322.03" cy="330.18" fill="#f5f5f5" rx="9.92" ry="1.33" opacity=".2"/><rect width="11.84" height="4.74" x="271.99" y="342.76" fill="#6c63ff" rx="1.99" ry="1.99"/><rect width="11.84" height="4.74" x="271.99" y="342.76" fill="#f5f5f5" rx="1.99" ry="1.99" opacity=".2"/></g><ellipse cx="538.74" cy="535.43" rx="82.71" ry="12.46" opacity=".03"/><ellipse cx="767.74" cy="724.43" fill="#6c63ff" rx="243.26" ry="36.66" opacity=".1"/><ellipse cx="443.95" cy="302.29" rx="23.11" ry="3.48" opacity=".03"/><ellipse cx="319.73" cy="524.32" rx="59.63" ry="8.99" opacity=".03"/><ellipse cx="283.58" cy="391.28" rx="34.35" ry="5.18" opacity=".03"/><ellipse cx="310.12" cy="247.13" rx="19.73" ry="2.97" opacity=".03"/><path fill="none" stroke="#fc6681" stroke-width="2" stroke-miterlimit="10" d="M73.7 509.36s27.2 53.4 5 82.63 2 108.8 2 108.8"/><path fill="#fc6681" d="M81.77 492.73c0 10.3-7.56 18.64-7.56 18.64s-7.55-8.35-7.55-18.64 7.56-18.64 7.56-18.64 7.57 8.33 7.57 18.63z"/><path fill="none" stroke="#ffd037" stroke-width="2" stroke-miterlimit="10" d="M87.8 509.36s-27.2 53.4-5 82.63-2 108.8-2 108.8"/><path fill="#ffd037" d="M79.75 492.73c0 10.3 7.56 18.64 7.56 18.64s7.57-8.35 7.57-18.64-7.56-18.64-7.56-18.64-7.55 8.33-7.55 18.63z"/><path fill="none" stroke="#fc6681" stroke-width="2" stroke-miterlimit="10" d="M98.9 509.36s27.2 53.4 5 82.63 2 108.8 2 108.8"/><path fill="#fc6681" d="M106.96 492.73c0 10.3-7.56 18.64-7.56 18.64s-7.56-8.35-7.56-18.64 7.54-18.64 7.54-18.64 7.58 8.33 7.58 18.63zM102.72 535.54c-7.14 7.42-18.37 8.2-18.37 8.2s.34-11.26 7.48-18.68 18.37-8.2 18.37-8.2-.34 11.24-7.48 18.68zM103.38 572.36c-7.14 7.42-18.37 8.2-18.37 8.2s.35-11.26 7.5-18.68 18.36-8.2 18.36-8.2-.3 11.26-7.48 18.68zM64.72 592.63c6.75 7.77 6.5 19 6.5 19s-11.17-1.35-17.92-9.12-6.5-19-6.5-19 11.17 1.36 17.92 9.13zM70.98 514.06c8.58 5.7 11.36 16.6 11.36 16.6s-11.13 1.7-19.7-4-11.37-16.6-11.37-16.6 11.1-1.7 19.7 4z"/><path fill="none" stroke="#ffd037" stroke-width="2" stroke-miterlimit="10" d="M113 509.36s-27.2 53.4-5 82.63-2 108.8-2 108.8"/><path fill="#ffd037" d="M104.94 492.73c0 10.3 7.56 18.64 7.56 18.64s7.56-8.35 7.56-18.64-7.56-18.64-7.56-18.64-7.56 8.33-7.56 18.63zM107.12 536.3c-7.23 7.34-7.7 18.6-7.7 18.6s11.24-.65 18.47-8 7.7-18.6 7.7-18.6-11.22.68-18.48 8zM121.3 587.32c-7.24 7.33-7.7 18.58-7.7 18.58s11.23-.64 18.46-8 7.7-18.58 7.7-18.58-11.25.67-18.47 8z"/><path fill="none" stroke="#ffd037" stroke-width="2" stroke-miterlimit="10" d="M100.44 576.1s16.38-25.8 39.36-26.36"/><path fill="none" stroke="#fc6681" stroke-width="2" stroke-miterlimit="10" d="M87.7 560.54s-16.4-25.8-39.37-26.37"/><path fill="none" stroke="#ffd037" stroke-width="2" stroke-miterlimit="10" d="M85.56 597.37s16.38-25.8 39.36-26.37"/><circle cx="139.05" cy="549.55" r="4.25" fill="#ffd037"/><circle cx="48.72" cy="534.31" r="4.25" fill="#fc6681"/><path fill="none" stroke="#fc6681" stroke-width="2" stroke-miterlimit="10" d="M97.6 605.87s-16.37-25.82-39.36-26.33"/><circle cx="58.64" cy="579.66" r="4.25" fill="#fc6681"/><circle cx="125.24" cy="571.16" r="4.25" fill="#ffd037"/><path fill="#a8a8a8" d="M188.13 669.8s-39.47-7.9-50-18.42-57.88-28.94-63.14-15.8-71 57.9-26.32 65.8 105.24 10.5 118.4 5.25 21.05-36.83 21.05-36.83z"/><path d="M48.68 696.48c44.73 7.9 105.24 10.52 118.4 5.26 10-4 17-23.26 19.73-32.22l1.33.27s-7.9 31.56-21 36.82-73.67 2.63-118.4-5.26c-12.9-2.28-16.6-7.63-15.2-14.4 1.05 4.43 5.54 7.83 15.15 9.52z" opacity=".2"/><path fill="#fc6681" d="M920.68 544.13s10.42 13.63-4.8 34.2-27.8 37.94-22.72 50.77c0 0 23-38.2 41.68-38.75s6.42-23.24-14.16-46.22z"/><path d="M920.68 544.13a16.88 16.88 0 0 1 2.13 4.27c18.26 21.44 28 41.45 10.44 42-16.34.47-35.94 29.7-40.64 37.07a15.84 15.84 0 0 0 .56 1.68s23-38.2 41.68-38.75 6.42-23.3-14.16-46.27z" opacity=".1"/><path fill="#ffd037" d="M940.05 561.54c0 4.8-.54 8.68-1.2 8.68s-1.2-3.9-1.2-8.68.67-2.54 1.34-2.54 1.05-2.3 1.05 2.54zM946.7 567.22c-4.2 2.3-7.88 3.68-8.2 3.1s2.84-2.92 7-5.2 2.55-.63 2.87 0 2.54-.2-1.67 2.1z"/><path fill="#fc6681" d="M865.64 544.13s-10.42 13.63 4.8 34.2 27.8 37.94 22.72 50.77c0 0-23-38.2-41.68-38.75s-6.42-23.24 14.16-46.22z"/><path d="M865.64 544.13a16.88 16.88 0 0 0-2.13 4.27c-18.24 21.44-28 41.45-10.42 42 16.34.47 35.94 29.7 40.64 37.07a15.84 15.84 0 0 1-.56 1.68s-23-38.2-41.68-38.75-6.42-23.3 14.16-46.27z" opacity=".1"/><path fill="#ffd037" d="M846.26 561.54c0 4.8.54 8.68 1.2 8.68s1.2-3.9 1.2-8.68-.67-2.54-1.34-2.54-1.06-2.3-1.06 2.54zM839.62 567.22c4.2 2.3 7.88 3.68 8.2 3.1s-2.84-2.92-7-5.2-2.55-.63-2.87 0-2.57-.2 1.67 2.1z"/><path fill="#a8a8a8" d="M849.58 627.32s29.14-.9 37.92-7.15 44.82-13.72 47-3.7 43.8 49.88 10.9 50.15-76.44-5.12-85.2-10.46-10.62-28.84-10.62-28.84z"/><path d="M945.98 663.12c-32.9.27-76.43-5.12-85.2-10.46-6.67-4.07-9.33-18.65-10.22-25.38h-1s1.85 23.5 10.6 28.84 52.3 10.73 85.2 10.46c9.5-.08 12.8-3.45 12.6-8.46-1.3 3.06-4.92 4.95-11.98 5z" opacity=".2"/><path fill="url(#g)" d="M500.22 165.18c-2.83-4.62-7.06-8.85-6.4-14.1 7.76.9 15.12-1 22.23-4.27s13.7-7.56 20.36-11.75c2.63-1.65 5.24-3.27 7.84-4.77 4.12-2.37 8.2-5 12.4-7.3 6-3.3 12.13-6 18.86-6.53 1.2-.1 2.44-.1 3.67-.1 8.3.18 16.9 2.4 24.2-1.32l.45-.24c4.13-2.28 7.15-6.15 10.7-9.27a47.7 47.7 0 0 1 8.3-5.76c5.37-3 11.2-5.4 16.73-8.23a26.3 26.3 0 0 0 4-2.57l.94-.75.2-.18.68-.58.43-.38.45-.4.34-.32.54-.52.06-.06.88-.87.35-.34.6-.62.37-.37 1.84-1.9c.72-.72 1.46-1.44 2.22-2.14l.72-.64.2-.2.6-.48.27-.23.57-.45.28-.22.86-.62a6.06 6.06 0 0 1 .84-.47l-1.8-4.56 5.38-2.22 74.2 180.05-5.4 2.22-42.44-103-.3.3a85.3 85.3 0 0 1-35.1 20.88h-.07c-7.4 2.23-15.66 3.8-21.88 8a21 21 0 0 0-5.66 5.4c-1.46 2.1-2.48 4.46-4.05 6.46-.3.37-.62.73-.94 1.07a34.73 34.73 0 0 1-6 4.75l-1 .65a194.5 194.5 0 0 1-20.1 12.4 79.13 79.13 0 0 1-12.5 5.2c-3.12 1-6.35 1.73-9.48 2.72a36.87 36.87 0 0 0-6.12 2.46c-5.3 2.78-9.37 7.12-13.22 11.75-3.37 4.06-6.57 8.35-10.27 12.05-2.3 2.3-5.84 4.48-8.65 3.13a4.82 4.82 0 0 1-.56-.33c.08-.15.16-.3.23-.46 2.2-4.63-.52-10.35-4.18-14.07-.38-.38-.77-.76-1.17-1.13s-1.1-1-1.7-1.5c-3.12-2.7-6.45-5.2-8.62-8.66a28.4 28.4 0 0 1-3.32-9.4c-1-4.72-1.65-9.57-4.2-13.58-1.7-2.65-4.2-4.9-6-7.45a11.26 11.26 0 0 1-2.2-5.13c-.42-3.26 1.1-6.44 1.66-9.68a12 12 0 0 0 .2-2.68 14.15 14.15 0 0 0-2.34-6.68z" transform="translate(-88.62 -69.46)"/><path fill="#d6d8e1" d="M644.62 178.54l-5.3 2.18-72.95-177.1 5.3-2.2z"/><path fill="#e6e8ed" d="M422.07 126.73c2.52 3.94 3.18 8.7 4.15 13.34a27.93 27.93 0 0 0 3.27 9.25c2.13 3.4 5.4 5.88 8.47 8.52.56.48 1.12 1 1.66 1.47s.78.74 1.15 1.12c3.6 3.65 6.27 9.27 4.1 13.83-.07.15-.14.3-.23.45a4.74 4.74 0 0 0 .55.32c2.76 1.33 6.23-.8 8.5-3.08 3.64-3.64 6.8-7.86 10.1-11.85 3.78-4.57 7.8-8.83 13-11.56a36.25 36.25 0 0 1 6-2.42c3.07-1 6.25-1.7 9.33-2.68a77.8 77.8 0 0 0 12.3-5.1 191.24 191.24 0 0 0 19.75-12.2l.94-.64a34.15 34.15 0 0 0 5.9-4.67c.32-.34.63-.7.9-1.05 1.55-2 2.56-4.3 4-6.34a20.67 20.67 0 0 1 5.57-5.32c6.1-4.07 14.23-5.63 21.5-7.82h.08a83.86 83.86 0 0 0 34.5-20.53 5.57 5.57 0 0 0 1.73-2.54c.32-1.4-.44-2.8-1.17-4q-1.28-2.18-2.5-4.4a196.66 196.66 0 0 1-9.86-20.74c-.63-1.56-1.24-3.12-1.83-4.7q-2.27-6-4.14-12.16c-.4-1.37-.8-2.73-1.2-4.1-.06-.27-.13-.55-.2-.85-1.67-6.76-3.9-22.33-10.72-17.66a38.7 38.7 0 0 0-5.65 4.9c-1.33 1.35-2.63 2.74-4 4.08a39.53 39.53 0 0 1-3.53 3.1 25.88 25.88 0 0 1-4 2.5c-5.42 2.8-11.17 5.12-16.46 8.1a46.92 46.92 0 0 0-8.15 5.66c-3.5 3.08-6.47 6.88-10.53 9.1l-.45.24c-7.18 3.66-15.63 1.47-23.8 1.3-1.2 0-2.4 0-3.6.1-6.62.5-12.68 3.16-18.54 6.4-4.12 2.28-8.14 4.86-12.2 7.2-2.55 1.46-5.1 3.05-7.7 4.68-6.54 4.12-13.16 8.45-20 11.56s-14.22 5.1-21.85 4.2c-.65 5.16 3.5 9.32 6.3 13.87a13.9 13.9 0 0 1 2.34 6.56 11.74 11.74 0 0 1-.2 2.62c-.56 3.2-2 6.3-1.64 9.52a11.07 11.07 0 0 0 2.16 5c1.76 2.56 4.18 4.8 5.87 7.4z"/><path fill="#5a5773" d="M554.48 20.72l5.58 13.25 18.32-7.72c-1.65-6.7-3.87-22.28-10.7-17.6-4.95 3.37-8.3 8.3-13.2 12.07zM515.38 46.1l2.38 5.66 21.14-8.9-4.86-11.54a46.92 46.92 0 0 0-8.15 5.66c-3.52 3.1-6.45 6.9-10.52 9.12zM469 54.14l6.5 15.4 21.13-8.9-5.48-13c-1.2 0-2.42 0-3.6.1-6.63.5-12.7 3.15-18.55 6.4zM429.08 77.54l4.12 9.78 21.14-8.9-5.24-12.44c-6.54 4.16-13.17 8.48-20.02 11.56zM568.76 55.14l-21.15 8.9-8.9-21.15 21.16-8.9zM526.48 72.92l-21.15 8.9-8.9-21.15 21.15-8.9zM484.2 90.7l-21.14 8.9-8.9-21.14 21.15-8.9zM415.67 104.84l5.3 12.56 21.13-8.9-8.9-21.14-19.68 8.28a13.9 13.9 0 0 1 2.35 6.56 11.74 11.74 0 0 1-.2 2.64zM568.96 55.1l8.9 21.15 17.78-7.48a196.66 196.66 0 0 1-9.87-20.74zM556.52 85.17l-21.15 8.9-8.9-21.15 21.15-8.9zM514.23 102.95l-21.15 8.9-8.9-21.15 21.15-8.9zM471.96 120.75l-21.15 8.9-8.9-21.15 21.16-8.9zM556.7 85.15l6.38 15.13a83.86 83.86 0 0 0 20.84-9.62l-6.07-14.42zM514.38 102.95l8.9 21.14 7.7-3.26c.33-.34.64-.7.92-1.05 1.54-2 2.55-4.3 4-6.35a20.67 20.67 0 0 1 5.56-5.32l-5.92-14.08zM502 132.98l-21.15 8.9-8.9-21.15 21.15-8.9zM429.85 138.54l8.12 19.3c.56.48 1.12 1 1.66 1.47l20.26-8.52-8.9-21.14zM426.22 140.07l3.63-1.53-8.9-21.14-4.77 2c1.77 2.5 4.22 4.72 5.88 7.32 2.53 3.95 3.2 8.72 4.16 13.35zM502.18 133l2.25 5.35a191.24 191.24 0 0 0 19.76-12.2l-.88-2.06zM459.9 150.8l3.92 9.3c3.78-4.56 7.8-8.82 13-11.55a36.25 36.25 0 0 1 6-2.42l-1.8-4.24z"/><path fill="url(#h)" d="M720.5 252.37l5.44 58.1s6.4 12.12 13.8 16c5.08 2.66 15 11 20.74 16l1.26 1.1c-.5 1.44-.78 2.32-.78 2.32s19.73 38.73 32.06 44.54 3.95 54.72 4.44 77.48c.34 15.9 5.74 24.7 11.66 29.06-.2.32-.42.65-.62 1-8.76 14.57-12.3 46.4-8.57 61a9 9 0 0 0 .76 2c-2.2 12-4.38 31.45 2.2 40.16 9.86 13.07 21.2 66.34 21.2 66.34s7.4 37.3 12.82 43.58c3.94 4.57 3.72 44.8 3.3 66.56a78.1 78.1 0 0 1-8.73-.7c-23.5-3.13-2.65 11.1 6.27 16.7-4 2.56-11.3 4.5-25 2.67-18.8-2.5-9.2 6.1 0 12.5a36.6 36.6 0 0 0 20.23 6.45l68 1.26a106 106 0 0 0 .7-19.7l18 .34s2.14-15.6-.17-25.5l1.15-.17-8.88-69.25s-.5-63.92 1-67.8c4.47-11.7 2-30.27-1-44.22a91.4 91.4 0 0 1-.73-35.2c5.17-29-2.37-51.5-7.5-62.6-.24-.5-.47-1-.7-1.46 3.08.06 5 .16 5 .16-9.37-6.78 1-69.25 10.36-82.32S948.9 403 948.9 403a38.43 38.43 0 0 0 5.33-5.33h1.05c7.68.2 18.44.25 29.6-.5 21.22-1.46 16.3-16 16.3-16l-8.4-57.17s-21.2-47.94-27.12-33.9 10.85 36.32 10.85 36.32 7.4 37.77 0 43.1c-4.67 3.37-12.42 1.24-17.5-.77-1.58-.63-2.9-1.25-3.8-1.7l-1.15-.6c-8-4-28.48-11.54-37.2-11.93-10.86-.48-31.58-7.26-31.58-7.26-1.67-5.75-6.45-9.23-11.4-11.34a106 106 0 0 1-.8-15.36 7.83 7.83 0 0 0 1.8-1.4 5.32 5.32 0 0 0 .94-1c1.52-2.25.78-5.36 2.06-7.73.23-.42-3.05-3.17-2.73-3.52 2-1.75 4.9-2.7 6.62-4.58a5.47 5.47 0 0 0 1.56-2.17c1.36-3.6 1.43-4.8 1-8.6-.32-3.37.7-6 .2-8.85 1.87-1.7 2.76-3.73.73-5.75-3.73-3.72-14-4.6-19-4.87-3.92-.22-7.93 0-11.67-1.15-4.36-1.36-7.9-4.47-11.86-6.72s-9.1-3.6-13-1.26c-3 1.8-5 5.56-8.5 5.8-2.9.18-5.77-2.28-8.5-1.28l.15.32a3.82 3.82 0 0 0-.63.17 37.1 37.1 0 0 0 16 18 24.74 24.74 0 0 0-4.4 14.12 25.06 25.06 0 0 0 12 21.33.2.2 0 0 0 0 .06l.14 1.56a57.4 57.4 0 0 1-.46 12.72l-.93 1.27c-2.28 1.13-3.65 2-3.65 2a100.05 100.05 0 0 0-19.73-4.35c-9.88-1-33-15-33-15a5.94 5.94 0 0 0-1.25.27l-.7-.7a38 38 0 0 0-18.78-9.74s-1.23-3.63-3.95-10.17c-1.9-4.56-13.8-30-13.8-30s-4.94-20.33-3.96-30.5-15.25-29.53-17.76-27.1-4.4 31 2.5 40.67zM862.8 574.25l.28.13c.7.4 1.33 2.58 1.94 6 2.12 12.1 3.73 39.8 4.75 61.72.2 4.16.36 8.1.5 11.7-2.43-11.2-5-23.5-5.2-27.18-.34-4.68-1.5-33.17-2.27-52.37z" transform="translate(-88.62 -69.46)"/><path fill="#4a4347" d="M772.38 695.67s-.48 12.9-28.67 9.08 9.57 18.64 9.57 18.64l76 1.42s4.47-33-6.7-33c-.48.03-50.2 3.85-50.2 3.85z"/><path d="M772.38 695.67s-.48 12.9-28.67 9.08 9.57 18.64 9.57 18.64l76 1.42s4.47-33-6.7-33c-.48.03-50.2 3.85-50.2 3.85z" opacity=".1"/><path fill="#5a5773" d="M713.13 489.7a9.58 9.58 0 0 0 2.27 4.15c11.07 12.25 54.55 8.54 58.9 11.14.66.4 1.3 2.54 1.88 6 2.05 11.93 3.62 39.28 4.6 60.9.76 16.8 1.17 30.13 1.17 30.13l2.43 104.64 28.14-4.4 17.7-2.73-8.6-68.34s-.48-63.08 1-66.9c4.34-11.58 1.92-30-1-43.74a91.13 91.13 0 0 1-.7-34.6c5-28.68-2.3-50.88-7.26-61.83a59.8 59.8 0 0 0-4-7.5s-70.25-1-82.68 6.7a17.73 17.73 0 0 0-5.55 6.23c-8.47 14.33-11.9 45.75-8.3 60.14z"/><path fill="#4a4347" d="M754.23 714.8s-.48 12.9-28.67 9.07c-18.2-2.47-8.9 6 0 12.35a35 35 0 0 0 19.68 6.48l65.9 1.24s4.47-33-6.7-33c-.5.03-50.2 3.85-50.2 3.85z"/><path fill="#a1616a" d="M852.68 330.08s4.3.32 11 .5c7.44.22 17.87.26 28.7-.5 20.54-1.43 15.76-15.77 15.76-15.77l-8.12-56.38s-20.55-47.3-26.28-33.45 10.5 35.84 10.5 35.84 7.18 37.3 0 42.54c-4.53 3.33-12 1.23-17-.76a44.5 44.5 0 0 1-4.8-2.27zM636.2 187.2l5.25 57.34s6.2 11.95 13.38 15.77c4.9 2.63 14.5 10.84 20.1 15.76 2.56 2.27 4.28 3.84 4.28 3.84l14.35-22.94a27.67 27.67 0 0 0-3.3-3.76 36.56 36.56 0 0 0-18.2-9.62s-1.2-3.58-3.83-10c-1.84-4.5-13.38-29.63-13.38-29.63s-4.78-20.07-3.82-30.1-14.8-29.16-17.2-26.77-4.32 30.55 2.37 40.1zM743.24 285.64s51.6 7.17 44.92-4.3c-1.84-3.15-2.92-7.72-3.52-12.68-1.58-13.08.18-28.9.18-28.9l-38.7 6.7a52.24 52.24 0 0 1 1.58 22.9 63.37 63.37 0 0 1-4.46 16.28z"/><circle cx="761.16" cy="234.27" r="24.85" fill="#a1616a"/><path d="M721.44 429.54a18 18 0 0 0 7.94 3.8c7.65 1.43 32.5 4.3 42.06-3.35 7.58-6.07 32.3-6.13 42.2-5.9a59.8 59.8 0 0 0-4-7.5s-70.26-1-82.7 6.7a17.73 17.73 0 0 0-5.5 6.24zM674.92 276.06c2.57 2.27 4.3 3.84 4.3 3.84l14.33-22.94a27.67 27.67 0 0 0-3.3-3.76c-7 1.34-13.05 16.42-15.33 22.86zM852.68 330.08s4.3.32 11 .5c10.56-12.66 4.95-25.18 3.6-28.5a44.5 44.5 0 0 1-4.8-2.27zM743.24 285.64s51.6 7.17 44.92-4.3c-1.84-3.15-2.92-7.72-3.52-12.68a42.9 42.9 0 0 0-13.2-3.1c-8.86-2.2-18.34 1.23-23.74 3.8a63.37 63.37 0 0 1-4.46 16.28z" opacity=".1"/><path fill="#605d82" d="M771.44 266.54s20.55 1 24.37 14.34c0 0 20.08 6.7 30.6 7.17s38.7 11.95 39.2 13.86 10 18.65-8.13 33.94c0 0-20.55-7.17-29.63 5.73s-19.12 74.55-10 81.24c0 0-36.8-1.9-46.36 5.74s-34.4 4.78-42.06 3.35-18.16-9.57-18.64-32 7.65-70.74-4.3-76.47-31.06-44-31.06-44 7.65-24.85 16.73-25.8c0 0 22.46 13.85 32 14.8a95.45 95.45 0 0 1 19.12 4.3s14.8-9.56 28.17-6.2z"/><path d="M787.7 603.92s-4.08-18-6.92-32c.76 16.8 1.17 30.13 1.17 30.13l2.43 104.62 28.14-4.4z" opacity=".1"/><path fill="#5a5773" d="M716 481.54s-9.56 36.8 0 49.7 20.55 65.47 20.55 65.47 7.17 36.8 12.43 43 2.87 79.34 2.87 79.34l62.13-3.35-28.2-111.84s-9.08-40.14-9.56-47.3-2.87-69.3-2.87-69.3z"/><path d="M746.1 222.94a36.42 36.42 0 0 1-21-20.4c2.65-1 5.42 1.44 8.23 1.25 3.4-.24 5.33-4 8.24-5.73 3.8-2.3 8.77-1 12.6 1.26s7.26 5.3 11.5 6.63c3.6 1.15 7.5.92 11.3 1.14 4.82.27 14.76 1.13 18.37 4.8 2 2 1.1 4-.72 5.7.5 2.8-.5 5.4-.18 8.7a14.77 14.77 0 0 1-1.12 8.48c-1.37 3.73-3.3 6.66-5.17 10.17-1.24 2.34-.53 5.4-2 7.62a7.86 7.86 0 0 1-3 2.4 31.94 31.94 0 0 1-23 2.76c-2.6-.68-5.28-1.84-6.67-4.14-2.3-3.84 0-8.72-.24-13.2-.27-6.3-5.6-11.48-7.13-17.46z" opacity=".1"/><path fill="#4a4347" d="M746.58 222.46a36.42 36.42 0 0 1-21-20.4c2.64-1 5.4 1.44 8.22 1.25 3.4-.22 5.33-4 8.24-5.7 3.8-2.3 8.77-1 12.6 1.25s7.26 5.3 11.5 6.63c3.6 1.15 7.5.92 11.3 1.14 4.82.27 14.76 1.13 18.37 4.8 2 2 1.1 4-.7 5.7.48 2.8-.5 5.4-.2 8.7a14.77 14.77 0 0 1-1.1 8.48c-1.38 3.73-3.3 6.66-5.18 10.17-1.24 2.34-.53 5.4-2 7.62a7.86 7.86 0 0 1-3 2.38 31.94 31.94 0 0 1-23 2.77c-2.6-.68-5.28-1.84-6.67-4.14-2.3-3.82 0-8.7-.24-13.17-.25-6.3-5.58-11.5-7.12-17.47z"/><path d="M751.6 255.77l-3.48 1.23-.16-1.67s-.18.92 3.64.44z" opacity=".1"/></svg>