<svg xmlns="http://www.w3.org/2000/svg" data-name="Layer 1" viewBox="0 0 795.394 574.038"><defs><linearGradient id="a" x1="-450.79" x2="-450.79" y1="2803.047" y2="2729.348" gradientTransform="rotate(90 1103.938 2113.595)" gradientUnits="userSpaceOnUse"><stop offset="0" stop-color="gray" stop-opacity=".25"/><stop offset=".535" stop-color="gray" stop-opacity=".12"/><stop offset="1" stop-color="gray" stop-opacity=".1"/></linearGradient></defs><ellipse cx="232.058" cy="450.069" fill="#e0e0e0" rx="35.095" ry="5.264" transform="rotate(-63.611 -.497 531.685)"/><ellipse cx="670.577" cy="667.856" fill="#e0e0e0" rx="35.095" ry="3.577" transform="rotate(-63.611 438.023 749.472)"/><path fill="#f55f44" d="M220.4 405.28l16.24 13.41-44.69 54.12-16.24-13.4z"/><path d="M222.37 482.55l-23.07-5.42 16.07-68.32 23.06 5.42z" opacity=".05"/><path fill="#f55f44" d="M222.37 482.55l-20.5-4.82 16.06-68.32 20.5 4.82z"/><path fill="url(#a)" d="M414.49 314.08h73.7v489.57h-73.7z" transform="rotate(-63.611 218.781 640.484)"/><path fill="#f5f5f5" d="M452.71 536.12c-8.58-4.11-444.84-220.71-438.55-217.6 24.21-36.95 31.2-62.87 31.2-62.87l438.55 217.6s-15.4 27.03-31.2 62.87z"/><path d="M237.12 350.8l36.16 17.94-31.2 62.87-36.15-17.93z" opacity=".05"/><path fill="#f55f44" d="M238.7 351.58l33 16.38-31.2 62.87-33-16.37z"/><path d="M243.41 353.92l22 10.92-31.19 62.88-22-10.92z" opacity=".05"/><path fill="#f55f44" d="M244.98 354.7l18.87 9.36-31.2 62.88-18.86-9.36z"/><circle cx="261.306" cy="563.925" r="2.926" fill="#dbdbdb"/><g fill="#47e6b1" opacity=".5"><path d="M29.4 482h3v17h-3z"/><path d="M39.4 489v3h-17v-3z"/></g><g fill="#47e6b1" opacity=".5"><path d="M785.4 270h3v17h-3z"/><path d="M795.4 277v3h-17v-3z"/></g><g fill="#47e6b1" opacity=".5"><path d="M47.4 59h3v17h-3z"/><path d="M57.4 66v3h-17v-3z"/></g><g fill="#47e6b1" opacity=".5"><path d="M695.4 33h3v17h-3z"/><path d="M705.4 40v3h-17v-3z"/></g><path fill="#4d8af0" d="M12.29 253.46a3.67 3.67 0 01-2.05-4.44 1.77 1.77 0 00.08-.41 1.84 1.84 0 00-3.3-1.22 1.77 1.77 0 00-.21.36 3.67 3.67 0 01-4.44 2.05 1.77 1.77 0 00-.41-.08 1.84 1.84 0 00-1.22 3.3 1.77 1.77 0 00.36.21 3.67 3.67 0 012.05 4.44 1.77 1.77 0 00-.08.4 1.84 1.84 0 003.3 1.23 1.77 1.77 0 00.21-.36 3.67 3.67 0 014.44-2.05 1.77 1.77 0 00.41.08 1.84 1.84 0 001.22-3.31 1.77 1.77 0 00-.36-.2zM184.29 56.46a3.67 3.67 0 01-2.05-4.44 1.77 1.77 0 00.08-.41 1.84 1.84 0 00-3.3-1.22 1.77 1.77 0 00-.21.36 3.67 3.67 0 01-4.44 2.05 1.77 1.77 0 00-.41-.08 1.84 1.84 0 00-1.22 3.3 1.77 1.77 0 00.36.21 3.67 3.67 0 012.05 4.44 1.77 1.77 0 00-.08.4 1.84 1.84 0 003.3 1.23 1.77 1.77 0 00.21-.36 3.67 3.67 0 014.44-2.05 1.77 1.77 0 00.41.08 1.84 1.84 0 001.22-3.31 1.77 1.77 0 00-.36-.2zM394.29 567.46a3.67 3.67 0 01-2.05-4.44 1.77 1.77 0 00.08-.41 1.84 1.84 0 00-3.3-1.22 1.77 1.77 0 00-.21.36 3.67 3.67 0 01-4.44 2.05 1.77 1.77 0 00-.41-.08 1.84 1.84 0 00-1.22 3.3 1.77 1.77 0 00.36.21 3.67 3.67 0 012.05 4.44 1.77 1.77 0 00-.08.4 1.84 1.84 0 003.3 1.23 1.77 1.77 0 00.21-.36 3.67 3.67 0 014.44-2.05 1.77 1.77 0 00.41.08 1.84 1.84 0 001.22-3.31 1.77 1.77 0 00-.36-.2z" opacity=".5"/><circle cx="759.394" cy="444" r="6" fill="#f55f44" opacity=".5"/><circle cx="627.394" cy="482" r="6" fill="#4d8af0" opacity=".5"/><circle cx="103.394" cy="541" r="6" fill="#47e6b1" opacity=".5"/><circle cx="411.394" cy="6" r="6" fill="#f55f44" opacity=".5"/><path fill="#6c63ff" d="M204.9 357.5l-24 36s8 37 185 36 191-36 191-36l-33-48-101-69z"/><path d="M204.9 357.5l-24 36s8 37 185 36 191-36 191-36l-33-48-101-69z" opacity=".15"/><path fill="#6c63ff" d="M715.4 224l-315 139-384-139 352-160 172.78 79.67 6.2 2.86L715.38 224z"/><path d="M715.4 224l-315 139-384-139 352-160 172.78 79.67 6.2 2.86L715.38 224z" opacity=".15"/><path fill="#f5f5f5" d="M553.9 257.32l-6 .36-6.72-114.01 6.2 2.86 6.51 110.79z"/><path fill="#6c63ff" d="M208.9 223.5l-28 170s201-65 376 0l-26-180s-235-29-322 10z"/><ellipse cx="553.394" cy="272" fill="#f5f5f5" rx="29" ry="20"/></svg>