<svg xmlns="http://www.w3.org/2000/svg" viewBox="0 0 740.67538 473.94856"><path fill="#e6e6e6" d="M111.5 129.42a122.04 122.04 0 0 1 10.1-38.5q2.3-5.1 5.03-9.98a.74.74 0 0 0-1.28-.75 123.73 123.73 0 0 0-13.77 37.98q-1.04 5.58-1.56 11.24c-.08.95 1.4.95 1.5 0z"/><circle cx="130.23" cy="73.914" r="9.414" fill="#e6e6e6"/><path fill="#e6e6e6" d="M112.47 129.67a79.17 79.17 0 0 1 6.56-25q1.48-3.3 3.25-6.45a.48.48 0 0 0-.83-.48 80.27 80.27 0 0 0-8.93 24.64q-.67 3.62-1 7.3c-.07.6.9.6.95 0z"/><circle cx="124.618" cy="93.662" r="6.108" fill="#e6e6e6"/><path fill="#e6e6e6" d="M111.26 129.1a79.17 79.17 0 0 1-10.2-23.74q-.87-3.5-1.4-7.1a.48.48 0 0 0-.97.13 80.27 80.27 0 0 0 8.1 24.92q1.7 3.27 3.7 6.37c.33.5 1.1-.08.76-.6z"/><circle cx="98.683" cy="93.233" r="6.108" fill="#e6e6e6"/><path fill="#f2f2f2" d="M92.5 134.5v-12A4.5 4.5 0 0 1 97 118h28a4.5 4.5 0 0 1 4.5 4.5v12a4.5 4.5 0 0 1-4.5 4.5H97a4.5 4.5 0 0 1-4.5-4.5zM124 58h-12a4.5 4.5 0 0 1-4.5-4.5v-49A4.5 4.5 0 0 1 112 0h12a4.5 4.5 0 0 1 4.5 4.5v49A4.5 4.5 0 0 1 124 58z" style="isolation:isolate"/><path fill="#ccc" d="M108 9.5h20v4h-20zM108 40.5h20v4h-20z"/><path fill="#f2f2f2" d="M154 58h-12a4.5 4.5 0 0 1-4.5-4.5v-49A4.5 4.5 0 0 1 142 0h12a4.5 4.5 0 0 1 4.5 4.5v49A4.5 4.5 0 0 1 154 58z" style="isolation:isolate"/><path fill="#ccc" d="M138 9.5h20v4h-20zM138 40.5h20v4h-20z"/><path fill="#f2f2f2" d="M184 58h-12a4.5 4.5 0 0 1-4.5-4.5v-49A4.5 4.5 0 0 1 172 0h12a4.5 4.5 0 0 1 4.5 4.5v49A4.5 4.5 0 0 1 184 58z" style="isolation:isolate"/><path fill="#ccc" d="M168 9.5h20v4h-20zM168 40.5h20v4h-20z"/><path fill="#f2f2f2" d="M200 139h-12a4.5 4.5 0 0 1-4.5-4.5v-49A4.5 4.5 0 0 1 188 81h12a4.5 4.5 0 0 1 4.5 4.5v49a4.5 4.5 0 0 1-4.5 4.5z" style="isolation:isolate"/><path fill="#ccc" d="M184 90.5h20v4h-20zM184 121.5h20v4h-20z"/><path fill="#f2f2f2" d="M230 139h-12a4.5 4.5 0 0 1-4.5-4.5v-49A4.5 4.5 0 0 1 218 81h12a4.5 4.5 0 0 1 4.5 4.5v49a4.5 4.5 0 0 1-4.5 4.5z" style="isolation:isolate"/><path fill="#ccc" d="M214 90.5h20v4h-20zM214 121.5h20v4h-20z"/><path fill="#f2f2f2" d="M260 139h-12a4.5 4.5 0 0 1-4.5-4.5v-49A4.5 4.5 0 0 1 248 81h12a4.5 4.5 0 0 1 4.5 4.5v49a4.5 4.5 0 0 1-4.5 4.5z" style="isolation:isolate"/><path fill="#ccc" d="M244 90.5h20v4h-20zM244 121.5h20v4h-20z"/><path fill="#f2f2f2" d="M121 220h-12a4.5 4.5 0 0 1-4.5-4.5v-49a4.5 4.5 0 0 1 4.5-4.5h12a4.5 4.5 0 0 1 4.5 4.5v49a4.5 4.5 0 0 1-4.5 4.5z" style="isolation:isolate"/><path fill="#ccc" d="M105 171.5h20v4h-20zM105 202.5h20v4h-20z"/><path fill="#f2f2f2" d="M151 220h-12a4.5 4.5 0 0 1-4.5-4.5v-49a4.5 4.5 0 0 1 4.5-4.5h12a4.5 4.5 0 0 1 4.5 4.5v49a4.5 4.5 0 0 1-4.5 4.5z" style="isolation:isolate"/><path fill="#ccc" d="M135 171.5h20v4h-20zM135 202.5h20v4h-20z"/><path fill="#f2f2f2" d="M181 220h-12a4.5 4.5 0 0 1-4.5-4.5v-49a4.5 4.5 0 0 1 4.5-4.5h12a4.5 4.5 0 0 1 4.5 4.5v49a4.5 4.5 0 0 1-4.5 4.5z" style="isolation:isolate"/><path fill="#ccc" d="M165 171.5h20v4h-20zM165 202.5h20v4h-20z"/><path fill="#f2f2f2" d="M214 58h-12a4.5 4.5 0 0 1-4.5-4.5v-49A4.5 4.5 0 0 1 202 0h12a4.5 4.5 0 0 1 4.5 4.5v49A4.5 4.5 0 0 1 214 58z" style="isolation:isolate"/><path fill="#ccc" d="M198 9.5h20v4h-20zM198 40.5h20v4h-20z"/><path fill="#f2f2f2" d="M244 58h-12a4.5 4.5 0 0 1-4.5-4.5v-49A4.5 4.5 0 0 1 232 0h12a4.5 4.5 0 0 1 4.5 4.5v49A4.5 4.5 0 0 1 244 58z" style="isolation:isolate"/><path fill="#ccc" d="M228 9.5h20v4h-20zM228 40.5h20v4h-20z"/><path fill="#f2f2f2" d="M274 58h-12a4.5 4.5 0 0 1-4.5-4.5v-49A4.5 4.5 0 0 1 262 0h12a4.5 4.5 0 0 1 4.5 4.5v49A4.5 4.5 0 0 1 274 58z" style="isolation:isolate"/><path fill="#ccc" d="M258 9.5h20v4h-20zM258 40.5h20v4h-20z"/><path fill="#f2f2f2" d="M304 58h-12a4.5 4.5 0 0 1-4.5-4.5v-49A4.5 4.5 0 0 1 292 0h12a4.5 4.5 0 0 1 4.5 4.5v49A4.5 4.5 0 0 1 304 58z" style="isolation:isolate"/><path fill="#ccc" d="M288 9.5h20v4h-20zM288 40.5h20v4h-20zM348.95 59.5h-285a1 1 0 0 1 0-2h285a1 1 0 0 1 0 2zM348.95 140.5h-285a1 1 0 0 1 0-2h285a1 1 0 0 1 0 2zM348.95 221.5h-285a1 1 0 0 1 0-2h285a1 1 0 0 1 0 2zM332.07 378.48c0-7.73-29.1-14-65-14s-65 6.27-65 14c0 4.96 11.96 9.3 30 11.8v76.7a6.5 6.5 0 0 0 13 0v-75.32c6.87.53 14.28.82 22 .82s15.13-.3 22-.82v75.32a6.5 6.5 0 0 0 13 0v-76.7c18.04-2.5 30-6.84 30-11.8z"/><path fill="#a0616a" d="M319.56 460.9h12.26l5.83-47.28h-18.1v47.3z"/><path fill="#2f2e41" d="M355.5 472.26h-38.53v-14.88h23.64a14.9 14.9 180 0 1 14.9 14.88z"/><path fill="#a0616a" d="M338.7 454.06l11.7-3.67-8.6-46.87-17.26 5.42 14.16 45.1z"/><path fill="#2f2e41" d="M376.7 454.02l-36.75 11.52-4.45-14.2 22.56-7.07a14.9 14.9 162.58 0 1 18.65 9.75zM330.5 432.3l-22.43-58.87c-5.03 1.18-47.23 10.52-61.36-4.53-4.83-5.16-5.78-12.63-2.8-22.2l8.25-10.37h.26c3.13.17 76.44 4.28 81.47 26.4 4.24 18.64 11.98 53.4 14.25 63.6a4.52 4.52 0 0 1-2.82 5.2l-9.02 3.38a4.46 4.46 0 0 1-1.57.3 4.5 4.5 0 0 1-4.2-2.9zM317.5 439.3l-22.43-58.87c-5.03 1.18-47.23 10.52-61.36-4.53-4.83-5.16-5.78-12.63-2.8-22.2l8.25-10.37h.26c3.13.17 76.44 4.28 81.47 26.4 4.24 18.64 11.98 53.4 14.25 63.6a4.52 4.52 0 0 1-2.82 5.2l-9.02 3.38a4.46 4.46 0 0 1-1.57.3 4.5 4.5 0 0 1-4.2-2.9z"/><path fill="#a0616a" d="M347.8 298.18a10.53 10.53 0 0 0-.88 1.4l-49.32 5.2-7.1-9.74-16.1 8.8 13.96 23.62 60.48-15.43a10.5 10.5 0 1 0-1.03-13.85z"/><path fill="#6c63ff" d="M230.6 356.8a4.5 4.5 0 0 1-1.83-4.35c2.78-18.34-.42-44.62-3.6-63.43a24.8 24.8 0 0 1 27.56-28.76 79.86 79.86 0 0 1 9.92 1.95 24.6 24.6 0 0 1 18.58 24.48c-.48 18.15 3.2 40.8 4.82 49.7a4.52 4.52 0 0 1-.84 3.5 4.4 4.4 0 0 1-3.08 1.76c-17.8 1.82-37 10.5-46.88 15.52a4.5 4.5 0 0 1-2.05.5 4.43 4.43 0 0 1-2.6-.86zM278.66 309.5a4.47 4.47 0 0 1-2.47-2.4l-9.95-22.95a11.5 11.5 0 1 1 21.1-9.14l9.94 22.95a4.5 4.5 0 0 1-2.35 5.92l-12.85 5.56a4.47 4.47 0 0 1-3.44.06z"/><path fill="#a0616a" d="M300.8 296.18a10.53 10.53 0 0 0-.88 1.4l-49.32 5.2-7.1-9.74-16.1 8.8 13.96 23.62 60.48-15.43a10.5 10.5 0 1 0-1.03-13.85z"/><path fill="#6c63ff" d="M231.66 310.5a4.47 4.47 0 0 1-2.47-2.4l-9.95-22.95a11.5 11.5 0 1 1 21.1-9.14l9.94 22.95a4.5 4.5 0 0 1-2.35 5.92l-12.85 5.56a4.47 4.47 0 0 1-3.44.06z"/><circle cx="250.906" cy="227.891" r="24.561" fill="#a0616a"/><path fill="#2f2e41" d="M233.35 244.75a2.13 2.13 0 0 1 1.85-2.82 4.93 4.93 0 0 1 3.48 1.7 13.83 13.83 0 0 0 3.07 2.65c1.2.6 2.8.5 3.48-.63.63-1.07.2-2.5-.2-3.75a36.9 36.9 0 0 1-1.62-9.77c-.1-3.7.42-7.56 2.47-10.45 2.65-3.72 7.37-5.14 11.85-5.04s8.87 1.5 13.3 2.36c1.53.3 3.33.46 4.36-.73 1.08-1.26.68-3.3.22-5-1.2-4.42-2.47-9-5.26-12.55a18.9 18.9 0 0 0-12.07-6.8 28.94 28.94 0 0 0-13.46 1.53 36.1 36.1 0 0 0-17.67 12.32 29.24 29.24 0 0 0-5.58 21.6 26.67 26.67 0 0 0 9.9 16.86z"/><path fill="#3f3d56" d="M139.57 303.88a122.04 122.04 0 0 1 10.1-38.52q2.28-5.1 5-9.96a.74.74 0 0 0-1.27-.75 123.73 123.73 0 0 0-13.77 37.98q-1.03 5.58-1.55 11.25c-.1.95 1.4.94 1.5 0z"/><circle cx="158.285" cy="248.368" r="9.414" fill="#6c63ff"/><path fill="#3f3d56" d="M140.53 304.13a79.17 79.17 0 0 1 6.55-25q1.48-3.3 3.26-6.45a.48.48 0 0 0-.84-.5 80.27 80.27 0 0 0-8.93 24.65q-.67 3.62-1 7.3c-.06.6.9.6.96 0z"/><circle cx="152.673" cy="268.115" r="6.108" fill="#6c63ff"/><path fill="#3f3d56" d="M139.3 303.55a79.17 79.17 0 0 1-10.2-23.73q-.86-3.52-1.4-7.1a.48.48 0 0 0-.95.13 80.27 80.27 0 0 0 8.1 24.92q1.7 3.27 3.7 6.37c.34.53 1.1-.07.76-.6z"/><circle cx="126.738" cy="267.687" r="6.108" fill="#6c63ff"/><path fill="#ccc" d="M120.56 308.95v-12a4.5 4.5 0 0 1 4.5-4.5h28a4.5 4.5 0 0 1 4.5 4.5v12a4.5 4.5 0 0 1-4.5 4.5h-28a4.5 4.5 0 0 1-4.5-4.5z"/><rect width="86" height="7" x="289.07" y="305.482" fill="#ccc" rx="3.5"/><path fill="#ccc" d="M424.57 312.48h-89a6.5 6.5 0 0 1-6.5-6.5v-49a6.5 6.5 0 0 1 6.5-6.5h89a6.5 6.5 0 0 1 6.5 6.5v49a6.5 6.5 0 0 1-6.5 6.5z"/><circle cx="380.07" cy="281.482" r="6" fill="#fff"/><path fill="#ccc" d="M651.07 378.48c0-7.73-29.1-14-65-14s-65 6.27-65 14c0 4.96 11.96 9.3 30 11.8v76.7a6.5 6.5 0 0 0 13 0v-75.32c6.87.53 14.28.82 22 .82s15.13-.3 22-.82v75.32a6.5 6.5 0 0 0 13 0v-76.7c18.04-2.5 30-6.84 30-11.8z"/><circle cx="593.257" cy="222.34" r="28" fill="#2f2e41"/><path fill="#ffb8b8" d="M523.58 461.9h-12.26l-5.83-47.28h18.08v47.3z"/><path fill="#2f2e41" d="M502.56 458.4h23.64v14.9h-38.53a14.9 14.9 0 0 1 14.9-14.9z"/><path fill="#ffb8b8" d="M504.44 455.06l-11.7-3.67 8.6-46.87 17.26 5.42-14.16 45.1z"/><path fill="#2f2e41" d="M485.62 445.05l22.56 7.07-4.45 14.2-36.76-11.52a14.9 14.9 17.42 0 1 18.65-9.75zM508.43 436.2a4.46 4.46 0 0 1-1.57-.3l-9.02-3.37a4.52 4.52 0 0 1-2.82-5.2c2.27-10.2 10-44.96 14.25-63.6 5.03-22.12 78.34-26.23 81.46-26.4h.26l8.23 10.36c3 9.57 2.04 17.04-2.8 22.2-14.14 15.05-56.33 5.7-61.36 4.53l-22.43 58.87a4.5 4.5 0 0 1-4.2 2.9zM521.43 443.2a4.46 4.46 0 0 1-1.57-.3l-9.02-3.37a4.52 4.52 0 0 1-2.82-5.2c2.27-10.2 10-44.96 14.25-63.6 5.03-22.12 78.34-26.23 81.46-26.4h.26l8.23 10.36c3 9.57 2.04 17.04-2.8 22.2-14.14 15.05-56.33 5.7-61.36 4.53l-22.43 58.87a4.5 4.5 0 0 1-4.2 2.9z"/><path fill="#ffb8b8" d="M495.33 299.18a10.53 10.53 0 0 1 .9 1.4l49.3 5.2 7.1-9.74 16.1 8.8-13.95 23.62-60.48-15.43a10.5 10.5 0 1 1 1.03-13.85z"/><path fill="#6c63ff" d="M609.95 358.66a4.5 4.5 0 0 1-2.05-.5c-9.87-5.02-29.07-13.7-46.88-15.52a4.4 4.4 0 0 1-3.1-1.75 4.52 4.52 0 0 1-.83-3.52c1.6-8.9 5.3-31.55 4.8-49.7a24.6 24.6 0 0 1 18.6-24.47 79.86 79.86 0 0 1 9.9-1.94 24.8 24.8 0 0 1 27.57 28.76c-3.18 18.8-6.38 45.1-3.6 63.43a4.5 4.5 0 0 1-1.82 4.35 4.43 4.43 0 0 1-2.6.86zM562.82 310.8a4.5 4.5 0 0 1-1.78-.37l-12.85-5.56a4.5 4.5 0 0 1-2.35-5.9l9.93-22.96a11.5 11.5 0 1 1 21.1 9.15l-9.93 22.94a4.5 4.5 0 0 1-4.13 2.7z"/><circle cx="592.234" cy="228.891" r="24.561" fill="#ffb8b8"/><path fill="#2f2e41" d="M567.23 216.82a88.6 88.6 0 0 0 38.33 12.63l-4.04-4.84a29.7 29.7 0 0 0 9.17 1.83c3.12-.05 6.4-1.25 8.17-3.83a9.34 9.34 0 0 0 .63-8.63 17.7 17.7 0 0 0-5.57-6.96 33.14 33.14 0 0 0-30.84-5.5 19.8 19.8 0 0 0-9.22 5.9c-2.33 2.88-6.8 5.44-5.62 8.94zM596.36 197a75.48 75.48 0 0 0-27.46-17.76c-6.64-2.46-13.86-3.98-20.8-2.58s-13.5 6.2-15.45 13c-1.58 5.58.06 11.57 2.5 16.8s5.75 10.12 7.74 15.55a35.47 35.47 0 0 1-35.7 47.58c6.82.9 13.1 4.12 19.77 5.82s14.53 1.6 19.5-3.18c5.23-5.06 5.33-13.27 5.08-20.55l-1.13-32.44c-.2-5.52-.36-11.2 1.63-16.36s6.72-9.65 12.24-9.6c4.17.03 7.87 2.56 11.23 5.06s6.9 5.17 11.07 5.54 8.92-2.7 8.6-6.88"/><path fill="#e6e6e6" d="M482.2 281.1l56.55 1.32 8.2 60.46-52.23 1.17-12.52-62.96z"/><path fill="#ffb8b8" d="M542.33 297.18a10.53 10.53 0 0 1 .9 1.4l49.3 5.2 7.1-9.74 16.1 8.8-13.95 23.62-60.48-15.43a10.5 10.5 0 1 1 1.03-13.85z"/><path fill="#6c63ff" d="M609.82 311.8a4.5 4.5 0 0 1-1.78-.37l-12.85-5.56a4.5 4.5 0 0 1-2.35-5.9l9.93-22.96a11.5 11.5 0 1 1 21.1 9.15l-9.93 22.94a4.5 4.5 0 0 1-4.13 2.7z"/><path fill="#3f3d56" d="M493.57 311.48h-398a6.5 6.5 0 1 0 0 13h11.5v141.5a6.5 6.5 0 0 0 13 0v-129l72.87 132.07a6.5 6.5 0 0 0 11.26-6.5l-76.18-138.07h348.05v.1l-76.13 137.97a6.5 6.5 0 1 0 11.26 6.5l64.87-117.58v114.5a6.5 6.5 0 0 0 13 0V327.92l1.9-3.42h2.6a6.5 6.5 0 0 0 0-13zM739.48 473.95H1.18a1.2 1.2 0 0 1 0-2.38h738.3a1.2 1.2 0 0 1 0 2.38z"/></svg>