<svg xmlns="http://www.w3.org/2000/svg" viewBox="0 0 745.62008 676.94882"><title>build_wireframe</title><ellipse cx="137.764" cy="656.949" fill="#e6e6e6" rx="137.764" ry="20"/><path fill="#e6e6e6" d="M217.85 649.1c-16.46-1.38-37.92-13.54-36.5-34.44.7-10.37 7.74-17.97 15.4-23.3 10.57-7.38 23.22-11.33 35.62-13.58 14.3-2.6 28.9-2.92 43.42-3.14 14.32-.22 28.63-.62 42.92-1.6a665.5 665.5 0 0 0 83.85-11.26 660.42 660.42 0 0 0 80.17-21.26q19.55-6.53 38.67-14.34c11.9-4.88 23.83-9.9 35.1-16.24 14.88-8.34 38.8-23.9 33.68-46-2.7-11.73-12.48-20.06-21.94-25.5-11.43-6.6-24.12-10.23-36.54-13.75-57.78-16.36-115.62-32.42-173.43-48.62-13.5-3.8-27.05-7.4-40.3-12.2-12.4-4.46-24.88-9.92-35.5-18.37-9.3-7.36-18.1-17.76-19.58-30.5-1.22-10.6 3.4-20.33 9.62-28 15.43-18.94 39.5-29.04 61.63-35.62 27.47-8.17 55.95-12 83.46-20.02 22.22-6.48 45.56-16.34 61.92-34.25 6.27-6.86 11.48-15.3 12.82-25.08 1.32-9.57-1.6-19-6.95-26.77-6.34-9.15-15.37-15.9-24.62-21.18A134 134 0 0 0 426 110.63c-26.23-6.4-53.1-7.95-79.64-12-13-2-26.2-4.3-38.67-9.06-10.58-4.03-22.28-9.8-29.2-19.8-14.3-20.6 10.86-37.46 25.46-44.53a234.63 234.63 0 0 1 30.95-11.86c2.25-.72.77-4.38-1.47-3.66-11.04 3.53-22.05 7.4-32.48 12.62-8.78 4.4-17.73 9.83-24 17.94-5.26 6.8-7.9 15.83-5.05 24.6 3.35 10.36 12.8 17.42 21.42 22.3 11.4 6.44 23.9 9.96 36.42 12.52 13.2 2.7 26.52 4.38 39.83 6 26.6 3.24 54.26 5.6 79.4 16.75 17.57 7.8 42.15 23.56 39.9 47.53-1 10.64-7.2 19.7-14.23 26.7-8.52 8.44-18.73 14.8-29.26 19.96-49.1 24-107.3 19.47-154.25 49.4-15.97 10.17-34.7 27.3-31.82 49.86 1.5 11.73 8.66 21.7 16.85 29.24 9.82 9.02 21.76 15.07 33.73 19.85 12.66 5.04 25.72 8.76 38.75 12.42q21.75 6.1 43.5 12.2l88.03 24.67 43.74 12.25c13.35 3.74 27 7.22 39.54 13.67 10.28 5.27 22.82 14.52 23.67 28 .68 10.7-6.82 19.5-13.94 25.66-9.2 8-20 13.8-30.8 18.9-12.48 5.86-25.26 11.06-38.12 15.9a642.1 642.1 0 0 1-81.17 24.62 667.52 667.52 0 0 1-83.94 14q-21.42 2.18-42.96 2.96c-14.8.52-29.66.26-44.44 1.25-13.37.9-26.7 2.93-39.37 7.57-10.57 3.88-21.5 9.73-28.63 19.2a29.83 29.83 0 0 0-5.54 23.67 36.8 36.8 0 0 0 13.06 20.93 47.4 47.4 0 0 0 26.14 10.16c2.35.2 2.82-3.72.45-3.92z"/><path fill="#ffb9b9" d="M113.62 103.45l-1 25 32 22 5-47h-36zM188.62 231.45l11 32 22 76s22 37 3 38-15-33-15-33l-31-54-7-57zM178.35 603.1s7.3 19.93 14.75 29.55-4 15.78-4 15.78l-36.38-4.3s2.2-31.83-.65-37.1z"/><path fill="#2f2e41" d="M187 638.2s5.83-14.5 9.15-8.32 16.5 13.83 16.5 13.83 35.1 6.13 9 16.74-42.46 1.26-42.46 1.26-24.6.72-27.44-4.56-3.65-25.6 1.47-22.52 28.2 12.25 33.77 3.58z"/><path fill="#ffb9b9" d="M109.62 577.45s-3 21-1 33-11 12-11 12l-30-21s17-27 17-33z"/><path fill="#2f2e41" d="M184.62 351.45s-8 97-24 133-41 106-41 106l-42-15s20-91 38-104l12-145zM169.62 353.45l-14 53 30 198-38 9-48-223s-15-29-6-57 76 20 76 20zM100.62 612.45s12-10 12-3 8 20 8 20 28 22 0 19-38-19-38-19-22-11-22-17 8.9-24.28 11.95-19.14 19.05 24.15 28.05 19.15z"/><circle cx="130.62" cy="86.449" r="30" fill="#ffb9b9"/><path fill="#6c63ff" d="M110.62 116.45l32 25 6-14 7 12s35 19 35 27 1 185 1 185-31 30-61-12-40 21-40 21l-8-123-12-80s2-4 8-8 27-20 27-20zM178.62 160.45l13 5 12 68-27 6 2-79z"/><path fill="#ffb9b9" d="M50.62 227.45l-9 46 61 62s15 30 27 17-21-30-21-30l-38-62 9-22z"/><path fill="#2f2e41" d="M95.8 67s-5.55-12.24 8.9-17.8c0 0 12.23-20 36.7-6.67 0 0 16.66 6.67 16.66 24.46s5.56 21.1 5.56 21.1-8.28-8.48-10.5-15.15-19.5-8.18-26.18-1.5-23.35 5.54-23.35 5.54l1.1 24.45S99.16 87 96.93 87s-4.44-20-1.1-20z"/><path fill="#6c63ff" d="M81.62 157.45h-11l-26 76 36 11 20-50-19-37z"/><path d="M128.74 565.4l-12.62-93.45 18.03 78.92-5.4 14.54z" opacity=".3"/><path fill="#e6e6e6" d="M220.7 359.9a3.5 3.5 0 0 0-3.5 3.5v193.55a3.5 3.5 0 0 0 3.5 3.5h521.42a3.5 3.5 0 0 0 3.5-3.5V363.4a3.5 3.5 0 0 0-3.5-3.5z"/><path fill="#fff" d="M237.3 374.77a2.5 2.5 0 0 0-2.5 2.5v165.8a2.5 2.5 0 0 0 2.5 2.5h488.24a2.5 2.5 0 0 0 2.5-2.5v-165.8a2.5 2.5 0 0 0-2.5-2.5z"/><path fill="#e6e6e6" d="M326.27 140.75a6.1 6.1 0 0 0-6 6.17v139.9a6.1 6.1 0 0 0 6 6.18h311a6.1 6.1 0 0 0 6-6.17v-139.9a6.1 6.1 0 0 0-6-6.18zM326.27 0c-3.3 0-6 3.04-6 6.77v97.46c0 3.73 2.7 6.77 6 6.77h311c3.3 0 6-3.04 6-6.77V6.77c0-3.73-2.7-6.77-6-6.77z"/><path fill="#fff" d="M358.77 25.25h246v14h-246zM359.27 54.75h246v6.5h-246zM359.27 77.75h246v6.5h-246zM504.93 293.25h113.2a3.64 3.64 0 0 0 2.6-6.22l-72.47-72.46a3.65 3.65 0 0 0-5.15 0l-18 18.02a7.64 7.64 0 0 1-10.82 0l-56.44-56.44a3.65 3.65 0 0 0-5.15 0L342.3 286.53a3.64 3.64 0 0 0 2.57 6.22h160.17z"/><circle cx="370.266" cy="173.75" r="14" fill="#fff"/><path fill="#e6e6e6" d="M314.12 471.45a1.5 1.5 0 0 0-1.5 1.5v10a1.5 1.5 0 0 0 1.5 1.5h342a1.5 1.5 0 0 0 1.5-1.5v-10a1.5 1.5 0 0 0-1.5-1.5z"/><path fill="#3f3d56" d="M326.27 325.75a6.1 6.1 0 0 0-6 6.17v139.9a6.1 6.1 0 0 0 6 6.18h311a6.1 6.1 0 0 0 6-6.17v-139.9a6.1 6.1 0 0 0-6-6.18z"/><path fill="#6c63ff" d="M504.93 478.25h113.2a3.64 3.64 0 0 0 2.6-6.22l-72.47-72.46a3.65 3.65 0 0 0-5.15 0l-18 18.02a7.64 7.64 0 0 1-10.82 0l-56.44-56.44a3.65 3.65 0 0 0-5.15 0L342.3 471.53a3.64 3.64 0 0 0 2.57 6.22h160.17z"/><circle cx="370.266" cy="358.75" r="14" fill="#6c63ff"/></svg>