<svg xmlns="http://www.w3.org/2000/svg" data-name="Layer 1" viewBox="0 0 925.497 645.184"><circle cx="233.088" cy="328.457" r="18.409" fill="#f2f2f2"/><circle cx="170.088" cy="540.457" r="11.409" fill="#f2f2f2"/><path fill="#f2f2f2" d="M380 21.5h140v2H380z"/><path fill="#f2f2f2" d="M418 3.5h2V22h-2zM479 3.5h2V22h-2zM606 505.5h140v2H606z"/><path fill="#f2f2f2" d="M644 487.5h2V506h-2zM705 487.5h2V506h-2zM613 200.5h140v2H613z"/><path fill="#f2f2f2" d="M651 182.5h2V201h-2zM712 182.5h2V201h-2zM613 128.5h140v2H613z"/><path fill="#f2f2f2" d="M651 110.5h2V129h-2zM712 110.5h2V129h-2zM306 138.5h140v2H306z"/><path fill="#f2f2f2" d="M344 120.5h2V139h-2zM405 120.5h2V139h-2zM204 91.5h140v2H204z"/><path fill="#f2f2f2" d="M242 73.5h2V92h-2zM303 73.5h2V92h-2zM141 276.5h140v2H141z"/><path fill="#f2f2f2" d="M179 258.5h2V277h-2zM240 258.5h2V277h-2zM71 480.5h140v2H71z"/><path fill="#f2f2f2" d="M109 462.5h2V481h-2zM170 462.5h2V481h-2zM733 396.5h140v2H733z"/><path fill="#f2f2f2" d="M771 378.5h2V397h-2zM832 378.5h2V397h-2zM692 268.5h140v2H692z"/><path fill="#f2f2f2" d="M792 270h2v18.5h-2zM731 270h2v18.5h-2zM14 118.5h140v2H14z"/><path fill="#f2f2f2" d="M114 120h2v18.5h-2zM53 120h2v18.5h-2zM23 380.5h140v2H23z"/><path fill="#f2f2f2" d="M123 382h2v18.5h-2zM62 382h2v18.5h-2zM464 53.5h140v2H464z"/><path fill="#f2f2f2" d="M564 55h2v18.5h-2zM503 55h2v18.5h-2zM71 192.5h140v2H71z"/><path fill="#f2f2f2" d="M109 174.5h2V193h-2zM170 174.5h2V193h-2z"/><path fill="#3f3d56" d="M233.5 173v471h436V173zm218 34a15 15 0 1115-15 15 15 0 01-15 15zM37.25 603.8c6.92 25.56 30.6 41.38 30.6 41.38s12.47-25.6 5.56-51.16-30.6-41.39-30.6-41.39-12.47 25.6-5.56 51.17z"/><path fill="#6c63ff" d="M47.41 598.3c18.98 18.47 21.3 46.86 21.3 46.86s-28.45-1.55-47.42-20.02S0 578.28 0 578.28s28.44 1.56 47.41 20.02z"/><path fill="#3f3d56" d="M16.5 643h909v2h-909z"/><path fill="#3f3d56" d="M192 581.34a22.03 22.03 0 00-14.03-20.5 22 22 0 10-15.94 0 22 22 0 000 41 22 22 0 1015.94 0 22.03 22.03 0 0014.03-20.5zm-42-41a20 20 0 1124.51 19.47 22.02 22.02 0 00-9.03 0A20.02 20.02 0 01150 540.34zm40 82a20 20 0 11-24.52-19.47 22.02 22.02 0 009.03 0A20.02 20.02 0 01190 622.34zM174.5 600.8a22.02 22.02 0 00-9.03 0 19.98 19.98 0 010-38.94 22.02 22.02 0 009.03 0 19.98 19.98 0 010 38.94z"/><path fill="#f2f2f2" d="M511 271.5H282a7 7 0 110-14h229a7 7 0 010 14zM511 343.5H282a7 7 0 110-14h229a7 7 0 010 14zM511 415.5H282a7 7 0 110-14h229a7 7 0 010 14zM511 487.5H282a7 7 0 110-14h229a7 7 0 010 14zM511 559.5H282a7 7 0 110-14h229a7 7 0 010 14z"/><path fill="#6c63ff" d="M471 271.5H281a7 7 0 110-14h190a7 7 0 010 14zM412 343.5H281a7 7 0 110-14h131a7 7 0 010 14zM340 415.5h-59a7 7 0 110-14h59a7 7 0 010 14zM489 487.5H281a7 7 0 110-14h208a7 7 0 010 14zM443 559.5H281a7 7 0 110-14h162a7 7 0 010 14zM604 257.5h2v14h-2zM621 272.5a8 8 0 118-8 8 8 0 01-8 8zm0-14a6 6 0 106 6 6 6 0 00-6-6zM604 329.5h2v14h-2zM621 344.5a8 8 0 118-8 8 8 0 01-8 8zm0-14a6 6 0 106 6 6 6 0 00-6-6zM604 401.5h2v14h-2zM621 416.5a8 8 0 118-8 8 8 0 01-8 8zm0-14a6 6 0 106 6 6 6 0 00-6-6zM604 473.5h2v14h-2zM621 488.5a8 8 0 118-8 8 8 0 01-8 8zm0-14a6 6 0 106 6 6 6 0 00-6-6zM604 545.5h2v14h-2zM621 560.5a8 8 0 118-8 8 8 0 01-8 8zm0-14a6 6 0 106 6 6 6 0 00-6-6z"/><circle cx="620.997" cy="264.5" r="4" fill="#6c63ff"/><circle cx="620.997" cy="480.5" r="4" fill="#6c63ff"/><circle cx="620.997" cy="552.5" r="4" fill="#6c63ff"/><circle cx="451.497" cy="192" r="7" fill="#3f3d56"/><circle cx="451.497" cy="7" r="7" fill="#3f3d56"/><path fill="#3f3d56" d="M450.5 7h2v185h-2z"/><path fill="#2f2e41" d="M856.61 384.48v24.77s5.97 39.92 5.97 74.79-9.64 116.07-9.64 116.07-19.27 6.88-20.64-3.67-5.05-66.52-5.05-74.78-16.06-71.11-16.06-71.11l-10.1 69.73s3.22 82.58.01 84.88-18.81 6.42-20.65 2.3-11.47-92.68-11.47-92.68-7.8-115.62-3.2-122.5 8.7-12.39 8.7-12.39 65.62-16.06 82.13 4.59z"/><path fill="#2f2e41" d="M850.65 597.36l1.15 7.48a73.66 73.66 0 01.75 7.7c.18 3.75.8 9.54 2.95 10.46 3.2 1.38 24.05 18.96 9.37 19.87s-22.02 2.5-26.37-.87c-5.14-4 .68-2.18-1.61-2.18s-5.05 0-5.97-3.67 1.38-10.1 1.38-10.1v-28.7zM782.15 597l-1.16 7.48a73.66 73.66 0 00-.75 7.7c-.18 3.75-.8 9.54-2.94 10.46-3.21 1.38-24.06 18.96-9.38 19.87s22.03 2.5 26.38-.87c5.14-4-.68-2.18 1.6-2.18s5.06 0 5.97-3.67-1.37-10.1-1.37-10.1V597z"/><path fill="#ffb9b9" d="M795.14 185.36s7.8 19.27 13.3 22.48 2.75 17.9 2.75 17.9L797.43 245h-11.01l-13.3-22.94s-.92-15.14-3.68-18.81 25.7-17.9 25.7-17.9z"/><path d="M795.14 185.36s7.8 19.27 13.3 22.48 2.75 17.9 2.75 17.9L797.43 245h-11.01l-13.3-22.94s-.92-15.14-3.68-18.81 25.7-17.9 25.7-17.9z" opacity=".1"/><path fill="#6c63ff" d="M806.6 224.82l20.65 4.59 15.14 152.32s-8.26 1.37-16.52 12.38-18.35 9.18-23.4 6.43-25.23-10.56-25.69-13.77.92-59.64.92-59.64l-12.85-88.09 6.43-9.63h11.47l9.17 7.8z"/><circle cx="775.407" cy="185.362" r="23.857" fill="#ffb9b9"/><path fill="#575a89" d="M809.82 217.02s44.96 4.59 49.09 14.22-2.76 52.3-2.76 52.3 16.52 37.17 16.06 45.88 15.6 68.36-1.83 61.48-11.93-24.77-20.65-11.93-12.39 11.01-12.39 11.01-8.71 14.23-11.47 12.85-4.58-11.93 1.38-16.97 5.05-13.77-6.42-30.29-23.4-103.22-16.52-116.53 5.5-22.02 5.5-22.02z"/><path fill="#ffb9b9" d="M856.61 393.2l-7.8 7.34-9.63-6.43 4.13-9.63 13.3 8.72z"/><path fill="#575a89" d="M776.78 224.82s-34.86 12.84-34.86 26.6 21.1 73.87 21.1 73.87 0 15.6-.92 19.27-15.35 35.69-2.75 38.54c7.86 1.79 14.33 6.47 14.91 13.08.7 7.85-5.32 17.75-4.82 19.5.92 3.2 6.43 7.8 5.97 5.5s3.67-35.32 10.09-50-2.75-113.33-4.59-126.17a141.99 141.99 0 00-4.13-20.2z"/><path fill="#ffb9b9" d="M758.43 392.28L766.7 412l6.2-12.62-7.12-15.83-7.34 8.72z"/><path fill="#6c63ff" d="M802.28 200.14s7.54 3.12 12.12 3.12 23.4 9.63 16.98 15.6-16.06 7.34-20.65 16.05-6.88 10.1-6.88 10.1l-8.17-10.98s11.38-12.88 10.93-17.01-4.33-16.88-4.33-16.88zM771.87 211.17s-5.64 2.18-7.02 5.85-10.09 10.55-6.42 12.39 19.73 9.17 22.94 10.55 9.2-3.9 9.2-3.9-8.05-4.59-8.05-7.8-10.65-17.09-10.65-17.09z"/><path fill="#575a89" d="M752.93 245l-11.01 2.76s-15.15 67.9-10.56 84.88 26.15 67.9 26.15 67.9l13.77-16.06s-6-36.52-9.43-38.9-1.12-7.44-1.12-8.82 1.37-.45-1.84-3.67 11.93-21.1 7.8-26.15-13.76-61.93-13.76-61.93z"/><path d="M861.43 257.62l-6.65-25s17.9 12.84 21.56 31.65 17.9 56.44 8.72 72.95-25.23 64.23-30.74 63.32-18.81-12.4-19.27-14.23 23.86-44.04 20.19-47.25-2.76-11.47 0-13.3 5.96-10.56 3.67-10.1-9.18-4.13-7.8-9.18-6.88-39-6.88-39z" opacity=".1"/><path fill="#575a89" d="M852.48 229.4l6.43 1.84s17.9 12.85 21.56 31.66 17.9 56.43 8.72 72.95-25.24 64.23-30.74 63.31-18.81-12.39-19.27-14.22 23.86-44.05 20.19-47.26-2.76-11.47 0-13.3 5.96-10.56 3.67-10.1-9.18-4.13-7.8-9.17-6.88-39-6.88-39z"/><path fill="#2f2e41" d="M793.92 163.83l4.48-1.63s-9.36-9.36-22.38-8.54l3.66-3.66s-8.95-3.26-17.08 5.29c-4.28 4.49-9.23 9.76-12.31 15.71h-4.8l2 4-7 4 7.2-.72a20.18 20.18 0 00.67 10.36l1.63 4.48s6.5-13.02 6.5-14.65v4.07s4.48-3.66 4.48-6.1l2.44 2.85 1.22-4.48 15.05 4.48-2.44-3.67 9.36 1.22-3.66-4.47s10.57 5.29 10.98 9.76 5.7 10.17 5.7 10.17l2.44-4.07s3.66-18.3-8.14-24.4z"/><ellipse cx="792.997" cy="182.5" fill="#ffb9b9" rx="3.5" ry="5.5"/></svg>