<svg xmlns="http://www.w3.org/2000/svg" data-name="Layer 1" viewBox="0 0 1036.899 660"><path fill="#3f3d56" d="M45.03 494.17h785.45v2.79H45.03zM0 0h899.87v437.9H0z"/><path d="M899.87 33.68V21.65H872.2V0h-12.03v21.65H39.7V0H27.67v21.65H0v12.03h27.67v370.54H0v12.03h27.67v21.65H39.7v-21.65h820.47v21.65h12.03v-21.65h27.67v-12.03H872.2V33.68zm-39.7 370.54H39.7V33.68h820.47z" opacity=".1"/><path fill="#d0cde1" d="M397.74 57.75h141.89V192.7h-141.9z"/><path fill="#6c63ff" d="M413.86 73.87H523.5v83.84H413.86z"/><path fill="#f2f2f2" d="M437.99 87.65h38.44v38.43h-38.44z"/><path fill="#3f3d56" d="M452.7 97.26v46.67h46.68V97.26zm44.65 44.65h-42.62V99.28h42.62z"/><path fill="#f2f2f2" d="M413.75 166.03h59.64v3.14h-59.64z"/><circle cx="468.682" cy="65.592" r="6.278" fill="#3f3d56"/><path fill="#d0cde1" d="M451.25 252.4h141.89v134.98H451.25z"/><path fill="#6c63ff" d="M467.38 268.53H577v83.84H467.38z"/><path fill="#f2f2f2" d="M467.27 362.27h59.63v3.14h-59.63zM467.27 371.68h59.63v3.14h-59.63z"/><circle cx="486.884" cy="310.476" r="12.555" fill="#3f3d56"/><circle cx="522.195" cy="310.476" r="12.555" fill="#f2f2f2"/><circle cx="557.506" cy="310.476" r="12.555" fill="#ff6584"/><circle cx="522.195" cy="260.256" r="6.278" fill="#3f3d56"/><path fill="#d0cde1" d="M234.1 210.24H376V345.2H234.1z"/><path fill="#6c63ff" d="M250.22 226.36h109.65v83.84H250.22z"/><circle cx="297.745" cy="278.082" r="26.619" fill="#f2f2f2"/><path fill="#3f3d56" d="M305.6 298.61a33.37 33.37 0 1133.36-33.37 33.41 33.41 0 01-33.37 33.37zm0-65.53a32.16 32.16 0 1032.15 32.16 32.2 32.2 0 00-32.16-32.16z"/><path fill="#f2f2f2" d="M250.12 327.94h59.63v3.14h-59.63zM250.12 318.53h83.17v3.14h-83.17z"/><circle cx="305.045" cy="218.085" r="6.278" fill="#3f3d56"/><path fill="#d0cde1" d="M78.15 55.34h141.89V190.3H78.15z"/><path fill="#6c63ff" d="M94.28 71.46h109.64v83.85H94.28z"/><path fill="#3f3d56" d="M137.3 137.1h23.59v6.99H137.3zM108.79 82.68h80.61v3H108.8zM108.79 92.17h80.61v3H108.8zM108.79 101.65h80.61v3H108.8zM108.79 111.14h80.61v3H108.8zM108.79 120.62h80.61v3H108.8z"/><path fill="#f2f2f2" d="M94.17 163.63h59.64v3.14H94.17zM94.17 171.47h83.18v3.14H94.17z"/><circle cx="149.097" cy="63.186" r="6.278" fill="#3f3d56"/><path fill="#d0cde1" d="M654.8 143.51l102.75 7.55 29.06 2.13-1.8-1.8 5.45 78.94L793 269.8c.11 1.6.22 3.2.33 4.79.09 1.32.45 2.6-1.12 2.93-3.12.65-6.37.92-9.53 1.32q-9.65 1.22-19.34 2.05a490.06 490.06 0 01-77.7.48q-9.7-.7-19.37-1.8c-2.4-.28-5.37-.38-6.24-3.06-.9-2.77-1.06-5.92-1.47-8.8q-2.72-19.2-3.71-38.61a443.03 443.03 0 012.73-77.26q.58-4.7 1.27-9.4c.33-2.27-3.15-3.25-3.48-.96a446.74 446.74 0 00-4.46 80q.7 20.07 3.21 40.03.64 5.04 1.38 10.06c.4 2.67.5 5.81 2.08 8.1 1.53 2.21 4.1 2.92 6.63 3.26 3.22.43 6.45.73 9.68 1.05a489.84 489.84 0 0080.63 1.2q10.15-.7 20.25-1.8 4.98-.55 9.95-1.2 2.43-.31 4.86-.65a22.38 22.38 0 004.47-.78c3.04-1.1 3.04-4.03 2.85-6.76l-.7-10.17-1.41-20.33-5.66-81.93-.7-10.17a1.86 1.86 0 00-1.81-1.8l-102.76-7.55-29.06-2.14c-2.32-.17-2.3 3.44 0 3.61z"/><path fill="#d0cde1" d="M698.83 186.12c.52-1.38-.79 1.59-.13.27.17-.34.33-.7.52-1.04a19.94 19.94 0 011.22-1.98c.44-.64 1.11-.88-.2.22a9.44 9.44 0 00.76-.88 22.2 22.2 0 011.96-1.9c.49-.42 1.43-.78-.25.16.33-.18.64-.46.96-.67q.97-.66 2-1.22.52-.27 1.05-.53c.6-.28 1.6-.38-.29.1.81-.2 1.6-.6 2.4-.82q1.04-.3 2.1-.5c.63-.11 1.77-.02-.38.02.39 0 .78-.08 1.17-.1a21.94 21.94 0 012.32-.04c.4.02.78.05 1.16.08 1.3.07-1.94-.36 0 .01a19.65 19.65 0 012.26.57 8.6 8.6 0 001.1.39l-.99-.43q.37.16.73.33a20.09 20.09 0 012.08 1.17c.33.21.65.44.98.66 1.03.7-1.38-1.17.08.1q.74.65 1.42 1.37.41.43.8.88c.43.5.76 1.42-.14-.23.82 1.51 1.86 2.89 2.64 4.44.66 1.33-.61-1.65-.1-.25.13.38.28.75.4 1.13q.4 1.14.67 2.32c.19.78.28 1.58.45 2.36-.47-2.15-.13-.9-.08-.32q.06.8.08 1.6.01 1-.05 2c-.03.4-.12.8-.11 1.2-.03-2.03.15-1.02.02-.34a22.68 22.68 0 01-.56 2.34q-.17.57-.37 1.14-.18.5-.38 1 .58-1.36.09-.26c-2 3.99-4.48 7.7-6.44 11.7a53.4 53.4 0 00-4.68 32.17 7.22 7.22 0 003.32 4.31 7.37 7.37 0 005.56.73c4.07-1.32 5.67-4.87 5.04-8.88-.22-1.41.12 1.26-.03-.16-.06-.61-.12-1.22-.16-1.83q-.13-1.84-.1-3.68.01-1.57.14-3.15a9.33 9.33 0 01.2-1.83s-.24 1.46-.08.62c.06-.34.1-.69.17-1.03a44.6 44.6 0 011.8-6.86c.17-.5.36-.98.54-1.48.48-1.3-.5 1.05.08-.21a56.82 56.82 0 011.65-3.32c2.48-4.56 5.3-8.84 7.1-13.75a28.86 28.86 0 001.6-12.03c-.66-8.42-4.23-16.96-10.89-22.41a28.4 28.4 0 00-25.1-5.72 30 30 0 00-21.03 18.62c-1.34 3.54 1.48 8.07 5.04 8.88 4.1.93 7.45-1.25 8.88-5.04zM724.05 272.12a6 6 0 10-6-6 6.07 6.07 0 006 6z"/><path fill="#6c63ff" d="M39.79 481.99h33.68v33.68H39.8z"/><path fill="#3f3d56" d="M93.93 496.43h-40.9v-40.9h40.9zm-39.13-1.78h37.35V457.3H54.8z"/><path fill="#ffb8b8" d="M823.48 300.16l-4.82 14.43s-30.07 34.9-8.42 39.7S834.3 317 834.3 317l6.02-12.02z"/><path fill="#575a89" d="M857.16 125.72s-7.22-1.2-9.62 27.67-3.61 79.4-3.61 79.4l-27.67 70.98 34.89 10.82 16.84-80.6z"/><path fill="#ffb8b8" d="M841.52 555.2l-3.6 22.86h32.47l-1.2-22.86h-27.67zM946.18 580.46l-2.4 31.28 21.65 2.4v-36.08l-19.25 2.4z"/><path fill="#2f2e41" d="M854.75 256.85l-27.67 158.8L834.3 560h37.3V428.88l36.09-67.37 28.87 84.21 7.22 140.76 40.9-7.22-9.62-137.15s-7.22-182.86-14.44-185.26-105.87 0-105.87 0z"/><path fill="#2f2e41" d="M845.13 570.84s0-12.03-9.62-4.81-21.66 20.45-21.66 20.45-45.71 25.26-13.23 28.87 52.93-16.84 52.93-16.84l3.61 3.6s19.25-3.6 19.25-8.41a92.89 92.89 0 00-1.2-12.03s-2.53-20.41-5.48-16.22-19.79 12.6-24.6 5.39zM966.64 604.52s-21.66-10.82-26.47-1.2-8.42 28.87-8.42 28.87-15.64 30.08 12.03 27.67 26.47-18.04 26.47-21.65-1.2-12.03 0-15.64-3.61-18.05-3.61-18.05z"/><circle cx="919.116" cy="44.512" r="33.685" fill="#ffb8b8"/><path fill="#ffb8b8" d="M896.86 60.75l-1.2 43.31 43.3-3.6v-39.7h-42.1z"/><path fill="#d0cde1" d="M941.37 78.8s-20.45 13.23-26.46 15.64-19.25-9.63-19.25-9.63-3.61 2.41-3.61 4.82-2.4 12.03-2.4 12.03l-28.88 95.04 2.4 67.37s87.83 8.42 97.45-2.41-4.81-166.02-4.81-166.02z"/><path d="M935.36 104.06s-32.48 12.03-43.31 1.2c0 0 15.64 3.61 43.3-1.2z" opacity=".1"/><path fill="#575a89" d="M1020.77 365.12c-13.23 8.42-56.54 19.25-56.54 19.25s-4.73-101.84-21.65-117.9c-16.83-15.99-44.31-131.25-19.6-151.3a3.7 3.7 0 01.35-.28l15.64-36.1s2.4-3.6 7.21 1.21a131.37 131.37 0 0110.83 13.23l.69.28 33 12.96-13.24 58.95s56.55 191.28 43.31 199.7z"/><path d="M957.7 93.51l-9.1 33.41-25.62-11.74a3.7 3.7 0 01.35-.29l15.64-36.1s2.4-3.6 7.21 1.21a131.37 131.37 0 0110.83 13.23z" opacity=".1"/><path fill="#575a89" d="M895.06 84.21l-3.61 40.9-.2 1.87-27.47 261.6s-24.06-8.42-32.48-18.05 19.24-116.69 19.24-116.69l2.41-134.74s21.34-15.03 30.06-23.28c2.05-1.92 3.4-3.48 3.62-4.39 1.2-4.81 8.43-7.22 8.43-7.22z"/><path d="M895.06 84.21l-3.61 40.9-.2 1.87-17.25-2.47 9.01-28.69c2.05-1.92 3.4-3.48 3.62-4.39 1.2-4.81 8.43-7.22 8.43-7.22z" opacity=".1"/><path fill="#ffb8b8" d="M959.42 286.92l-13.24 12.03s6.02 25.27 13.24 26.47c0 0 4.81-7.22 6.01-13.23s12.03-12.03 12.03-12.03z"/><path fill="#575a89" d="M975.06 104.06l15.64 2.4s51.73 87.83 45.71 119.1-54.13 85.42-54.13 85.42l-30.08-24.06 44.51-60.15-22.86-72.18z"/><path fill="#2f2e41" d="M885.36 48.3s0-29.71 7.21-36.46h8.67s10.1-14.86 23.1-9.45 34.65 14.85 33.2 29.7-5.94 24.45-5.94 24.45-2.4 0-7.77-8.07c-7.17-10.8 9.38-7.43-12.27-11.48s-34.65-9.45-37.54-4.05-8.66 15.36-8.66 15.36z"/><path fill="#2f2e41" d="M901.1 13.85s1.15-8.68 5.9-10.55z"/><path fill="#2f2e41" d="M901.07 15.64s-2.4-8.42 1.2-12.03z"/></svg>